<?xml version="1.0" encoding="UTF-8"?>
<svg id="Layer_1" xmlns="http://www.w3.org/2000/svg" viewBox="0 0 24 23.99">
  <defs>
    <style>
      .cls-1 {
        fill: #ffcd05;
      }
    </style>
  </defs>
  <path class="cls-1" d="M12,0C5.37,0,0,5.37,0,11.99s5.37,11.99,12,11.99,12-5.37,12-11.99S18.63,0,12,0ZM11.1,4.86h1.79c.48,0,.73,0,.91.1.16.08.29.21.38.38.09.18.1.43.1.91v6.02c0,.12,0,.18-.02.24-.01.05-.04.1-.07.14-.05.06-.11.12-.17.16l-.69.56c-.11.09-.17.14-.19.19-.02.05-.02.1,0,.15.02.06.08.1.19.19l.69.56c.09.08.14.11.17.16.03.04.05.09.07.14.02.08.02.16.02.24v2.75c0,.48,0,.73-.1.91-.08.16-.21.29-.38.38-.19.09-.43.1-.91.1h-1.79c-.48,0-.73,0-.91-.1-.16-.08-.29-.21-.38-.38-.09-.18-.1-.43-.1-.91v-6.02c0-.12,0-.18.02-.24.01-.05.04-.1.07-.14.03-.05.08-.08.17-.16l.69-.56c.11-.09.17-.14.19-.19.02-.05.02-.1,0-.15-.02-.06-.08-.1-.19-.19l-.69-.56c-.06-.05-.12-.1-.17-.16-.03-.04-.05-.09-.07-.14-.02-.08-.02-.16-.02-.24v-2.74c0-.48,0-.73.1-.91.08-.16.21-.29.38-.38.19-.09.43-.1.91-.1h0Z"/>
</svg>