<?xml version="1.0" encoding="UTF-8"?>
<svg id="Layer_1" xmlns="http://www.w3.org/2000/svg" viewBox="0 0 24 20.07">
  <defs>
    <style>
      .cls-1 {
        fill: #ffcd05;
      }
    </style>
  </defs>
  <path class="cls-1" d="M11.99,0C11.56,0,11.12.09,10.71.26L1.78,3.95c-.5.21-.49.91.01,1.12l8.98,3.56c.79.32,1.67.32,2.45,0l8.98-3.56c.5-.2.5-.91.01-1.12L13.26.26C12.86.09,12.43,0,11.99,0ZM23.4,6.09c-.08,0-.15.02-.22.05l-10.01,3.88c-.23.09-.38.32-.38.56v8.9c0,.33.27.6.61.59.07,0,.15-.02.22-.04l10.01-3.89c.23-.09.38-.31.38-.55V6.69c0-.33-.27-.6-.6-.6h0ZM.68,6.13c-.18,0-.35.06-.48.19-.11.11-.2.24-.2.4v8.35c0,.44.51.74.91.54l6.27-3.01.31-.15,2.97-1.44c.47-.22.43-.91-.06-1.09L.88,6.17c-.07-.03-.14-.04-.21-.04h0Z"/>
</svg>