<svg version="1.2" xmlns="http://www.w3.org/2000/svg" viewBox="0 0 1000 1000" width="1000" height="1000">
	<title>Alrajhi-Bank-01</title>
	<style>
		.s0 { fill: #ffcd05 } 
	</style>
	<g>
		<g id="Layer_1">
			<g id="Layer_1-2">
				<g id="Layer_1-2">
					<g id="Layer_2">
						<g id="Layer_1-2-2">
							<path class="s0" d="m825.7 460.1l-117.2-68.2v-135.5c0-38.6-20.6-74.3-54-93.4l-93.1-53.7c-33.4-19.1-74.3-19.1-107.6 0l-93.5 54c-33.3 19.1-53.6 54.8-53.9 93.1v135.8l-117.8 67.9c-33.4 19.1-53.7 54.8-54 93.1v107.7c0 38.6 20.6 74 54 93.1l93.1 54c33.4 19.1 74.3 19.1 107.6 0l117.6-67.9 117.5 67.9c33.3 19.1 74.2 19.1 107.6 0l93.7-53.7c33.4-19.1 53.7-54.8 54-93.1v-107.7c0-38.6-20.6-74.3-54-93.4zm-460.4-203.4c0-17.4 9.2-33.6 24.3-42.3l93.5-54c15-8.7 33.9-8.7 49 0l93.4 54c15.1 8.7 24.4 24.9 24.4 42.3v101.9l-80.7-46.5c-38.3-22-85.3-22-123.6 0l-80.3 46.5zm-5 500.4c-15.1 8.7-33.9 8.7-49 0l-93.1-53.9c-15.1-8.7-24.7-25-24.7-42.4v-107.6c0-17.4 9.3-33.7 24.4-42.4l88.5-51.1v93.5c0 44.1 23.5 85 61.5 107.3l80.1 46.2zm147.1-84.5l-109.7-63.2c-20-11.6-32.5-33.1-32.5-56.3v-127.1l109.7-63.2c20-11.6 44.9-11.6 65 0l109.6 63.2v126.8c0 23.2-12.5 44.7-32.5 56.3zm314-11.9c0 17.4-9.3 33.6-24.7 42.4l-93.4 53.9c-15.1 8.7-34 8.7-49.1 0l-87.9-50.8 80.4-45.8c38.3-22.1 61.8-63 61.8-107.1v-93.7l88.5 51.1c15.1 8.7 24.6 24.9 24.6 42.3v107.7z"/>
						</g>
					</g>
				</g>
			</g>
		</g>
	</g>
</svg>