<?xml version="1.0" encoding="UTF-8"?>
<svg id="Layer_1" xmlns="http://www.w3.org/2000/svg" viewBox="0 0 24 19.13">
  <defs>
    <style>
      .cls-1 {
        fill: #ffcd05;
      }
    </style>
  </defs>
  <path class="cls-1" d="M11.77,8.8h-1.81v-3.04h2.15c1.17,0,1.83.52,1.83,1.47,0,1.01-.77,1.57-2.17,1.57h0ZM12.09,10.01h-2.14v3.35h2.23c1.46,0,2.23-.59,2.23-1.68s-.8-1.66-2.33-1.66ZM24,8.95v1.22c-1.13.11-1.82.94-2.23,2.27-.41,1.32-.46,2.94-.42,4.19.05,1.3-.97,2.5-2.34,2.5H4.98c-1.37,0-2.38-1.2-2.34-2.5.04-1.25-.01-2.87-.42-4.19-.41-1.32-1.1-2.16-2.23-2.27v-1.22c1.13-.11,1.82-.94,2.23-2.27.41-1.32.46-2.94.42-4.19-.05-1.3.97-2.5,2.34-2.5h14.03c1.37,0,2.38,1.2,2.34,2.5-.04,1.25.01,2.87.42,4.19.41,1.32,1.1,2.16,2.23,2.27ZM16.07,11.77c0-1.35-.95-2.33-2.37-2.49v-.06c1.04-.17,1.86-1.14,1.86-2.21,0-1.54-1.21-2.54-3.06-2.54h-4.16v10.17h4.18c2.22,0,3.55-1.09,3.55-2.88Z"/>
</svg>