<?xml version="1.0" encoding="UTF-8"?>
<svg id="Layer_1" xmlns="http://www.w3.org/2000/svg" viewBox="0 0 764.21 229.6">
  <defs>
    <style>
      .cls-1 {
        fill: #ffcd05;
      }
    </style>
  </defs>
  <g>
    <path class="cls-1" d="M696.1,106.2c-1.1.8-1.8,2.1-1.8,3.5v35.5c0,2.4,1.9,4.3,4.3,4.3s4.3-1.9,4.3-4.3v-33.3l37.7-26.4c1.3.7,2.7,1,4.3,1,5.1,0,9.3-4.1,9.3-9.3s-4.1-9.3-9.3-9.3-9.3,4.1-9.3,9.3c0,.4,0,.8.1,1.1l-39.6,27.9h0Z"/>
    <path class="cls-1" d="M669.4,96.8v35.4c-3,1.6-5,4.6-5,8.2,0,5.1,4.1,9.3,9.3,9.3s9.3-4.1,9.3-9.3c0-3.6-2-6.7-5-8.2v-33.1l55.8-39c1.1-.8,1.8-2.1,1.8-3.5v-26.4c0-2.4-1.9-4.3-4.3-4.3s-4.3,1.9-4.3,4.3v24.1l-55.8,39c-1.2.7-1.9,2-1.8,3.5h0Z"/>
    <path class="cls-1" d="M736.2,108.6l-14.2,10c-2,1.4-2.4,4-1,6,.8,1.2,2.2,1.8,3.5,1.8.9,0,1.7-.2,2.5-.8l14.2-10c2-1.4,2.4-4,1-6-1.3-1.9-4-2.4-6-1h0Z"/>
    <path class="cls-1" d="M763.4,133.7c-1.4-2-4.1-2.5-6.1-1.1l-67.3,47.1-67.3-47.1c-2-1.4-4.7-.9-6.1,1.1-1.4,2-.9,4.7,1.1,6.1l64.7,45.3-18.9,13.3c-1.3-.7-2.8-1-4.3-1-5.2,0-9.4,4.2-9.4,9.4s4.2,9.4,9.4,9.4,9.4-4.2,9.4-9.4c0-.4,0-.8-.1-1.2l21.6-15.1,21.6,15.1c0,.4-.1.8-.1,1.2,0,5.2,4.2,9.4,9.4,9.4s9.4-4.2,9.4-9.4-4.2-9.4-9.4-9.4c-1.6,0-3,.4-4.3,1l-18.9-13.3,64.7-45.3c1.8-1.4,2.3-4.1.9-6.1h0Z"/>
    <path class="cls-1" d="M643.8,31.6l14.2-10c2-1.4,2.4-4,1-6-.8-1.2-2.2-1.8-3.5-1.8-.9,0-1.7.2-2.5.8l-14.2,10c-2,1.4-2.4,4-1,6,1.3,1.9,4,2.4,6,1h0Z"/>
    <path class="cls-1" d="M702,17.5v23.7l-55.8,39c-1.1.8-1.8,2.1-1.8,3.5v26.4c0,2.4,1.9,4.3,4.3,4.3s4.3-1.9,4.3-4.3v-24.1l55.8-39c1.1-.8,1.8-2.1,1.8-3.5v-26c3-1.6,5-4.6,5-8.2,0-5.1-4.1-9.3-9.3-9.3s-9.3,4.1-9.3,9.3c.1,3.5,2.1,6.6,5,8.2h0Z"/>
    <path class="cls-1" d="M635,72.1c5.1,0,9.3-4.1,9.3-9.3,0-.4,0-.8-.1-1.1l39.6-27.7c1.1-.8,1.8-2.1,1.8-3.5V4.4c0-2.4-1.9-4.3-4.3-4.3s-4.3,1.9-4.3,4.3v23.9l-37.7,26.3c-1.3-.7-2.7-1-4.3-1-5.1,0-9.3,4.1-9.3,9.3.1,5.1,4.2,9.2,9.3,9.2h0Z"/>
  </g>
  <g>
    <path class="cls-1" d="M182.4,71.3c3.7-3.7,5.5-8.7,5.5-14.9s-1.8-11.1-5.5-14.8c-3.6-3.6-8.5-5.4-14.7-5.4h-13.6v40.6h13.6c6.1,0,11-1.8,14.7-5.5ZM162.4,69.7v-26.4h5c7.9,0,11.8,4.2,11.8,13.1s-4,13.3-11.8,13.3h-5Z"/>
    <rect class="cls-1" x="193.9" y="47.2" width="8" height="29.6"/>
    <path class="cls-1" d="M197.9,43.3c1.4,0,2.6-.4,3.4-1.2.8-.8,1.2-1.9,1.2-3.2s-.4-2.4-1.2-3.2-1.9-1.2-3.4-1.2-2.6.4-3.4,1.2c-.8.8-1.2,1.9-1.2,3.2s.4,2.4,1.2,3.2c.8.7,1.9,1.2,3.4,1.2Z"/>
    <path class="cls-1" d="M212.3,50.6c-2.9,2.8-4.3,6.4-4.3,11.1,0,4.4,1.2,7.8,3.7,10.2,2.5,2.4,5.8,3.6,10.2,3.6,1.8,0,3.6-.3,5.4-1v1.3c0,1.7-.6,3.1-1.9,4-1.2.9-3,1.4-5.3,1.4-3,0-5.6-.5-8-1.4l-1.7,6.3c3,1.2,6.3,1.8,10.1,1.8h0c4.6,0,8.1-1.1,10.8-3.4,2.6-2.2,3.9-5.4,3.9-9.5v-26.1c-3.5-1.5-7.3-2.3-11.6-2.3-4.7-.1-8.5,1.3-11.3,4ZM227.3,67.8c-1.4.7-2.8,1-4.2,1-2.2,0-3.9-.7-5.1-2.1s-1.8-3.3-1.8-5.7h0c0-2.4.7-4.3,2-5.7,1.3-1.4,3.1-2.1,5.5-2.1,1.1,0,2.3.2,3.7.6v14h-.1Z"/>
    <rect class="cls-1" x="242.9" y="47.2" width="8" height="29.6"/>
    <path class="cls-1" d="M246.9,43.3c1.4,0,2.6-.4,3.4-1.2.8-.8,1.2-1.9,1.2-3.2s-.4-2.4-1.2-3.2-1.9-1.2-3.4-1.2-2.6.4-3.4,1.2c-.8.8-1.2,1.9-1.2,3.2s.4,2.4,1.2,3.2c.8.7,2,1.2,3.4,1.2Z"/>
    <path class="cls-1" d="M275,76.9l-.4-6.4c-1,.2-2,.3-3.1.3-2.7,0-4-1.6-4-4.9v-12.4h6.4v-6.4h-6.4v-6.8l-8,.4v6.4h-4v6.4h4v12.5c0,7.6,3.5,11.4,10.4,11.4,2,.1,3.7-.1,5.1-.5h0Z"/>
    <path class="cls-1" d="M289.7,59.3c-3.5,0-6.3.9-8.5,2.5-2.1,1.6-3.2,4-3.2,6.7s1,4.9,3.1,6.6c2,1.7,5,2.5,8.8,2.5,5.1,0,9.3-.9,12.6-2.6h0v-16.1c0-4-1.1-7-3.2-9.1s-5.3-3.2-9.5-3.2c-3.9,0-7.2.6-10,1.7l1.4,6.3c2.2-.9,4.8-1.4,7.7-1.4,3.9,0,5.9,1.7,5.9,5.2v1.4c-1.9-.4-3.6-.5-5.1-.5ZM294.8,70.9c-1,.5-2.3.8-4,.8h0c-3.2,0-4.8-1.2-4.8-3.7s1.6-3.8,4.8-3.8c1.3,0,2.7.1,4.1.5v6.2h-.1Z"/>
    <path class="cls-1" d="M320.7,70.9c-2.1,0-3.1-1.6-3.1-4.8v-31.3l-8,.5v30.9c0,7.5,3.1,11.3,9.3,11.3,1.2,0,2.6-.1,4-.5l-.6-6.3c-.4.1-.9.2-1.6.2Z"/>
    <path class="cls-1" d="M18.5,130.2h6.7v9c-1.7.4-3.3.6-4.9.6-3.8,0-6.8-1.2-8.8-3.5s-3-5.6-3-9.7c0-4.5,1-7.9,3-10.4s5-3.7,8.9-3.7c3.2,0,6.2.6,9,1.7l1.9-7c-3.2-1.4-6.9-2.1-11-2.1-6.3,0-11.3,2-14.9,5.9-3.6,4-5.4,9.3-5.4,15.5s1.8,11.2,5.3,14.9,8.4,5.6,14.7,5.6c4.4,0,8.7-1.1,12.8-3.2v-20.5h-14.2v6.9h-.1Z"/>
    <path class="cls-1" d="M52.5,116c-4.5,0-8,1.4-10.6,4.2s-3.9,6.6-3.9,11.2,1.3,8.4,3.9,11.3c2.6,2.9,6.1,4.3,10.6,4.3s8-1.4,10.5-4.2c2.6-2.8,3.9-6.6,3.9-11.3h0c0-4.7-1.3-8.4-3.9-11.2-2.5-2.9-6-4.3-10.5-4.3ZM57.1,138c-1.1,1.6-2.6,2.4-4.6,2.4s-3.6-.8-4.7-2.4c-1.1-1.6-1.7-3.8-1.7-6.5s.6-4.9,1.7-6.5c1.1-1.6,2.7-2.4,4.7-2.4s3.6.8,4.6,2.3c1.1,1.6,1.6,3.7,1.6,6.5.1,2.9-.5,5-1.6,6.6Z"/>
    <path class="cls-1" d="M89.1,146.3c3-5.2,5.2-10,6.7-14.4,1.4-4.4,2.4-9.4,3-15.2h-8c-.2,4.7-.9,8.9-1.9,12.5-1,3.6-2.5,7.2-4.3,10.7-3.5-7-5.6-14.7-6.1-23.2h-8c.4,5.8,1.4,10.8,2.8,15.1,1.4,4.3,3.8,9.1,6.9,14.5h8.9Z"/>
    <path class="cls-1" d="M117.6,147c3.9,0,7.2-.7,10.1-2l-1.3-6.4c-2.7,1.1-5.3,1.7-8,1.7-4.7,0-7.4-2.2-8.1-6.7h18.3c.2-1.6.2-3,.2-4.4,0-3.9-1.1-7.1-3.4-9.5s-5.3-3.7-9.1-3.7c-4.2,0-7.7,1.4-10.4,4.3s-4,6.4-4,11.2,1.4,8.5,4.3,11.3c2.9,2.8,6.7,4.2,11.4,4.2ZM112.2,124.1c1.1-1.1,2.4-1.7,4.1-1.7,1.6,0,2.7.5,3.6,1.6.9,1,1.3,2.4,1.3,4v.7h-11c.3-2,1-3.5,2-4.6Z"/>
    <path class="cls-1" d="M151.2,123.1l1.1-6.5c-1.4-.3-3.1-.5-5.2-.5-4.7,0-8.8.9-12.1,2.5v27.7h8v-22.7c1.4-.6,3-1,4.8-1,1.4,0,2.5.1,3.4.5Z"/>
    <path class="cls-1" d="M175.3,128.5v17.9h8v-18.4c0-3.8-1.2-6.8-3.5-8.8s-5.6-3.1-9.9-3.1c-4.8,0-9.1.9-13.1,2.6v27.8h8v-22.7c1.5-.7,3.2-1,5.1-1,3.6-.2,5.4,1.8,5.4,5.7Z"/>
    <path class="cls-1" d="M221.2,116c-3.1,0-6.3.8-9.4,2.4-2-1.6-4.8-2.4-8.2-2.4-4.8,0-9.1.9-13,2.6v27.8h8v-22.7h0c1.5-.7,3-1,4.7-1,1.8,0,3.1.5,4,1.4.8,1,1.2,2.4,1.2,4.4v17.9h7.8v-16.9c0-2-.2-3.9-.7-5.4,1.7-.9,3.5-1.4,5.4-1.4,3.5,0,5.2,2,5.2,5.9v17.9h8v-18.4c0-3.8-1.1-6.7-3.3-8.8-2.4-2.2-5.6-3.3-9.7-3.3Z"/>
    <path class="cls-1" d="M255.5,147c3.9,0,7.2-.7,10.1-2l-1.3-6.4c-2.7,1.1-5.3,1.7-8,1.7-4.7,0-7.4-2.2-8.1-6.7h18.3c.2-1.6.2-3,.2-4.4,0-3.9-1.1-7.1-3.4-9.5s-5.3-3.7-9.1-3.7c-4.2,0-7.7,1.4-10.4,4.3-2.7,2.9-4,6.4-4,11.2s1.4,8.5,4.3,11.3c2.9,2.8,6.7,4.2,11.4,4.2ZM250.1,124.1c1.1-1.1,2.4-1.7,4.1-1.7,1.6,0,2.7.5,3.6,1.6.9,1,1.3,2.4,1.3,4v.7h-11c.2-2,.9-3.5,2-4.6Z"/>
    <path class="cls-1" d="M280.7,123.7c1.5-.7,3.2-1,5.1-1,3.6,0,5.4,2,5.4,5.9v17.9h8v-18.4c0-3.8-1.2-6.8-3.5-8.8s-5.6-3.1-9.9-3.1c-4.8,0-9.1.9-13.1,2.6v27.8h8v-22.9Z"/>
    <path class="cls-1" d="M322.5,140c-1,.2-2,.3-3.1.3-2.7,0-4-1.6-4-4.9v-12.4h6.4v-6.4h-6.4v-6.8l-8,.4v6.4h-4v6.4h4v12.6c0,7.6,3.5,11.4,10.4,11.4,2,0,3.7-.2,5-.5h0l-.3-6.5Z"/>
    <path class="cls-1" d="M89.4,175.3c-4.8,10.1-9.4,23.6-14.1,40.6h8.5c.8-3.2,1.6-6.2,2.4-8.9h14.9l2.4,8.9h8.5c-4.5-16.6-9.2-30.2-14.1-40.6h-8.5ZM88.3,199.9c2.2-7.5,4-12.7,5.4-15.8,1.3,2.7,3.1,8,5.4,15.8h-10.8Z"/>
    <path class="cls-1" d="M134.8,208.9c-1.5.7-3.1,1-5,1-3.5,0-5.3-2-5.3-5.8v-17.9h-8v17.9c0,4,1,7,3,9.2,2,2.1,5.3,3.2,10,3.2s9.1-.9,13.2-2.6v-27.8h-8v22.8h.1Z"/>
    <path class="cls-1" d="M163.3,209.9c-2.7,0-4-1.6-4-4.9v-12.4h6.4v-6.4h-6.4v-6.8l-8,.4v6.4h-4v6.4h4v12.5c0,7.6,3.5,11.4,10.4,11.4,2,0,3.7-.2,5-.5l-.4-6.4c-.9.2-2,.3-3,.3Z"/>
    <path class="cls-1" d="M185.7,185.5c-2.4,0-4.3.4-6,1.2v-12.9l-8,.4v41.6h8v-22.5c1.5-.7,3.1-1.1,4.7-1.1,3.8,0,5.7,2,5.7,5.9v17.8h8v-18.4c0-3.8-1.1-6.7-3.4-8.8s-5.2-3.2-9-3.2Z"/>
    <path class="cls-1" d="M218.4,185.6c-4.5,0-8,1.4-10.6,4.2s-3.9,6.6-3.9,11.2,1.3,8.4,3.9,11.3c2.6,2.9,6.1,4.3,10.6,4.3s8-1.4,10.5-4.2c2.6-2.8,3.9-6.6,3.9-11.3h0c0-4.7-1.3-8.4-3.9-11.2-2.6-2.9-6.1-4.3-10.5-4.3ZM223,207.6c-1.1,1.6-2.6,2.4-4.6,2.4s-3.6-.8-4.7-2.4c-1.1-1.6-1.7-3.8-1.7-6.5s.6-4.9,1.7-6.5,2.7-2.4,4.7-2.4,3.6.8,4.6,2.3c1.1,1.6,1.6,3.7,1.6,6.5s-.6,5-1.6,6.6Z"/>
    <path class="cls-1" d="M238.9,188.1v27.7h8v-22.7c1.4-.7,3-1,4.8-1,1.4,0,2.5.1,3.4.5l1.1-6.5c-1.4-.3-3.1-.5-5.2-.5-4.7,0-8.7.8-12.1,2.5Z"/>
    <path class="cls-1" d="M264.8,173.4c-1.5,0-2.6.4-3.4,1.2s-1.2,1.9-1.2,3.2.4,2.4,1.2,3.2c.8.8,2,1.2,3.4,1.2s2.6-.4,3.4-1.2,1.2-1.9,1.2-3.2-.4-2.4-1.2-3.2-1.9-1.2-3.4-1.2Z"/>
    <rect class="cls-1" x="260.8" y="186.3" width="8" height="29.6"/>
    <path class="cls-1" d="M289.4,209.9c-2.7,0-4-1.6-4-4.9v-12.4h6.4v-6.4h-6.4v-6.8l-8,.4v6.4h-4v6.4h4v12.5c0,7.6,3.5,11.4,10.4,11.4,2,0,3.7-.2,5-.5l-.4-6.4c-.9.2-1.9.3-3,.3Z"/>
    <path class="cls-1" d="M313.3,198.3c-.7,3.2-1.9,6.5-3.4,9.8-4-6.8-6.2-14-6.5-21.8h-8c.4,5.5,1.5,10.5,3.1,14.8,1.7,4.3,4.1,8.7,7.3,13.1-.9,1.4-2.2,2.7-4,3.7-1.8,1.1-3.6,1.7-5.4,2l1.3,6.8c6.7-1.1,12.2-5.5,16.7-13.3h0c4.9-8.7,7.7-17.7,8.4-27.1h-8c-.2,4.7-.7,8.7-1.5,12Z"/>
    <path class="cls-1" d="M357.9,70.8c2.3,1.5,5.4,2.2,9.4,2.2,1.6,0,3.4-.1,5.3-.3,1.4,3,4.3,4.5,8.7,4.5h32.3c4.5,0,7.8-.9,10-2.7,2.4,1.8,5.8,2.7,10,2.7h30.9c4.5,0,7.8-.9,10-2.7,2.4,1.8,5.8,2.7,10,2.7h44.6c4.6,0,8.5-.7,11.7-2.2,5,2.7,10.1,4,15.4,4,4.6,0,7-3.3,7-10.1,0-5.1-2.2-9.7-6.7-13.7s-10-6.6-16.5-7.9c-5.1,5.3-7.7,10.5-7.7,15.7,0,1.9.5,3.7,1.4,5.4-1.8.2-3.6.3-5.3.3h-42.7c-2.9,0-5.4-.3-7.5-1,.2-1.3.3-2.9.3-4.5v-7.9l-7,.5v8.1c0,1.5-.5,2.7-1.5,3.5s-3.1,1.2-6.2,1.2h-29c-2.9,0-5.4-.3-7.5-1,.2-1.3.3-2.9.3-4.5v-7.9l-7,.5v8.1c0,1.5-.5,2.7-1.5,3.5s-3.1,1.2-6.2,1.2h-29.4c-2.2,0-3.7-.3-4.5-1-.8-.6-1.2-1.9-1.2-3.8v-17c-4.2,0-8.1.7-11.6,2s-6.4,3.3-8.6,6c-2.2,2.6-3.3,5.7-3.3,9.1.1,3.3,1.3,5.5,3.6,7ZM551.7,60.5h0c3.5,3,5.2,6.3,5.2,9.8,0,1-.6,1.5-1.6,1.5h0c-1.9,0-4.5-.6-7.8-1.9,2.8-2.9,4.2-6,4.2-9.4ZM540.5,55.5c3.9,1,5.9,2.9,5.9,5.7,0,.8-.4,1.8-1.3,2.8-.8,1-2.1,2-3.8,2.9-2.3-1.5-3.5-3.2-3.5-5.3.1-1.9,1-4,2.7-6.1ZM363.5,57.8c2-1.5,4.6-2.4,7.8-2.8v10.5c-.6.1-1.5.1-2.7.1h0c-2.6,0-4.6-.3-6-1s-2.1-1.5-2.1-2.5c.1-1.3,1-2.8,3-4.3Z"/>
    <polygon class="cls-1" points="369.1 39.8 373.7 43.6 373.7 43.7 377.8 39.1 372.9 34.9 369.3 39.1 364.7 35.1 360.6 39.8 365.5 43.8 369.1 39.8"/>
    <path class="cls-1" d="M415.1,54c4.3-1.7,8.5-2.8,12.8-3.6l-.7-3.6c-2.4.5-4.1.8-4.9.8-1,0-1.8-.3-2.4-.8-.5-.6-.8-1.2-.8-2,0-.7.3-1.2.8-1.6.6-.4,1.2-.6,2.1-.6,1,0,2,.2,3.1.5l1.2-3.2c-1.6-.8-3-1.1-4.8-1.1s-3.1.5-4.3,1.6c-1.2,1-1.8,2.4-1.8,4.2,0,2.1.8,3.6,2.3,4.7-.9.3-2.1.8-3.8,1.5l1.2,3.2Z"/>
    <polygon class="cls-1" points="477.3 85.8 472.5 81.7 468.9 85.8 464.2 81.8 460.2 86.5 465.1 90.6 468.7 86.5 473.3 90.4 473.3 90.4 477.3 85.8"/>
    <polygon class="cls-1" points="377.3 108.6 372.5 104.4 368.9 108.6 364.3 104.6 360.2 109.3 365.1 113.3 368.7 109.3 373.3 113.2 373.3 113.2 377.3 108.6"/>
    <path class="cls-1" d="M357.4,140.3c2.3,1.5,5.4,2.2,9.4,2.2,1.6,0,3.4-.1,5.3-.3,1.4,3,4.3,4.5,8.7,4.5h17.4c2.9,0,5.2-.9,7.1-2.8,3.4,1.9,7.4,2.9,12,2.9h0c4,0,7.1-.4,9.6-1.3,1.3-3,2-6.7,2-10.4s-1-7-3.1-9.6c-2-2.6-4.7-3.9-8-3.9-3,0-5.3.8-7,2.3s-3.3,3.7-4.8,6.6c0,.1-.1.2-.1.3s-.1.2-.1.3-.1.2-.2.3c-1.2,2.4-2.3,4.2-3.2,5.3s-2.1,1.6-3.6,1.6h-15.5c-2.2,0-3.7-.3-4.5-1-.8-.6-1.2-1.9-1.2-3.8v-17c-4.2,0-8.1.7-11.6,2s-6.4,3.3-8.6,6c-2.2,2.6-3.3,5.7-3.3,9.1-.1,3,1,5.2,3.3,6.7ZM410.1,136.6c1.6-3,2.8-5.1,3.8-6,1-1,2.2-1.5,3.7-1.5s2.7.7,3.6,2,1.3,3,1.3,5c0,.9-.1,1.9-.2,2.9-1.2.1-2.3.2-3.5.2h0c-3.5,0-6.5-.5-9-1.4-.1-.3,0-.7.3-1.2ZM363.1,127.4c2-1.5,4.6-2.4,7.8-2.8v10.5c-.6.1-1.5.1-2.7.1h0c-2.6,0-4.6-.3-6-1s-2.1-1.5-2.1-2.5c0-1.4,1-2.9,3-4.3Z"/>
    <path class="cls-1" d="M541,105.3c.1,9.8.2,17.5.2,23,0,3.8-.1,7-.2,9.4-1.9.4-4,.6-6.3.6h-1.4c-2.3,0-4.1-.3-5.5-1s-3.3-2.2-5.9-4.5c-3.3-3-5.4-4.9-6.2-5.6-4.7-4.1-8.5-6.1-11.5-6.1-2.2,0-4,.7-5.6,2-1.5,1.3-2.9,3.5-4,6.5l5.2,2c.7-1.1,1.3-1.9,1.9-2.3.6-.4,1.3-.6,2.2-.6,2.1,0,6,2.8,11.9,8.3-5.3,1-12.5,1.5-21.6,1.5h-2.9c-.6,0-1-.1-1.5-.2-.4-.1-.8-.3-1.1-.4-.3-.1-.6-.4-1-.9s-.7-.8-.8-1c-.2-.2-.5-.7-.9-1.4s-.8-1.2-.9-1.4c-1-1.5-1.8-2.7-2.3-3.4-.6-.7-1.5-1.9-2.7-3.3-1.2-1.5-2.6-2.8-4.1-4s-3.2-2.3-5.1-3.3c5.4-3.4,11.6-6,18.6-7.7v-7.8c-9.3,2.2-17.8,5.9-25.3,11.2v9.4c3.7,1.6,6.6,3.4,8.7,5.4s4,4.3,5.6,7c-3.5,1.2-8.5,1.9-15.1,1.9h-4.3c-.1-5.5-1.4-9.9-3.7-13-2.4-3.2-5.4-4.8-9.1-4.8-3.3,0-6.1,1.4-8.4,4.2-2.2,2.8-3.3,6.2-3.3,10.2,0,3.4.8,6.1,2.5,8s4.6,2.9,8.8,2.9c2.3,0,4.4-.1,6-.3-.6,1.5-1.9,2.9-3.9,4.2-2,1.2-4.7,1.9-8.1,1.9-1.6,0-3.2-.1-4.6-.4l-.7,6.9c2.2.6,4.4.9,6.4.9h0c9.2,0,15-4.1,17.2-12.3h5.5c8,0,14.3-1.1,19.1-3.4,2,2.3,4.8,3.4,8.4,3.4h1.6c10.4,0,20.1-1.2,29.4-3.8,1.8,1.4,3.4,2.4,5,2.9,1.6.6,3.5.9,5.7.9h1.5c2.2,0,4.5-.3,6.9-.8s4.2-1.2,5.6-1.9c.6-1.9,1-4.1,1.2-6.6s.3-5.9.3-10.3v-22.4l-7.4.3ZM448.2,138.3h0c-2.7,0-4.6-.4-5.8-1.2-1.1-.8-1.7-2-1.7-3.4,0-1.5.4-2.8,1.3-4,.9-1.1,2.1-1.7,3.7-1.7,2,0,3.6,1.1,4.7,3.2,1.2,2.2,1.8,4.5,2,7.1h-4.2Z"/>
    <polygon class="cls-1" points="555.3 146.7 562.6 146.7 562.6 104.6 555.3 105.3 555.3 146.7"/>
    <polygon class="cls-1" points="378.4 178.1 373.5 174 369.9 178.1 365.3 174.1 361.2 178.8 366.1 182.9 369.7 178.8 374.3 182.7 374.3 182.7 378.4 178.1"/>
    <polygon class="cls-1" points="404.8 224.9 400.1 220.9 396.1 225.6 401 229.6 404.6 225.6 409.2 229.5 409.2 229.5 413.2 224.9 408.4 220.7 404.8 224.9"/>
    <polygon class="cls-1" points="497.6 173.8 492.7 169.7 489.1 173.8 484.5 169.8 480.4 174.5 485.3 178.6 488.9 174.5 493.5 178.4 493.5 178.4 497.6 173.8"/>
    <path class="cls-1" d="M497.8,186.1c-2.3-3.4-5.2-5.1-8.8-5.1-3.2,0-5.9,1.3-8.1,4s-3.3,5.9-3.3,9.8c0,6.3,3.5,9.4,10.5,9.4,2.6,0,4.9-.3,7-1,0,.9,0,1.9-.2,2.9-4.1,1.1-10.9,1.7-20.3,1.7h-2.3c-1.9,0-3.2-.3-3.9-1s-1.3-2.2-1.8-4.4c-1.8-7.5-5.4-11.3-10.7-11.3-2.9,0-5.3.7-7,2.2s-3.3,3.7-4.8,6.6c0,.1-.1.2-.2.3s-.1.2-.2.3-.1.1-.1.2c-.7,1.3-1.2,2.3-1.5,2.9-.3.6-.8,1.3-1.3,2-.6.8-1.2,1.3-1.8,1.6s-1.3.4-2.1.4h-15.2c-2.9,0-5.4-.3-7.5-1,.2-1.3.3-2.9.3-4.5v-7.9l-7,.5v8.1c0,1.5-.5,2.7-1.5,3.5s-3.1,1.2-6.2,1.2h-15.5c-2.2,0-3.7-.3-4.5-1-.8-.6-1.2-1.9-1.2-3.8v-17c-4.2,0-8,.7-11.6,2-3.5,1.3-6.4,3.3-8.6,6-2.2,2.6-3.3,5.7-3.3,9.1,0,3,1.1,5.2,3.4,6.7s5.4,2.2,9.4,2.2c1.6,0,3.4-.1,5.3-.3,1.4,3,4.3,4.5,8.7,4.5h18.5c4.5,0,7.8-.9,10-2.7,2.4,1.8,5.8,2.7,10,2.7h15.9c2.8,0,5.1-.9,7-2.7,3.1,1.9,7,2.8,11.7,2.8,3.6,0,6.7-.8,9.4-2.3,1.7,1.5,4.2,2.2,7.5,2.2h3.1c11.8,0,20-1.3,24.8-3.9,1-2.8,1.6-6.8,1.6-11.9-.1-5.8-1.3-10.6-3.6-14ZM490.9,197.9h0c-4.7,0-7.1-1.5-7.1-4.4,0-1.4.4-2.7,1.2-3.9.8-1.1,2-1.7,3.7-1.7,1.6,0,3,.8,4,2.5s1.7,4,2.1,7c-1.2.3-2.5.5-3.9.5ZM371.9,204.6c-.6.1-1.5.1-2.7.1h0c-2.6,0-4.6-.3-6-1s-2.1-1.5-2.1-2.5c0-1.4,1-2.9,3-4.3,2-1.5,4.6-2.4,7.8-2.8v10.5h0ZM455.8,208.6h0c-3,0-5.8-.5-8.3-1.4l.5-1c1.6-3,2.8-5,3.8-6s2.2-1.5,3.6-1.5c1.5,0,2.6.7,3.4,2,.8,1.4,1.5,3.7,2.3,7.1-1.6.5-3.3.8-5.3.8Z"/>
    <path class="cls-1" d="M537.9,174.8c.1,9.8.2,17.5.2,23,0,3.8-.1,7-.2,9.4-1.9.4-4,.6-6.3.6h-1.9c-3.3,0-5.5-1.1-6.7-3.4-.2-.4-.4-.9-.7-1.4-.2-.5-.4-1-.5-1.4s-.3-1-.5-1.7-.3-1.2-.4-1.6c-.1-.4-.2-1-.5-2s-.4-1.6-.5-2l-6.9,2.1c1.6,5.6,2.4,9.9,2.4,12.6,0,3.3-.9,6.1-2.6,8.3-1.7,2.3-4.4,3.4-8,3.4-1,0-2-.1-3-.2l-.6,6.9c1.8.4,3.6.6,5.4.6h0c4.3,0,7.7-1.3,10.2-3.9,2.5-2.6,4.1-6.1,4.8-10.5,1.8,1.5,4.3,2.3,7.5,2.3h2.4c2.2,0,4.5-.3,6.9-.8s4.2-1.2,5.6-1.9c.6-2,1-4.1,1.2-6.6s.3-5.9.3-10.3v-22.4l-7.6.9Z"/>
    <polygon class="cls-1" points="555.3 216.2 562.6 216.2 562.6 174.2 555.3 174.8 555.3 216.2"/>
  </g>
</svg>