<svg version="1.2" xmlns="http://www.w3.org/2000/svg" viewBox="0 0 764.21 229.6" width="765" height="230">
	<title>Digital Government Authority-01 (1)</title>
	<style>
		.s0 { fill: #ffcd05 } 
	</style>
	<path class="s0" d="m170.3 148.4h-1c-7.4 0-13 3.1-18.6 7.4-0.8-5-1.1-9.9-1.1-14.2 0-4.2 0.4-8.9 0.6-11.6 2.1 1.3 2.6 4 2.6 6.4 0 2.4-0.4 3.7-0.6 4.5 2.2-2.7 2.8-5.4 2.8-7.7 0-2.4-0.8-4.9-1.3-5.8 3.4 2.8 4 6.3 4 9 0 2.7 0 1.2-0.1 1.6 0.7-1.3 1.3-3 1.3-4.9 0-2.8-1.2-6-4.2-8.8 4.7 1.1 6.6 5.5 6.6 9 0 3.4 0 2.3 0.1 0.1 0.4-1.1 0.5-2.2 0.5-3 0-1.3-0.2-2.2-0.6-3.1-1.3-3.6-5-5.1-6.8-5.5 0.4 0 0.8 0 1.2 0 2.8 0 4.5 0.9 5.5 1.9 0.8 0.7 1.3 1.3 1.5 1.6q-0.3-2-1.5-3.4c-1.4-1.8-3.7-2.7-6-2.7-2.3 0-1.8 0.2-2.5 0.5 1.1-1.6 2.9-2.2 4.6-2.2 1.7 0 1.6 0.2 2 0.5-1.2-1.4-2.9-2.2-4.4-2.2-1.6 0-3.5 0.9-4.7 2.7-0.2-0.5-0.6-0.9-0.7-1.5-0.5-0.8-0.7-1.9-0.9-2.8 0-0.1 0-0.2-0.1-0.2-0.1 0-0.2 0.1-0.2 0.2-0.2 1-0.6 2-0.9 2.8-0.2 0.6-0.6 1.1-0.8 1.5-1.2-1.8-2.8-2.7-4.4-2.7-1.7 0-3.4 0.8-4.5 2.3 0.5-0.2 1.2-0.5 2.1-0.5 1.6 0 3.4 0.7 4.4 2.3-0.8-0.4-1.7-0.6-2.7-0.6-2.1 0-4.4 0.9-5.9 2.6-0.8 0.9-1.3 2-1.4 3.4 0.2-0.3 0.6-1 1.4-1.6 1-0.8 2.6-1.9 5.4-1.9 2.8 0 0.9 0 1.4 0-1.8 0.2-5.5 1.8-6.8 5.5-0.4 0.9-0.6 1.9-0.6 3 0 1 0.2 2 0.6 3.2v-0.2c0.1-3.4 2-7.7 6.8-8.8-3.1 2.7-4.3 5.9-4.3 8.8 0 2.8 0.5 3.6 1.2 5-0.1-0.6-0.1-1.2-0.1-1.9 0-2.6 0.6-6 4-8.6-0.6 0.9-1.4 3-1.4 5.6 0 2.7 0.6 5.1 2.8 7.8-0.3-0.9-0.7-2.7-0.7-4.5 0-1.8 0.6-5.1 2.7-6.4 0.2 2.7 0.6 6.7 0.6 11.3 0 4.7-0.2 9.2-1.1 14.3-5.6-4.3-11.3-7.4-18.5-7.4h-1.1c-3.7 0.2-7.4 1.3-10.1 2.8h-0.1c0 0 0 0.2 0.1 0.2 2.6-0.8 5.2-1.3 7.8-1.3 2.7 0 1.5 0 2.2 0 3.3 0.2 6.2 1.3 9 2.5 3.8 1.8 7.4 4.3 10.6 7-2 1.6-8.8 8.1-11 9.2-0.5-0.5-1.2-1-2-1-0.8 0-0.4 0-0.6 0-0.8 0.2-1.6 0.8-1.9 1.9-0.1 0.2-0.1 0.5-0.1 0.6 0 0.5 0.2 1.2 0.6 1.5 0.8 0.8 1.5 1.1 2.5 1.1 0.9 0 1.2-0.2 1.9-0.4 3-1.3 7-5.5 11.8-9.9 0.5-0.3 0.9-0.7 1.3-1.1 0.4 0.5 0.8 0.8 1.2 1.1 4.9 4.4 8.8 8.4 11.8 9.9 0.7 0.2 1.3 0.4 1.9 0.4 0.7 0 1.7-0.3 2.5-1.1 0.4-0.4 0.6-0.9 0.6-1.5 0-0.7 0-0.5-0.1-0.6-0.2-0.9-0.9-1.6-1.9-1.9q-0.3 0-0.6 0c-0.8 0-1.5 0.5-2 1-2.2-1.1-9.1-7.6-11-9.2 3.3-2.7 6.7-5.2 10.6-7 2.8-1.2 5.8-2.1 9-2.5 0.8 0 1.5 0 2.2 0 2.7 0 5.1 0.5 7.8 1.3h0.1c0 0 0-0.2-0.1-0.2-2.7-1.6-6.3-2.7-10-2.9z"/>
	<path class="s0" d="m2 70.7l1.2 1 70.2-58.3-10.2-4.4-61.2 61.7z"/>
	<path class="s0" d="m78 9.4l-4.6 4 66.8 30 23.3-2.9-85.5-31.1z"/>
	<path class="s0" d="m66.8 5.4l-3.6 3.6 10.2 4.4 4.6-4-11.2-4z"/>
	<path class="s0" d="m85.3 50.1l1.7 6.6 16.8-0.6-7.7-7.4-10.8 1.4z"/>
	<path class="s0" d="m163.2 53.8l-23-10.4-33.8 4.1 8.9 8.2 47.9-1.9z"/>
	<path class="s0" d="m78.8 57.1l-1.1-6.2-41.8 5.1 1.5 2.8 41.4-1.7z"/>
	<path class="s0" d="m163.5 40.5l-23.3 2.9 23 10.4 0.3-13.3z"/>
	<path class="s0" d="m37.4 58.8l-5.2 0.1 79 153.7-8.8-42.2-65-111.6z"/>
	<path class="s0" d="m35.9 56l-3.7 2.9 5.2-0.1-1.5-2.8z"/>
	<path class="s0" d="m81.4 34.5l-9.1-8.7 5.4 25.1 7.6-0.8-3.9-15.6z"/>
	<path class="s0" d="m102.4 170.4l22.3 38.3-37.7-152-8.2 0.4 23.6 113.3z"/>
	<path class="s0" d="m77.7 50.9l1.1 6.2 8.2-0.4-1.7-6.6-7.6 0.8z"/>
	<path class="s0" d="m111.2 212.6l13.5-3.9-22.3-38.3 8.8 42.2z"/>
	<path class="s0" d="m115.3 55.7l-11.5 0.4 104.9 101 10.4-5.2-103.8-96.2z"/>
	<path class="s0" d="m96.1 48.7l10.3-1.2-28.4-26.3 3.4 13.3 14.7 14.2z"/>
	<path class="s0" d="m220.1 168.4l12.7-4-9-8.2-10.3 5.7 6.6 6.5z"/>
	<path class="s0" d="m106.4 47.5l-10.3 1.2 7.7 7.4 11.5-0.4-8.9-8.2z"/>
	<path class="s0" d="m78 21.2l-5.7 4.6 9.1 8.7-3.4-13.3z"/>
	<path class="s0" d="m178 181.7l-41.9 23.6 94.8-26.6-10.8-10.3-42.1 13.3z"/>
	<path class="s0" d="m230.9 178.7l1.9-14.3-12.7 4 10.8 10.3z"/>
	<path class="s0" d="m213.5 161.9l-4.8-4.8-77.7 39.5 47-14.9 35.5-19.8z"/>
	<path class="s0" d="m219.1 151.9l4.7 4.3 7.3-4.2-3-4.8-9 4.7z"/>
	<path class="s0" d="m262.5 134.5l3-6.3-29.1 14.8 3 4.4 23.1-12.9z"/>
	<path class="s0" d="m208.7 157.1l4.8 4.8 10.3-5.7-4.7-4.3-10.4 5.2z"/>
	<path class="s0" d="m131 196.6l5.1 8.7 41.9-23.6-47 14.9z"/>
	<path class="s0" d="m262.5 134.5l-12.9 27 9.6 13.6 9.5-44.1-6.2 3.5z"/>
	<path class="s0" d="m268.7 131l-3.2-2.8-3 6.3 6.2-3.5z"/>
	<path class="s0" d="m239.4 147.4l-8.3 4.6 13 21.2 5.5-11.7-10.2-14.1z"/>
	<path class="s0" d="m177.2 59.8l-1.8 1.1 52.7 86.3 8.3-4.2-59.2-83.2z"/>
	<path class="s0" d="m236.4 143l-8.3 4.2 3 4.8 8.3-4.6-3-4.4z"/>
	<path class="s0" d="m244.1 173.2l15.1 1.9-9.6-13.6-5.5 11.7z"/>
	<path class="s0" d="m317 158.6v-20.5h2.2v20.5zm30.9 0h2.3v-20.5h-2.3zm278.4 0h2.3v-20.5h-2.3zm65.4-20.5h-2.3v20.5h2.3zm-330.2 11v-2.7c-2.2-0.7-3.7-1.3-3.7-3 0-1.8 1.6-3.1 3.7-3.4v-2.3c-3.7 0.2-6.3 2.5-6.3 5.6 0 3 3.4 4.9 6.3 5.8zm1.3-9c1.9 0.2 3.5 0.9 4.4 2.3l0.2 0.4 1.6-1.8-0.1-0.2c-1.5-1.6-3.7-2.7-6.2-2.9v2.2zm-1.3 16.6c-2.7-0.2-4.4-1.8-5.1-2.7l-0.2-0.3-1.6 1.8 0.2 0.2c1.7 2 4.1 3 6.9 3.2v-2.2zm1.3-9.8v2.7c2.3 0.7 4.1 1.5 4.1 3.6 0 2.1-1.1 3.4-4.1 3.5v2.3c4.9-0.2 6.7-3.2 6.7-5.9 0.1-4.2-3.5-5.4-6.7-6.2zm31.5-8.8h-2.3v20.5h2.3zm1.4 2.2h3.7c2.5 0 4.1 1.6 4.1 3.8 0 2.2-1.6 3.8-4.1 3.8h-3.7v2.1h5c3.3-0.4 5.2-2.7 5.2-6.1 0-3.3-2.6-6.2-6.3-6.2h-4c0 0.2 0 2.6 0 2.6zm6.2 11.5h-2.9l4.5 6.9h3zm8.6-13.6h-2.8l8.2 11.8v8.8h2.5v-9.2zm8.5 10.4l7.2-10.3h-2.9l-5.6 8.3zm-115.7 6.7l6.9-17.1h-2.4l-5.8 14.2zm-8.4-17.1h-2.4l8.3 20.5h2.5zm14.5 5.9v14.6h2.5v-20.5zm-18.5-5.9v20.5h2.3v-14.7zm252.5 17.1l5.2-12.7 1.8-4.4h-2.5l-5.7 14.1zm6.1-11.2v14.6h2.5v-20.5zm-14.6-5.9h-2.5l8.4 20.2v0.2h2.6zm-3.9 0v20.5h2.3v-14.6zm29.2 0h-2.5l0.2 0.3 8.2 20v0.2h2.6zm8.4 17l5.2-12.6 1.8-4.4h-2.5l-5.7 14.1zm6-11.2v14.6h2.5v-20.5zm-18.4-5.9v20.5h2.3v-14.7zm-178.6 0h-5.2v2.3h5.2zm5.1 0v2.3h5.1v-2.3zm-3.8 20.5h2.2v-20.5h-2.2zm67.5-1.9c-4-0.5-6.7-3.6-6.7-8.3 0-4.7 2.7-7.8 6.7-8.3v-2.2c-5.4 0.5-9.2 4.7-9.2 10.5 0 5.8 3.8 10 9.2 10.5zm1.4-18.8v2.3c4.1 0.2 7 3.5 7 8.3 0 4.8-2.8 8.1-7 8.4v2.2c5.6-0.2 9.6-4.5 9.6-10.5-0.1-6.2-4-10.5-9.6-10.7zm17.3 0.2v2.3h9.5v-2.3zm-1.4 0h-2.3v20.5h2.3zm1.4 11.2h9.3v-2.3h-9.3zm37.7 4.5l-0.2 0.1c-1.2 1.7-3 2.7-5.1 2.7v2.3c2.9 0 5.1-1.2 7.1-3.6l0.2-0.4zm-5.2-13.7c2 0 4.1 1.1 5.1 2.6l0.2 0.2 2-1.2-0.2-0.4c-1.8-2.3-4.2-3.4-7-3.6v2.3zm-1.5 16.7c-4.1-0.6-6.9-3.9-6.9-8.3 0-4.5 2.8-7.8 6.9-8.3v-2.3c-5.6 0.5-9.4 4.8-9.4 10.5 0 5.6 3.7 10 9.4 10.5zm20.9 0c-4.1-0.5-6.7-3.7-6.7-8.3 0-4.7 2.6-7.9 6.7-8.3v-2.2c-5.5 0.4-9.2 4.6-9.2 10.5 0 5.8 3.7 10 9.2 10.5zm1.5-18.8v2.3c4.1 0.1 6.9 3.5 6.9 8.3 0 4.7-2.7 8.1-6.9 8.3v2.2c5.5-0.1 9.5-4.4 9.5-10.5-0.2-6.2-4-10.4-9.5-10.6zm186.8 18.8c-4-0.5-6.7-3.7-6.7-8.3 0-4.7 2.7-7.9 6.7-8.3v-2.2c-5.4 0.4-9.2 4.6-9.2 10.5 0 5.8 3.8 10 9.2 10.5zm1.3-18.8v2.2c4.1 0.2 7 3.6 7 8.3 0 4.8-2.8 8.2-7 8.4v2.2c5.6-0.2 9.6-4.4 9.6-10.5 0-6-3.8-10.5-9.6-10.6zm-116.6 18.5c-3.2-0.2-4.9-2.3-4.9-5.9v-12.5h-2.5v12.5c0 5 2.7 8.2 7.4 8.3zm6.3-18.3v12.5c0 3.6-1.8 5.7-4.8 5.9v2.3c4.6-0.2 7.3-3.3 7.3-8.3v-12.6zm46.2 18.6c-4.1-0.5-6.9-3.8-6.9-8.3 0-4.4 2.8-7.7 6.9-8.3v-2.2c-5.5 0.5-9.4 4.8-9.4 10.4 0 5.7 3.8 10.1 9.4 10.5zm1.3-16.7c2 0 4.1 1.2 5.2 2.7l0.2 0.2 2-1.2-0.2-0.4c-1.8-2.3-4.2-3.4-7.1-3.6v2.2zm5.5 13.8l-0.2 0.2c-1.3 1.6-3.1 2.7-5.2 2.7v2.2c2.9 0 5.2-1.2 7.2-3.6l0.2-0.4zm-321.6-15.6h-2.9l14.5 20.5h3zm14.2 17.5v-17.5h-2.3v14.1zm-16.7-14.4v17.5h2.3v-14.1zm349.6-3h-5.1v2.3h5.1zm4 0h-2.5v20.5h2.3zm1.3 0v2.3h5.1v-2.3zm-73.7-0.1h-2.9l14.5 20.5h3.1zm14.2 17.6v-17.6h-2.3v14.2zm-16.8-14.5v17.5h2.3v-14.1zm119.3-3.1h-2.9l14.5 20.5h3.1zm14.2 17.6v-17.6h-2.3v14.2zm-16.7-14.6v17.5h2.3v-14.1zm-55.8 9.7h-4.9l-0.8 2.3h6.7zm-0.5-11.2l-1.2 3.2 6.3 15.6h2.7zm-0.8-1.5h-2.6l-8.2 20.1-0.2 0.5h2.7z"/>
	<path class="s0" d="m748.3 149.1v-2.7c-2.2-0.6-3.7-1.3-3.7-3 0-1.8 1.6-3.1 3.7-3.4v-2.3c-3.7 0.2-6.3 2.5-6.3 5.6 0 4 3.3 4.9 6.3 5.8z"/>
	<path class="s0" d="m749.6 140.1c1.8 0.2 3.4 0.9 4.3 2.3l0.2 0.4 1.7-1.8v-0.2c-1.6-1.6-3.8-2.7-6.2-2.9z"/>
	<path class="s0" d="m748.3 156.7c-2.7-0.2-4.4-1.8-5.1-2.6l-0.2-0.4-1.6 1.8 0.2 0.2c1.7 2 4.1 3 6.9 3.2v-2.2z"/>
	<path class="s0" d="m749.6 146.9v2.7c2.2 0.7 4.1 1.5 4.1 3.6 0 2.1-1.2 3.4-4.1 3.5v2.3c4.8-0.2 6.6-3.2 6.6-5.9 0-4.2-3.5-5.3-6.6-6.2z"/>
	<path class="s0" d="m363.1 171.6v20.5h-2.3v-20.5z"/>
	<path class="s0" d="m507.3 171.6v20.5h-2.3v-20.5z"/>
	<path class="s0" d="m741.7 171.6h-2.8l8.2 11.7v8.8h2.3v-9.1l-7.7-11.4z"/>
	<path class="s0" d="m750.4 181.9l7.3-10.3h-2.9l-5.7 8.3 1.3 2z"/>
	<path class="s0" d="m450.3 171.6h-2.3l0.1 0.4 8.2 19.9 0.1 0.2h2.4l-8.5-20.5z"/>
	<path class="s0" d="m458.9 188.7l5.2-12.6 1.8-4.5h-2.5l-5.7 14.2 1.2 2.9z"/>
	<path class="s0" d="m446.5 171.6v20.5h2.3v-14.7l-2.3-5.8z"/>
	<path class="s0" d="m464.9 177.6v14.5h2.4v-20.5l-2.4 6z"/>
	<path class="s0" d="m495.3 171.6v20.5h-2.3v-20.5z"/>
	<path class="s0" d="m501.7 171.6v2.3h-5.1v-2.3z"/>
	<path class="s0" d="m491.6 171.6v2.3h-5.2v-2.3z"/>
	<path class="s0" d="m414.4 190.1c-4-0.5-6.7-3.6-6.7-8.3 0-4.7 2.7-7.8 6.7-8.3v-2.2c-5.5 0.5-9.2 4.7-9.2 10.5 0 5.8 3.7 10 9.2 10.5z"/>
	<path class="s0" d="m415.8 171.3v2.3c4.1 0.2 7 3.5 7 8.3 0 4.8-2.8 8.1-7 8.4v2.2c5.5-0.2 9.5-4.5 9.5-10.5-0.1-6.2-4-10.5-9.5-10.7z"/>
	<path class="s0" d="m520.4 190.1c-4-0.5-6.7-3.6-6.7-8.3 0-4.7 2.7-7.8 6.7-8.3v-2.2c-5.5 0.5-9.2 4.7-9.2 10.5 0 5.8 3.7 10 9.2 10.5z"/>
	<path class="s0" d="m521.8 171.3v2.3c4.1 0.2 7 3.5 7 8.3 0 4.8-2.8 8.1-7 8.4v2.2c5.5-0.2 9.5-4.5 9.5-10.5 0-6-3.9-10.5-9.5-10.7z"/>
	<path class="s0" d="m594 180.5v2.3h-9.2v-2.3z"/>
	<path class="s0" d="m594.3 189.8v2.3h-9.5v-2.3z"/>
	<path class="s0" d="m301.1 173.2l-1.3 3.3 6.2 15.6h2.8l-7.7-18.9z"/>
	<path class="s0" d="m301.5 184.5h-5l-0.9 2.4h6.9l-1-2.4z"/>
	<path class="s0" d="m300.3 171.6h-2.6l-8.2 20-0.1 0.5h2.7l8.2-20.5z"/>
	<path class="s0" d="m327.7 189.1v-17.5h-2.3v14.2l2.3 3.3z"/>
	<path class="s0" d="m313.5 171.6h-2.8l14.4 20.5h3.1l-14.7-20.5z"/>
	<path class="s0" d="m311 174.7v17.4h2.5v-14.2l-2.5-3.2z"/>
	<path class="s0" d="m535 174.8v17.3h2.4v-14l-2.4-3.3z"/>
	<path class="s0" d="m551.8 189.3v-17.7h-2.4v14.2l2.4 3.5z"/>
	<path class="s0" d="m549 192.1h3.1l-14.7-20.5h-2.8l14.3 20.4 0.1 0.1z"/>
	<path class="s0" d="m656.6 189.1v-17.5h-2.6v14.2l2.6 3.3z"/>
	<path class="s0" d="m642.2 171.6h-2.8l14.4 20.5h3.1l-14.7-20.5z"/>
	<path class="s0" d="m639.8 174.8v17.3h2.3v-14l-2.3-3.3z"/>
	<path class="s0" d="m384.5 189.1v-17.5h-2.4v14.2l2.4 3.3z"/>
	<path class="s0" d="m367.8 174.8v17.3h2.3v-14l-2.3-3.3z"/>
	<path class="s0" d="m381.8 192.1h3.2l-14.7-20.5h-3.1l14.5 20.4 0.1 0.1z"/>
	<path class="s0" d="m334.7 171.6v20.5h-2.3v-20.5z"/>
	<path class="s0" d="m339.2 171.6h-2.9v2.3h2.9c4.8 0 7.8 3.1 7.8 7.8 0 4.8-3 8.2-7.8 8.2h-2.9v2.3h2.9c6.2 0 10.4-4.2 10.4-10.5 0-6-4.2-10.1-10.4-10.1z"/>
	<path class="s0" d="m391.4 171.6v20.5h-2.3v-20.5z"/>
	<path class="s0" d="m402.4 171.6v2.3h-9.5v-2.3z"/>
	<path class="s0" d="m402.2 180.5v2.3h-9.3v-2.3z"/>
	<path class="s0" d="m432.2 173.9h3.7c2.5 0 4.1 1.6 4.1 3.8 0 2.2-1.6 3.8-4.1 3.8h-3.7v2.1h5.1c3.2-0.4 5.1-2.7 5.1-6.1 0-3.3-2.6-6.2-6.3-6.2h-4c0 0.1 0 2.6 0 2.6z"/>
	<path class="s0" d="m438.3 185.2h-2.8l4.6 6.9h3l-4.8-6.9z"/>
	<path class="s0" d="m430.8 171.6v20.5h-2.3v-20.5z"/>
	<path class="s0" d="m482.2 184.5h-4.9l-1 2.4h6.8l-0.9-2.4z"/>
	<path class="s0" d="m481.8 173.2l-1.2 3.2 6.2 15.7h2.6l-7.6-18.9z"/>
	<path class="s0" d="m480.9 171.6h-2.4l-8.2 20-0.5 0.5h2.9l8.2-20.5z"/>
	<path class="s0" d="m631.3 182.7v-2.2h-10.5v-8.9h-2.2v11.1h12.7z"/>
	<path class="s0" d="m620.8 184.1v8.1h-2.2v-8.1z"/>
	<path class="s0" d="m730 173.6c2.1 0 4.1 1.2 5.1 2.7l0.2 0.2 2-1.3-0.1-0.3c-1.9-2.3-4.3-3.6-7.2-3.7z"/>
	<path class="s0" d="m728.6 183.4h8.9v-2h-8.9v2z"/>
	<path class="s0" d="m735.2 184.9v3c-1.1 1.3-3 2.1-5.1 2.2v2.3c3 0 5.5-1.2 7.4-3.3v-4.2h-2.4z"/>
	<path class="s0" d="m728.6 190.1c-4.1-0.6-6.8-3.8-6.8-8.3 0-4.5 2.8-7.7 6.8-8.3v-2.3c-5.6 0.6-9.3 4.9-9.3 10.5 0 5.7 3.7 9.9 9.3 10.5z"/>
	<path class="s0" d="m695.9 189.8v2.3h-8.2v-2.3z"/>
	<path class="s0" d="m571.2 171.6v20.5h-2.3v-20.5z"/>
	<path class="s0" d="m577.7 171.6v2.3h-5v-2.3z"/>
	<path class="s0" d="m567.7 171.6v2.3h-5.2v-2.3z"/>
	<path class="s0" d="m583.3 171.6v20.5h-2.2v-20.5z"/>
	<path class="s0" d="m594 180.5v2.3h-9.2v-2.3z"/>
	<path class="s0" d="m594 171.6v2.3h-9.2v-2.3z"/>
	<path class="s0" d="m635.1 171.6v20.5h-2.3v-20.5z"/>
	<path class="s0" d="m686.1 171.6v20.5h-2.3v-20.5z"/>
	<path class="s0" d="m705.4 190.1c-4-0.5-6.7-3.6-6.7-8.3 0-4.7 2.7-7.8 6.7-8.3v-2.2c-5.5 0.5-9.2 4.7-9.2 10.5 0 5.8 3.7 10 9.2 10.5z"/>
	<path class="s0" d="m706.7 171.3v2.3c4.1 0.2 7 3.5 7 8.3 0 4.8-2.8 8.1-7 8.4v2.2c5.5-0.2 9.6-4.5 9.6-10.5 0-6-4-10.5-9.6-10.7z"/>
	<path class="s0" d="m669.4 190.1c-4-0.5-6.7-3.6-6.7-8.3 0-4.7 2.7-7.8 6.7-8.3v-2.2c-5.4 0.5-9.2 4.7-9.2 10.5 0 5.8 3.8 10 9.2 10.5z"/>
	<path class="s0" d="m670.8 171.3v2.3c4.1 0.2 7 3.5 7 8.3 0 4.8-2.8 8.1-7 8.4v2.2c5.6-0.2 9.6-4.5 9.6-10.5 0-6.2-4-10.5-9.6-10.7z"/>
	<path class="s0" d="m606.8 190.1c-4.1-0.6-6.9-3.8-6.9-8.3 0-4.5 2.8-7.7 6.9-8.3v-2.3c-5.5 0.6-9.3 4.9-9.3 10.5 0 5.7 3.7 10 9.3 10.5z"/>
	<path class="s0" d="m608.2 173.6c2 0 4.1 1.2 5.1 2.7l0.2 0.2 2-1.3-0.2-0.3c-1.8-2.3-4.2-3.5-7.1-3.7v2.3z"/>
	<path class="s0" d="m613.5 187.3l-0.2 0.1c-1.2 1.7-3 2.7-5.1 2.7v2.3c2.8 0 5.1-1.2 7.1-3.6l0.2-0.4z"/>
	<path class="s0" d="m536.6 70.6c0.7 0.8 0.9 1.9 0.9 3.4v4.9h2.2v-5.2c0-1.9-0.5-3.5-1.5-4.7-1.3-1.6-2.8-2.2-5-2.2h-10.5v2.3h10.7c1.4 0 2.5 0.7 3.2 1.5zm79.9-5.9h-2.3v14.4h2.3zm52 33.4h-2.3v14.3h2.3zm-55.1-38.6h-2.5v3.5h2.5zm37.1-0.1h-2.3v23.2h2.3zm-20.2 23.3c3 0 5.5-0.6 7.3-2.1 1.9-1.3 2.5-3.8 2.5-5.5v-15.6h-2.3v15.3c0 2-0.5 3.3-1.8 4.2-1.2 0.9-2.8 1.3-4.8 1.3h-9.2l0.2 2.3h8.1zm0.1-19.9h-2.3v16h2.3zm-294.4 17.9c1.9-1.4 2.5-3.9 2.5-5.6v-15.5h-2.3v15.2c0 2-0.5 3.4-1.8 4.2-1 0.8-2.6 1.3-4.2 1.4h-9.8l0.2 2.3h8.1c3.1 0.1 5.5-0.6 7.3-2zm166 22l0.2-0.4-0.2-0.2c-0.5-0.4-0.9-0.6-1.4-1l-0.2-0.2-4.7 11.5h2.5zm19.6-38.1h-2.3v14.4h2.3zm-37.4 36.5c-0.6 0.4-0.9 0.8-1.3 1.2l-0.2 0.1 4 10.1h2.6l-4.7-11.6zm-13.8 11.4v-19.3h-2.3v19.1h2.3zm27.7-10l0.9-2.2c-2.3-1.3-4.5-2-6.7-2-2.2 0-4.4 0.7-6.7 2l0.9 2.2c1.9-1.3 3.7-1.9 5.7-1.9 2.1 0.1 4.3 0.8 5.9 1.9zm97.4-5.9v-3.4h-2.5v3.4zm-246.2-37.1h-2.3v19.4h2.3zm267.2 20.8h-269.6v2.3h269.6zm2.8-20.7h-2.5v3.4h2.5zm93.9 52.9h2.3v-14.2h-2.3zm2.3-19.4h-2.5v3.4h2.5zm16.2 3.6v-3.5h-2.5v3.5zm-11.9-37.2h-2.3v23.3h2.3zm9.1 29c4.2 0 4.7-3.2 4.7-6.1v-17.8h-2.3v17.8c0 2.2-0.3 3.6-2.1 3.6-1.7 0-0.6 0-1-0.1l-0.5-0.2-0.8 2.2 0.4 0.2c0.4 0.3 1.1 0.4 1.6 0.4zm23.3-5.7v-2.3h-0.7c-5.9 0-7.9-3.6-7.9-6.7 0-3 4.1-6.6 7.9-6.6h0.8v-2.3c-6.7 0-11.1 3.5-11.1 9 0 5.6 4.1 8.9 11.1 8.9zm-18.6-23.1h-2.5v3.4h2.5zm-43.2 23.1v-2.3h-1c-4.4 0-7.7-2.6-7.7-6.6 0-4 4-6.7 7.7-6.7h1.1v-2.3c-6.6 0-11 3.7-11 9.1 0 4.2 3 8.8 11 8.8zm12.9 5.8c4.1 0 4.6-3.3 4.6-6.1v-17.9h-2.2v17.9c0 2.2-0.4 3.6-2.1 3.6-1.8 0-0.7-0.1-1.1-0.2l-0.5-0.2-0.8 2.2 0.5 0.2c0.3 0.4 1 0.5 1.6 0.5zm-9-5.8v-18.1h-2.3v18.1zm-7.1 29.7v-14.2h-2.3v14.2zm1.3-52.8h-2.5v3.5h2.5zm5.8 0h-2.4v3.4h2.5v-3.4zm13 37h2.5v-3.4h-2.5zm-2.2 15.8c-1.2-1.2-2.5-2.9-2.5-5.1 0-4.3 3.8-6.7 7.7-6.7h1.6v-2.3h-0.8c-6.7 0-11 3.4-11 9 0 5.7 0.6 3.8 1.7 5.2h3.3zm-17.9-19.4h-2.5v3.5h2.5zm-100.5 14c0 4.4 2.9 9.1 11 9.1v-2.3h-0.9c-4.5 0-7.7-2.7-7.7-6.7 0-4 4-6.7 7.7-6.7h0.9v-2.3c-6.4-0.2-11 3.6-11 8.9zm76.2 15h2.5v-3.5h-2.5zm-108.5-5.9h2.3v-23h-2.3zm44.7-19.5h2.5v-3.5h-2.5zm0 19.6h2.3v-18h-2.3zm-69-2.3c0-0.2 0.2-0.5 0.2-0.7 0-0.2 0-0.2 0-0.2v-0.2q0.3-0.3 0.3-0.6c0.2-0.8 0.5-1.9 0.5-2.8 0-1.9-0.6-3.6-1.4-5.2-0.8-1.5-2.3-2.7-4-3.5-1.1-0.6-2.3-0.8-3.5-0.9v2.3c3.7 0.5 6.6 3.4 6.6 7.4 0 4-2.7 6.8-6.6 7.1v2.3c1.3-0.1 2.7-0.4 3.7-1 0 0 0-0.1 0.2-0.1h0.2c0.2-0.2 0.4-0.3 0.6-0.5h0.2c0.2-0.3 0.4-0.3 0.5-0.6 0.2-0.1 0.2-0.2 0.5-0.3 0-0.1 0.2-0.3 0.2-0.3 0.6-0.6 1.1-1.3 1.4-1.9v-0.3h0.1zm13.9-1.5h2.3v-19.2h-2.3zm-12.5 1.5c-0.4 0.6-0.6 1.2-1.1 1.6l-0.4 0.6h16.3v-2.3h-14.8zm222.2 2v0.2c0 0 0 0.2 0 0.4-0.2 2-1.6 3.2-4.3 3.2-2.7 0-3-0.7-4.4-1.4l-0.5-0.2-1.1 2.1 0.5 0.2c1.6 0.8 3.2 1.6 5.4 1.6 4.2 0 7-2.3 7-6v-17.8h-2.5v17.7zm-1.5 0.2v-2.3h-0.7c-5.9 0-7.8-3.5-7.8-6.7 0-3.1 4.1-6.7 7.8-6.7h0.8v-2.2c-6.7 0-11.1 3.5-11.1 9 0 5.6 4.1 8.9 11.1 8.9zm-83.3 5.9h2.4v-3.4h-2.4zm84.8-57.6v18.3c-0.2 2-1.6 3.2-4.3 3.2-2.7 0-3-0.7-4.4-1.4l-0.5-0.2-1.1 2.1 0.4 0.2c1.7 0.8 3.3 1.6 5.5 1.6 4.2 0 6.9-2.3 6.9-6.1v-17.9l-2.4 0.2zm-150.9 51.7h132v-2.3h-132zm132.4-19.6h2.4v-3.4h-2.4zm-2.7 15.8h2.3v-14.2h-2.3zm-427.3-19.4v3.5h2.5v-3.5zm-10.2-14.1c-1.2-0.9-1.8-2.2-1.8-4.2v-7h-2.3v7.4c0 1.6 0.7 4.2 2.5 5.5 2 1.5 3.8 2.1 7.3 2.1h16.1v-2.3h-17.1c-1.8-0.2-3.5-0.6-4.7-1.5zm12.6-19.4h-2.5v3.5h2.5zm6.7 52.8h2.3v-14.2h-2.3zm0.1-33.5h2.3v-14.4h-2.3zm-12.6-19.4h-2.6v3.5h2.5v-3.5zm0 33.5h-2.6v3.5h2.5v-3.5zm27.2-30.3h-2.3v16h2.3zm-34 49.7c-1.2-0.8-1.8-2.2-1.8-4.2v-6.9h-2.3v7.3c0 1.6 0.7 4.1 2.5 5.6 2 1.5 3.8 2.1 7.3 2.1h16v-2.3h-16.9c-1.9-0.1-3.5-0.6-4.8-1.6zm129.5 3.8v-2.3h-1c-5.9 0-7.8-3.6-7.8-6.7 0-3.2 4.1-6.7 7.8-6.7h1.1v-2.3c-6.8 0-11.2 3.5-11.2 9.1 0 5.5 4.2 8.9 11.2 8.9zm1.5-0.2v0.3c-0.2 2.1-1.8 3.4-4.4 3.4-2.6 0-2.9-0.7-4.4-1.4l-0.4-0.2-1.2 2.1 0.5 0.2c1.6 0.8 3.2 1.6 5.4 1.6 3.5 0 7-0.6 7-4.7v-19.1h-2.3zm-100.5-3.6v-19.3h-2.3v19.1h2.3zm187.7-7.4c-0.7 1.4-1 2.9-1 4.4 0 5.2 3.8 9.3 8.8 9.6v-2.5c-3.6-0.2-6.6-3.4-6.6-7.2 0-3.7 2.8-6.9 6.6-7.3v-2.3c-0.6 0-1.4 0.1-2 0.4-2.6 0.7-4.6 2.4-5.8 4.9zm-1.4 9v-0.2h-82.1v2.3h83.5l-0.5-0.5c-0.2-0.4-0.4-0.9-0.9-1.6zm-121.4 0v-0.2h-67.4v2.3h68.8l-0.3-0.5c-0.3-0.4-0.6-1.1-1.1-1.6zm14.1-13.4c-1.1-0.6-2.3-0.8-3.5-0.9v2.3c3.7 0.5 6.6 3.3 6.6 7.3 0 4.1-2.7 6.8-6.6 7.2v2.3c1.3-0.1 2.7-0.5 3.7-1.1 0 0 0-0.1 0.2-0.1 0.2-0.1 0.5-0.2 0.6-0.4 0 0 0-0.1 0.2-0.1 0.2-0.2 0.5-0.2 0.5-0.5 0.2-0.1 0.2-0.2 0.6-0.5l0.2-0.2c0.6-0.5 1.1-1.2 1.4-1.9l0.2-0.5c0-0.2 0.2-0.5 0.2-0.7 0-0.2 0-0.2 0-0.2 0-0.3 0.2-0.5 0.2-0.7 0.2-0.8 0.5-1.9 0.5-2.8 0-1.9-0.6-3.7-1.3-5.2-1-1.2-2.3-2.5-4.1-3.3zm-12.6 4.4c-0.7 1.4-1.1 2.9-1.1 4.4 0 5.2 3.8 9.3 8.9 9.6v-2.5c-3.6-0.2-6.6-3.4-6.6-7.2 0-3.7 2.8-6.9 6.6-7.3v-2.3c-0.7 0-1.4 0.1-2 0.4-2.5 0.7-4.7 2.4-5.8 4.9z"/>
	<path class="s0" d="m218.4 608.6l14.2-4.1-23.4-40.2 9.2 44.3z"/>
	<path class="s0" d="m332.6 562.2l13.3-4.2-9.4-8.6-10.8 6 6.9 6.8z"/>
	<path class="s0" d="m288.5 576.2l-44 24.7 99.4-27.9-11.3-10.8-44.1 14z"/>
	<path class="s0" d="m343.9 573l2-15-13.3 4.2 11.3 10.8z"/>
	<path class="s0" d="m325.7 555.4l-5.1-5-81.4 41.4 49.3-15.6 37.2-20.8z"/>
	<path class="s0" d="m331.5 544.9l5 4.5 7.6-4.3-3.1-5.1-9.5 4.9z"/>
	<path class="s0" d="m320.6 550.4l5.1 5 10.8-6-5-4.5-10.9 5.5z"/>
	<path class="s0" d="m239.2 591.8l5.3 9.1 44-24.7-49.3 15.6z"/>
	<path class="s0" d="m352.8 540.2l-8.7 4.9 13.6 22.2 5.8-12.3-10.7-14.8z"/>
	<path class="s0" d="m357.7 567.3l15.9 2-10.1-14.3-5.8 12.3z"/>
	<path class="s0" d="m886.2 550c-2.8-0.2-4.6-1.9-5.4-2.8l-0.2-0.4-1.6 1.9 0.2 0.2c1.7 2.1 4.3 3.2 7.2 3.4v-2.3z"/>
	<path class="s0" d="m887.5 539.7v2.8c2.4 0.8 4.3 1.6 4.3 3.8 0 2.2-1.2 3.6-4.3 3.7v2.4c5.1-0.2 7-3.4 7-6.2 0-4.4-3.7-5.6-7-6.5z"/>
	<path class="s0" d="m480.1 565.6h2.4v21.5h-2.4z"/>
	<path class="s0" d="m631.2 565.6h2.4v21.5h-2.4z"/>
	<path class="s0" d="m879.3 565.6h-3l8.6 12.3v9.2h2.4v-9.6l-8-11.9z"/>
	<path class="s0" d="m888.4 576.4l7.6-10.8h-3l-6 8.7 1.4 2.1z"/>
	<path class="s0" d="m573.9 565.6h-2.5l0.1 0.4 8.6 20.9 0.1 0.2h2.6l-8.9-21.5z"/>
	<path class="s0" d="m582.9 583.5l5.4-13.2 1.9-4.7h-2.6l-6 14.9 1.3 3z"/>
	<path class="s0" d="m569.9 565.6v21.5h2.4v-15.4l-2.4-6.1z"/>
	<path class="s0" d="m589.2 571.9v15.2h2.5v-21.5l-2.5 6.3z"/>
	<path class="s0" d="m618.6 565.6h2.4v21.5h-2.4z"/>
	<path class="s0" d="m622.4 565.6h5.3v2.4h-5.3z"/>
	<path class="s0" d="m611.7 565.6h5.4v2.4h-5.4z"/>
	<path class="s0" d="m536.2 585c-4.2-0.5-7-3.8-7-8.7 0-4.9 2.8-8.2 7-8.7v-2.3c-5.7 0.5-9.6 4.9-9.6 11 0 6.1 3.9 10.5 9.6 11z"/>
	<path class="s0" d="m537.7 565.3v2.4c4.3 0.2 7.3 3.7 7.3 8.7 0 5-2.9 8.5-7.3 8.8v2.3c5.8-0.2 10-4.7 10-11-0.2-6.5-4.2-11-10-11.2z"/>
	<path class="s0" d="m647.3 585c-4.2-0.5-7-3.8-7-8.7 0-4.9 2.8-8.2 7-8.7v-2.3c-5.7 0.5-9.6 4.9-9.6 11 0 6.1 3.9 10.5 9.6 11z"/>
	<path class="s0" d="m648.8 565.3v2.4c4.3 0.2 7.3 3.7 7.3 8.7 0 5-2.9 8.5-7.3 8.8v2.3c5.8-0.2 10-4.7 10-11 0-6.3-4.1-11-10-11.2z"/>
	<path class="s0" d="m714.8 574.9h9.7v2.4h-9.7z"/>
	<path class="s0" d="m714.8 584.7h10v2.4h-10z"/>
	<path class="s0" d="m417.5 567.3l-1.4 3.4 6.5 16.4h2.9l-8-19.8z"/>
	<path class="s0" d="m417.9 579.1h-5.2l-1 2.5h7.2l-1-2.5z"/>
	<path class="s0" d="m416.6 565.6h-2.7l-8.6 21-0.1 0.5h2.8l8.6-21.5z"/>
	<path class="s0" d="m445.4 583.9v-18.3h-2.4v14.9l2.4 3.4z"/>
	<path class="s0" d="m430.5 565.6h-3l15.1 21.5h3.3l-15.4-21.5z"/>
	<path class="s0" d="m427.9 568.8v18.3h2.6v-14.9l-2.6-3.4z"/>
	<path class="s0" d="m662.6 568.9v18.2h2.5v-14.7l-2.5-3.5z"/>
	<path class="s0" d="m680.2 584.1v-18.5h-2.5v14.9l2.5 3.6z"/>
	<path class="s0" d="m677.3 587.1h3.3l-15.5-21.5h-2.9l15 21.4 0.1 0.1z"/>
	<path class="s0" d="m790.1 583.9v-18.3h-2.7v14.9l2.7 3.4z"/>
	<path class="s0" d="m775 565.6h-3l15.1 21.5h3.3l-15.4-21.5z"/>
	<path class="s0" d="m772.5 568.9v18.2h2.4v-14.7l-2.4-3.5z"/>
	<path class="s0" d="m504.9 583.9v-18.3h-2.5v14.9l2.5 3.4z"/>
	<path class="s0" d="m487.4 568.9v18.2h2.4v-14.7l-2.4-3.5z"/>
	<path class="s0" d="m502.1 587.1h3.3l-15.4-21.5h-3.2l15.2 21.4 0.1 0.1z"/>
	<path class="s0" d="m450.3 565.6h2.4v21.5h-2.4z"/>
	<path class="s0" d="m457.4 565.6h-3v2.4h3c5 0 8.2 3.2 8.2 8.2 0 5-3.2 8.6-8.2 8.6h-3v2.4h3c6.5 0 10.9-4.4 10.9-11 0-6.3-4.4-10.6-10.9-10.6z"/>
	<path class="s0" d="m509.7 565.6h2.4v21.5h-2.4z"/>
	<path class="s0" d="m513.7 565.6h10v2.4h-10z"/>
	<path class="s0" d="m513.7 574.9h9.7v2.4h-9.7z"/>
	<path class="s0" d="m554.9 568h3.9c2.6 0 4.3 1.7 4.3 4 0 2.3-1.7 4-4.3 4h-3.9v2.2h5.3c3.4-0.5 5.4-2.9 5.4-6.4 0-3.5-2.7-6.5-6.6-6.5h-4.2c0 0.1 0 2.7 0 2.7z"/>
	<path class="s0" d="m561.3 579.8h-3l4.9 7.3h3.1l-5-7.3z"/>
	<path class="s0" d="m551 565.6h2.4v21.5h-2.4z"/>
	<path class="s0" d="m607.3 579.1h-5.1l-1.1 2.5h7.1l-0.9-2.5z"/>
	<path class="s0" d="m606.9 567.3l-1.3 3.3 6.5 16.5h2.7l-7.9-19.8z"/>
	<path class="s0" d="m605.9 565.6h-2.5l-8.6 21-0.5 0.5h3l8.6-21.5z"/>
	<path class="s0" d="m763.6 577.2v-2.3h-11v-9.3h-2.4v11.6h13.4z"/>
	<path class="s0" d="m750.2 578.7h2.4v8.5h-2.4z"/>
	<path class="s0" d="m867 567.7c2.2 0 4.3 1.2 5.4 2.8l0.2 0.2 2.1-1.3-0.2-0.4c-1.9-2.4-4.5-3.7-7.5-3.8z"/>
	<path class="s0" d="m865.5 578h9.4v-2.1h-9.4v2.1z"/>
	<path class="s0" d="m872.5 579.5v3.2c-1.2 1.3-3.2 2.2-5.4 2.3v2.4c3.2 0 5.8-1.3 7.8-3.5v-4.4h-2.5z"/>
	<path class="s0" d="m865.5 585c-4.3-0.6-7.1-4-7.1-8.7 0-4.7 2.9-8.1 7.1-8.7v-2.4c-5.8 0.6-9.7 5.1-9.7 11 0 5.9 3.9 10.4 9.7 11z"/>
	<path class="s0" d="m822.7 584.7h8.6v2.4h-8.6z"/>
	<path class="s0" d="m698.2 565.6h2.4v21.5h-2.4z"/>
	<path class="s0" d="m702.1 565.6h5.3v2.4h-5.3z"/>
	<path class="s0" d="m691.5 565.6h5.4v2.4h-5.4z"/>
	<path class="s0" d="m710.9 565.6h2.4v21.5h-2.4z"/>
	<path class="s0" d="m714.8 574.9h9.7v2.4h-9.7z"/>
	<path class="s0" d="m714.8 565.6h9.7v2.4h-9.7z"/>
	<path class="s0" d="m765.1 565.6h2.4v21.5h-2.4z"/>
	<path class="s0" d="m818.6 565.6h2.4v21.5h-2.4z"/>
	<path class="s0" d="m841.2 585c-4.2-0.5-7-3.8-7-8.7 0-4.9 2.8-8.2 7-8.7v-2.3c-5.7 0.5-9.6 4.9-9.6 11 0 6.1 3.9 10.5 9.6 11z"/>
	<path class="s0" d="m842.6 565.3v2.4c4.3 0.2 7.3 3.7 7.3 8.7 0 5-2.9 8.5-7.3 8.8v2.3c5.8-0.2 10-4.7 10-11 0-6.3-4.1-11-10-11.2z"/>
	<path class="s0" d="m803.5 585c-4.2-0.5-7-3.8-7-8.7 0-4.9 2.8-8.2 7-8.7v-2.3c-5.7 0.5-9.6 4.9-9.6 11 0 6.1 3.9 10.5 9.6 11z"/>
	<path class="s0" d="m805 565.3v2.4c4.3 0.2 7.3 3.7 7.3 8.7 0 5-2.9 8.5-7.3 8.8v2.3c5.8-0.2 10-4.7 10-11 0-6.5-4.2-11-10-11.2z"/>
	<path class="s0" d="m737.9 585c-4.3-0.6-7.2-4-7.2-8.7 0-4.7 2.9-8.1 7.2-8.7v-2.4c-5.8 0.6-9.8 5.1-9.8 11 0 5.9 3.9 10.5 9.8 11z"/>
	<path class="s0" d="m739.3 567.7c2.1 0 4.3 1.2 5.4 2.8l0.2 0.2 2.1-1.3-0.2-0.4c-1.9-2.4-4.4-3.6-7.4-3.8v2.4z"/>
	<path class="s0" d="m744.9 582l-0.2 0.2c-1.3 1.7-3.2 2.8-5.4 2.8v2.4c3 0 5.4-1.3 7.5-3.8l0.2-0.4z"/>
	<g>
	</g>
	<g>
	</g>
</svg>