<?xml version="1.0" encoding="UTF-8"?>
<svg id="Layer_1" xmlns="http://www.w3.org/2000/svg" viewBox="0 0 450.1 161.4">
  <defs>
    <style>
      .cls-1 {
        fill: #ffcd05;
      }
    </style>
  </defs>
  <path class="cls-1" d="M174.9,157.8h-25.4V51h24.8v14.3c3.1-5.8,8-10.4,13.9-13.3,11-5.1,23.6-5.4,34.8-.8,4.6,2.1,8.7,5.2,12,9.1,3.2,4,5.6,8.6,7.1,13.5,1.6,5.3,2.4,10.9,2.4,16.4v67.5h-25.4v-63.2c.2-6-1.5-11.8-4.9-16.8-3.3-4.6-9-6.9-17-6.9-6.4-.4-12.6,2.3-16.6,7.3-3.8,5.2-5.8,11.5-5.6,17.9l-.1,61.8Z"/>
  <path class="cls-1" d="M369.8,127.3c-1.5,4.7-3.6,9.1-6.4,13.2s-6.3,7.8-10.3,10.7c-4.3,3.2-9,5.6-14,7.2-5.7,1.8-11.6,2.7-17.5,2.6-7.1,0-14.2-1.3-20.8-3.8-6.5-2.5-12.4-6.3-17.3-11.2-5.1-5.1-9.2-11.3-12-18-3.1-7.7-4.6-15.9-4.5-24.2-.1-7.9,1.3-15.7,4.3-23,2.7-6.6,6.6-12.6,11.5-17.7,4.8-4.9,10.4-8.7,16.7-11.4,6.2-2.7,12.8-4.1,19.5-4.1,7.5-.1,15,1.2,22,3.9,6.2,2.5,11.9,6.3,16.4,11.2,4.6,5,8.1,11,10.2,17.4,2.4,7.4,3.6,15.1,3.5,22.9,0,2.1-.1,3.8-.2,5.4,0,.9-.2,1.8-.4,2.7h-78.1c.1,3.9,1,7.7,2.6,11.2,1.6,3.3,3.7,6.3,6.4,8.8,2.6,2.5,5.7,4.5,9.1,5.8,3.5,1.4,7.3,2.1,11.1,2.1,6.4.4,12.8-1.5,17.9-5.4,4.1-3.5,7.2-8.1,8.9-13.3l21.4,7ZM345.5,92.6c-.1-3-.8-6-1.9-8.9-1.1-2.8-2.8-5.4-4.9-7.6-2.3-2.3-5.1-4.1-8.1-5.3-3.6-1.4-7.5-2.1-11.4-2-3.7-.1-7.3.7-10.6,2.1-3,1.3-5.7,3.2-8,5.5-2.2,2.2-4,4.8-5.3,7.7-1.3,2.6-2,5.5-2.2,8.4l52.4.1Z"/>
  <path class="cls-1" d="M427.7,51h22.2v22.6h-22.2v49.6c-.3,3.7.9,7.4,3.3,10.2,2.9,2.4,6.6,3.5,10.3,3.2,1.8,0,3.5-.1,5.3-.3,1.8-.2,2.9-.4,3.5-.5v20.9c-.7.3-2.3.8-4.8,1.4-3.5.8-7.1,1.1-10.7,1-8.6.5-17.1-2.5-23.5-8.3-5.7-5.5-8.6-13.4-8.6-23.5v-53.7h-19.7v-22.6h5.5c4.7.4,9.3-1.4,12.5-4.8,2.7-3.4,4.1-7.6,3.9-11.8v-16h23v32.6Z"/>
  <path class="cls-1" d="M95.4,0v52.3c-10.3-7.5-22.8-11.4-35.5-11.4-15.8-.1-31,6-42.3,17.1C6.2,69.4-.2,85,0,101.2c-.2,16.1,6.1,31.6,17.4,43,11.3,11.2,26.5,17.4,42.4,17.2,34.1,0,59.8-25.9,59.8-60.2V0h-24.2ZM95.2,101.2c0,21.4-14.9,37-35.3,37s-35.3-15.6-35.3-37,15.2-37,35.3-37,35.3,15.9,35.3,37"/>
  <rect class="cls-1" x="149.4" width="57.2" height="22.5"/>
</svg>