<?xml version="1.0" encoding="UTF-8"?>
<svg xmlns="http://www.w3.org/2000/svg" version="1.1" viewBox="0 0 288 432">
  <defs>
    <style>
      .cls-1 {
        fill-opacity: 0;
      }

      .cls-1, .cls-2 {
        fill: #ffcd05;
      }
    </style>
  </defs>
  <!-- Generator: Adobe Illustrator 28.7.7, SVG Export Plug-In . SVG Version: 1.2.0 Build 194)  -->
  <g>
    <g id="Layer_1">
      <rect class="cls-1" x="1.5" y="2.2" width="285.1" height="427.6"/>
      <path class="cls-2" d="M144,216c0-39.4,31.9-71.3,71.3-71.3h0c39.4,0,71.3,31.9,71.3,71.3h0c0,39.4-31.9,71.3-71.3,71.3h0c-39.4,0-71.3-31.9-71.3-71.3h0Z"/>
      <path class="cls-2" d="M1.5,358.5c0-39.4,31.9-71.3,71.3-71.3h71.3v71.3c0,39.4-31.9,71.3-71.3,71.3h0c-39.4,0-71.3-31.9-71.3-71.3h0Z"/>
      <path class="cls-2" d="M144,2.2v142.5h71.3c39.4,0,71.3-31.9,71.3-71.3h0c0-39.4-31.9-71.3-71.3-71.3h-71.3Z"/>
      <path class="cls-2" d="M1.5,73.5c0,39.4,31.9,71.3,71.3,71.3h71.3V2.2h-71.3C33.4,2.2,1.5,34.1,1.5,73.5h0Z"/>
      <path class="cls-2" d="M1.5,216c0,39.4,31.9,71.3,71.3,71.3h71.3v-142.5h-71.3c-39.4,0-71.3,31.9-71.3,71.3h0Z"/>
    </g>
  </g>
</svg>