<?xml version="1.0" encoding="UTF-8"?>
<svg xmlns="http://www.w3.org/2000/svg" version="1.1" viewBox="0 0 24 24">
  <defs>
    <style>
      .cls-1 {
        fill: #ffcd05;
      }
    </style>
  </defs>
  <!-- Generator: Adobe Illustrator 28.7.7, SVG Export Plug-In . SVG Version: 1.2.0 Build 194)  -->
  <g>
    <g id="Layer_1">
      <path class="cls-1" d="M12.5,10.9v3.3h7.8c-.2,1.8-.9,3.2-1.8,4.1-1.1,1.1-2.9,2.4-6.1,2.4-4.8,0-8.6-3.9-8.6-8.7S7.7,3.3,12.5,3.3s4.5,1,5.9,2.3l2.3-2.3c-1.9-1.9-4.6-3.3-8.2-3.3C5.9,0,.3,5.4.3,12s5.6,12,12.2,12,6.3-1.2,8.4-3.4c2.2-2.2,2.8-5.2,2.8-7.7s0-1.5-.2-2.1h-11Z"/>
    </g>
  </g>
</svg>