<?xml version="1.0" encoding="UTF-8"?>
<svg id="Layer_1" xmlns="http://www.w3.org/2000/svg" viewBox="0 0 120 41.8">
  <defs>
    <style>
      .cls-1 {
        fill: #ffcd05;
      }
    </style>
  </defs>
  <path class="cls-1" d="M24.86,35.67h-2.74l-3.59-14.59h3.85l2.65,11.26h.67l2.65-11.26h3.85l-5.14,20.72h-3.82l1.6-6.13Z"/>
  <path class="cls-1" d="M34.8,21.08h3.88v.79c1.58-.93,2.45-1.14,3.56-1.14,3.71,0,5.51,2.3,5.51,7.76s-1.93,7.53-6.57,7.53c-.82,0-1.49-.06-2.48-.23v6.01h-3.91v-20.72h0ZM43.79,28.49c0-2.95-.76-4.26-2.63-4.26-.61,0-1.37.14-2.1.44l-.35.14v7.65c.88.11,1.6.17,2.1.17,2.22,0,2.98-1.2,2.98-4.14Z"/>
  <path class="cls-1" d="M49.84,28.72c0-5.34,2.04-8,6.54-8,4.09,0,6.27,2.19,6.27,6.6l-.29,2.71h-8.58c.12,2.04.88,2.54,3.27,2.54.99,0,3.41-.09,4.26-.18l.82-.09.06,2.89c-2.25.55-4.32.82-5.9.82-4.58,0-6.45-2.19-6.45-7.3ZM58.8,27.06c0-2.33-.64-3.12-2.45-3.12-1.9,0-2.57.88-2.6,3.12h5.05Z"/>
  <path class="cls-1" d="M65.23,21.08h3.88v1.55c1.64-.96,3.18-1.61,4.67-1.9v3.94c-1.58.32-2.92.67-4.06,1.02l-.58.2v9.78h-3.91v-14.59Z"/>
  <path class="cls-1" d="M7.95,23.76h-3.98v-7.93H0v15.87h0v3.97h3.97v-7.93h3.98v-3.98Z"/>
  <path class="cls-1" d="M15.92,19.79v-3.97h-3.98v7.94l3.98-3.97Z"/>
  <path class="cls-1" d="M15.91,31.69h-3.97v3.98h3.97v-3.98Z"/>
  <path class="cls-1" d="M11.94,31.69v-3.97h-3.98l3.98-3.97h3.98v3.97l-3.98,3.97Z"/>
  <path class="cls-1" d="M35.79,7.91V0h-7.95l-7.94,7.91h7.94v7.91l7.95-7.91Z"/>
  <path class="cls-1" d="M83.72,15.83h-7.3v19.84h4.03v-5.78h3.27c4.64,0,7.06-2.54,7.06-7.18s-2.36-6.89-7.06-6.89ZM83.68,26.45h-3.24v-7.18h3.24c2.07,0,3.01.99,3.01,3.44s-.99,3.74-3.01,3.74Z"/>
  <path class="cls-1" d="M104.51,29.35v-3.71c0-3.41-1.55-4.9-5.28-4.9-1.9,0-3.88.29-5.95.84l.12,2.71c1.14-.09,4.11-.23,5.49-.23,1.2,0,1.72.38,1.72,1.58v.91l-3.12.23c-3.47.23-5.11,1.34-5.11,4.46s1.52,4.79,4.52,4.79c1.46,0,2.89-.35,4.29-1.02,1.01.69,3.33,1,3.33,1v-6.66h0ZM100.72,32.37l-.44.12c-.88.23-1.69.35-2.42.35-.96,0-1.43-.53-1.43-1.61s.55-1.66,1.63-1.75l2.66-.24v3.12h0Z"/>
  <path class="cls-1" d="M116.15,21.08l-2.66,11.26h-.67l-2.65-11.26h-3.85l3.59,14.59h2.74l-1.61,6.13h3.82l5.13-20.72h-3.85Z"/>
</svg>