<?xml version="1.0" encoding="UTF-8"?>
<svg xmlns="http://www.w3.org/2000/svg" version="1.1" viewBox="0 0 2418 2500">
  <defs>
    <style>
      .cls-1 {
        fill: #ffcd05;
      }
    </style>
  </defs>
  <!-- Generator: Adobe Illustrator 28.7.7, SVG Export Plug-In . SVG Version: 1.2.0 Build 194)  -->
  <g>
    <g id="Layer_1">
      <path class="cls-1" d="M2412.3,570.4c.9,3.3,1.4,6.7,1.4,10.2v533.4c0,13.9-7.5,26.8-19.5,33.7l-447.7,257.7v510.8c0,13.9-7.4,26.7-19.4,33.7l-934.4,537.9c-2.1,1.2-4.5,2-6.8,2.8-.9.3-1.7.8-2.6,1.1-6.5,1.7-13.4,1.7-19.9,0-1.1-.3-2-.9-3.1-1.3-2.1-.8-4.4-1.5-6.4-2.6L19.5,1950C7.5,1943,0,1930.2,0,1916.2V316.2c0-3.5.5-6.9,1.4-10.2.3-1.1,1-2.1,1.4-3.3.7-2,1.4-4.1,2.5-6,.7-1.3,1.8-2.3,2.7-3.5,1.1-1.6,2.1-3.2,3.5-4.5,1.1-1.1,2.6-1.9,3.8-2.9,1.4-1.2,2.7-2.4,4.3-3.4h0L486.6,13.5c12-6.9,26.9-6.9,38.9,0l467.1,269h0c1.6,1,2.9,2.2,4.3,3.3,1.3,1,2.7,1.8,3.8,2.9,1.4,1.4,2.3,3,3.5,4.6.8,1.2,1.9,2.2,2.6,3.5,1.1,1.9,1.7,4,2.5,6,.4,1.1,1.1,2.1,1.4,3.3.9,3.3,1.4,6.7,1.4,10.2v999.4l389.3-224.1v-510.9c0-3.4.5-6.9,1.4-10.1.3-1.2,1-2.2,1.4-3.3.8-2,1.5-4.1,2.5-6,.7-1.3,1.8-2.3,2.6-3.5,1.2-1.6,2.1-3.2,3.5-4.5,1.1-1.1,2.5-1.9,3.8-2.9,1.5-1.2,2.7-2.4,4.3-3.4h0l467.2-269c12-6.9,26.9-6.9,38.9,0l467.1,269c1.7,1,2.9,2.2,4.4,3.3,1.2,1,2.6,1.8,3.7,2.9,1.4,1.4,2.3,3,3.5,4.6.9,1.2,1.9,2.2,2.6,3.5,1.1,1.9,1.7,4,2.5,6,.4,1.1,1.1,2.1,1.4,3.3h0ZM2335.8,1091.4v-443.5l-163.5,94.1-225.8,130v443.5l389.4-224.1h0ZM1868.7,1893.7v-443.8l-222.1,126.9-634.4,362.1v448l856.5-493.1ZM77.9,383.5v1510.2l856.4,493.1v-447.9l-447.4-253.2h-.1c0,0-.2-.2-.2-.2-1.5-.9-2.8-2.1-4.2-3.2-1.2-1-2.6-1.7-3.7-2.8h0c-1.3-1.4-2.1-2.9-3.2-4.2-1-1.3-2.1-2.4-2.9-3.8h0c-.9-1.6-1.4-3.4-2-5-.6-1.5-1.5-2.8-1.8-4.4h0c-.5-1.9-.6-3.8-.8-5.7-.2-1.5-.6-2.9-.6-4.4V607.6l-225.8-130.1-163.5-94h0ZM506.1,92.1L116.9,316.2l389.1,224,389.2-224.1L506,92.1h0ZM708.5,1490.3l225.8-130V383.5l-163.5,94.1-225.8,130v976.9l163.5-94.2ZM1907.6,356.5l-389.2,224,389.2,224,389.1-224.1-389.1-224ZM1868.7,872l-225.8-130-163.5-94.1v443.5l225.8,130,163.5,94.2v-443.5ZM973.2,1871.5l570.8-325.9,285.3-162.8-388.9-223.9-447.8,257.8-408.1,234.9,388.5,219.9Z"/>
    </g>
  </g>
</svg>