<?xml version="1.0" encoding="UTF-8"?>
<svg id="Layer_1" xmlns="http://www.w3.org/2000/svg" viewBox="0 0 24 17">
  <defs>
    <style>
      .cls-1 {
        fill: #ffcd05;
      }
    </style>
  </defs>
  <path class="cls-1" d="M13.38,0c-.27,0-.51.19-.57.46l-2.96,15.02c-.06.31.14.62.45.68l4.1.83c.31.06.62-.14.68-.45l2.96-15.02c.06-.31-.14-.62-.45-.68L13.49.01s-.08-.01-.11-.01h0ZM7.5.1c-.22,0-.42.12-.52.32L.06,14.2c-.14.28-.03.63.25.77,0,0,0,0,0,0l3.73,1.88c.29.14.63.03.78-.26L11.75,2.81c.14-.28.03-.63-.25-.78,0,0,0,0,0,0L7.76.16c-.08-.04-.17-.06-.26-.06ZM19.24.21c-.32,0-.58.26-.58.58h0v15.43c0,.32.26.58.58.58h4.18c.32,0,.58-.26.58-.58V.79c0-.32-.26-.58-.58-.58h-4.18Z"/>
</svg>