<?xml version="1.0" encoding="UTF-8"?>
<svg xmlns="http://www.w3.org/2000/svg" version="1.1" viewBox="0 0 2443 2500">
  <defs>
    <style>
      .cls-1 {
        fill: #ffcd05;
      }
    </style>
  </defs>
  <!-- Generator: Adobe Illustrator 28.7.7, SVG Export Plug-In . SVG Version: 1.2.0 Build 194)  -->
  <g>
    <g id="Layer_1">
      <g>
        <path class="cls-1" d="M2252.9,1939c-131.1-3.3-232.7,9.8-317.9,45.9-24.6,9.8-63.9,9.8-67.2,41,13.1,13.1,14.7,34.4,26.2,52.4,19.7,32.8,54.1,77,85.2,100,34.4,26.2,68.8,52.4,104.9,75.4,63.9,39.3,136,62.3,198.3,101.6,36.1,22.9,72.1,52.4,108.1,77,18,13.1,29.5,34.4,52.4,42.6v-4.9c-11.5-14.8-14.8-36.1-26.2-52.4-16.4-16.4-32.8-31.1-49.2-47.5-47.5-63.9-106.5-119.6-170.4-165.5-52.4-36.1-167.1-85.2-188.4-145.8,0,0-1.6-1.6-3.3-3.3,36-3.3,78.6-16.4,113.1-26.2,55.7-14.8,106.5-11.5,163.8-26.2,26.2-6.6,52.4-14.7,78.6-22.9v-14.7c-29.5-29.5-50.8-68.8-81.9-96.7-83.6-72.1-175.3-142.6-270.4-201.5-50.8-32.8-116.3-54.1-170.4-81.9-19.6-9.8-52.4-14.7-63.9-31.1-29.5-36-45.9-83.6-67.2-126.2-47.5-90.1-93.4-190.1-134.4-285.1-29.5-63.9-47.5-127.8-83.6-186.8-168.8-278.5-352.3-447.3-634.1-612.8-60.6-34.4-132.7-49.2-209.7-67.2-40.9-1.6-81.9-4.9-122.9-6.6-26.2-11.5-52.4-42.6-75.4-57.3C353.9,153,113.1,25.2,44.2,194,0,300.5,109.8,405.3,147.5,459.4c27.9,37.7,63.9,80.3,83.6,122.9,11.5,27.8,14.7,57.4,26.2,86.8,26.2,72.1,50.8,152.4,85.2,219.6,18,34.4,37.7,70.4,60.6,101.6,13.1,18,36,26.2,41,55.7-22.9,32.8-24.6,81.9-37.7,122.9-59,185.2-36,414.5,47.5,550.5,26.2,40.9,88.5,131.1,172,96.7,73.7-29.5,57.4-122.9,78.6-204.8,4.9-19.7,1.7-32.8,11.5-45.9v3.3c22.9,45.9,45.9,90.1,67.2,136,50.8,80.3,139.3,163.8,213,219.6,39.3,29.5,70.5,80.3,119.6,98.3v-4.9h-3.3c-9.8-14.7-24.6-21.3-37.7-32.8-29.5-29.5-62.3-65.5-85.2-98.3-68.8-91.8-129.4-193.3-183.5-298.2-26.2-50.8-49.2-106.5-70.5-157.3-9.8-19.7-9.8-49.2-26.2-59-24.6,36-60.6,67.2-78.6,111.4-31.1,70.5-34.4,157.3-45.9,247.4-6.6,1.7-3.3,0-6.6,3.3-52.4-13.1-70.4-67.2-90.1-113.1-49.2-116.3-57.4-303.1-14.7-437.5,11.5-34.4,60.6-142.5,41-175.3-9.8-31.1-42.6-49.2-60.6-73.7-21.3-31.1-44.2-70.4-59-104.9-39.3-91.8-59-193.3-101.6-285.1-19.7-42.6-54.1-86.8-81.9-126.2-31.1-44.2-65.5-75.4-90.1-127.8-8.2-18-19.7-47.5-6.6-67.2,3.3-13.1,9.8-18,22.9-21.3,21.3-18,81.9,4.9,103.2,14.7,60.6,24.6,111.4,47.5,162.2,81.9,22.9,16.4,47.5,47.5,77,55.7h34.4c52.4,11.5,111.4,3.3,160.6,18,86.8,27.8,165.5,68.8,236,113.1,214.6,136,391.6,329.3,511.2,560.4,19.7,37.7,27.8,72.1,45.9,111.4,34.4,80.3,77,162.2,111.4,240.9,34.4,77,67.2,155.7,116.3,219.6,24.6,34.4,122.9,52.4,167.1,70.5,32.8,14.7,83.6,27.9,113.1,45.9,55.7,34.4,111.4,73.7,163.8,111.4,26.2,19.7,108.1,60.6,113.1,93.4h0Z"/>
        <path class="cls-1" d="M581.7,515.1c-27.8,0-47.5,3.3-67.2,8.2v3.3h3.3c13.1,26.2,36,44.2,52.4,67.2,13.1,26.2,24.6,52.4,37.7,78.7,1.6-1.6,3.3-3.3,3.3-3.3,23-16.4,34.4-42.6,34.4-81.9-9.8-11.5-11.5-22.9-19.7-34.4-9.8-16.4-31.1-24.6-44.2-37.7h0Z"/>
      </g>
    </g>
  </g>
</svg>