<svg version="1.2" xmlns="http://www.w3.org/2000/svg" viewBox="0 0 764.21 229.6" width="765" height="230">
	<title>Digital Government Authority-01 (1)</title>
	<style>
		.s0 { fill: #ffcd05 } 
	</style>
	<path class="s0" d="m218.4 608.6l14.2-4.1-23.4-40.2 9.2 44.3z"/>
	<path class="s0" d="m306.8 13.9v149.6c0.5 14.2 7.5 21.3 21.8 21.5 14 0.2 27.9 0 41.8 0h18.3c4.3 0 4.8-0.8 2.5-4.6-6.2-11-10.4-22.9-10.5-35.8-0.2-26.2 8-48.6 31.4-63 12.3-7.6 26-8.5 40-7.6 21.3 1.5 36.4 12.5 47 30 5 8.2 7.1 17.5 8.5 26.8 2.7 16.6-0.6 32.3-8.2 47-1 1.9-2.1 3.8-3.5 6.3 1.6 0.3 3.3 0.6 4.9 0.6 19.6 0 39.1 0.2 58.7 0 3.8-0.2 7.7-0.8 11.4-2.2 6.9-2.4 9.3-8.3 10.5-14.7 0.7-3.8 1-7.7 0.8-11.5 0-17 0.2-33.7 0-50.5 0-4.3 1.3-6.6 5.4-8.5 10.1-4.9 19.9-10.4 29.8-15.7 1.1-0.6 2.4-1 4.1-1.8 0.2 1.7 0.2 3 0.2 4.1 0 27.1 0.3 54.3-0.2 81.4-0.3 16.7-5.6 31.8-18.6 43.2-9 7.9-19.4 13-31.4 13.2-29.8 0.7-59.5 0.9-89.3 0.9-29.8 0-24.3-1.7-36.4-1.9-7.1-0.2-14.1 1-21.1 1.6-1.7 0.2-3.5 0.3-5.2 0.3-30.8 0-61.6 0.1-92.3 0-12.5 0-24.5-2.3-35.2-9.5-13.9-9.3-21.3-22.3-23.4-38.7-0.6-5.5-0.9-11.2-0.8-16.7v-119.1c0-1.9 0.8-4.6 2.1-5.4 11.8-6.3 24-12.4 36.9-19.4zm111.8 124c1.2 19.9 8 33.8 23.7 42.3 1.4 0.7 3 0.7 4.3 0 4.7-3.4 10.1-6.8 13.7-11.1 10.5-13.1 14-27.8 7.4-43.9-2.9-8.4-10.5-14-19.4-14.8-10.9-1.1-20.7 1.4-25.6 12.4-2.3 5.6-3.1 11.7-4.1 15.1z"/>
	<path class="s0" d="m109.7 222.8c2.8-5.6 5.5-10.9 8-15.9q4.6-8.5 8.9-17.2c1-2.9 4.1-4.7 7.2-4.4 15 0.2 30.2 0.2 45.3 0 12.3 0 18.4-6 19-18.1 0.9-22.1-7.9-39.5-25.5-52.5-2.6-2.1-5.5-3.8-8.6-6.2l12.9-22.3c1.7-2.9 3.4-5.5 5-8.4 1-1.9 2.3-1.9 3.9-0.8 11 7.2 21.5 15.3 30 25.6 12 14.3 19.2 31.8 21 50.4 1.2 11.7 0.8 23.4-1.6 34.9-3.3 15.1-11.6 26.7-26.9 31.8-6.1 1.9-12.6 2.9-19 2.9-25.7 0.3-51.6 0.2-77.3 0.2-0.5 0.2-1 0.2-2.2 0z"/>
	<path class="s0" d="m603 3c12.8 0 20.2 7.7 20.2 20.7 0 12.9-7 20.6-20.2 20.6-13.3 0-21.1-8-20.7-21.1 0.5-12.8 7.7-20.2 20.7-20.2z"/>
	<path class="s0" d="m163 23.2c0-12.4 7.9-20.2 20.7-20.2 12.7 0 20 7.6 20 20.7 0 13-7 20.4-20 20.5-13.1 0.1-20.9-7.7-20.7-21.1z"/>
	<path class="s0" d="m465.1 28.4c-0.3 2.7-0.6 5.4-1.2 8.1-1.7 5.7-5.4 9.9-11.6 11-8.3 1.6-16.9 2-23.1-5-6.3-7.1-6.5-16-3.2-24.2 2.9-7.2 9.3-11 17.2-10.6 4.6 0 8.9 1.1 13.1 3.1 6.9 3.5 8.9 10.1 8.8 17.7z"/>
	<path class="s0" d="m332.6 562.2l13.3-4.2-9.4-8.6-10.8 6 6.9 6.8z"/>
	<path class="s0" d="m288.5 576.2l-44 24.7 99.4-27.9-11.3-10.8-44.1 14z"/>
	<path class="s0" d="m343.9 573l2-15-13.3 4.2 11.3 10.8z"/>
	<path class="s0" d="m325.7 555.4l-5.1-5-81.4 41.4 49.3-15.6 37.2-20.8z"/>
	<path class="s0" d="m331.5 544.9l5 4.5 7.6-4.3-3.1-5.1-9.5 4.9z"/>
	<path class="s0" d="m320.6 550.4l5.1 5 10.8-6-5-4.5-10.9 5.5z"/>
	<path class="s0" d="m239.2 591.8l5.3 9.1 44-24.7-49.3 15.6z"/>
	<path class="s0" d="m352.8 540.2l-8.7 4.9 13.6 22.2 5.8-12.3-10.7-14.8z"/>
	<path class="s0" d="m357.7 567.3l15.9 2-10.1-14.3-5.8 12.3z"/>
	<path class="s0" d="m886.2 550c-2.8-0.2-4.6-1.9-5.4-2.8l-0.2-0.4-1.6 1.9 0.2 0.2c1.7 2.1 4.3 3.2 7.2 3.4v-2.3z"/>
	<path class="s0" d="m887.5 539.7v2.8c2.4 0.8 4.3 1.6 4.3 3.8 0 2.2-1.2 3.6-4.3 3.7v2.4c5.1-0.2 7-3.4 7-6.2 0-4.4-3.7-5.6-7-6.5z"/>
	<path class="s0" d="m480.1 565.6h2.4v21.5h-2.4z"/>
	<path class="s0" d="m631.2 565.6h2.4v21.5h-2.4z"/>
	<path class="s0" d="m879.3 565.6h-3l8.6 12.3v9.2h2.4v-9.6l-8-11.9z"/>
	<path class="s0" d="m888.4 576.4l7.6-10.8h-3l-6 8.7 1.4 2.1z"/>
	<path class="s0" d="m573.9 565.6h-2.5l0.1 0.4 8.6 20.9 0.1 0.2h2.6l-8.9-21.5z"/>
	<path class="s0" d="m582.9 583.5l5.4-13.2 1.9-4.7h-2.6l-6 14.9 1.3 3z"/>
	<path class="s0" d="m569.9 565.6v21.5h2.4v-15.4l-2.4-6.1z"/>
	<path class="s0" d="m589.2 571.9v15.2h2.5v-21.5l-2.5 6.3z"/>
	<path class="s0" d="m618.6 565.6h2.4v21.5h-2.4z"/>
	<path class="s0" d="m622.4 565.6h5.3v2.4h-5.3z"/>
	<path class="s0" d="m611.7 565.6h5.4v2.4h-5.4z"/>
	<path class="s0" d="m536.2 585c-4.2-0.5-7-3.8-7-8.7 0-4.9 2.8-8.2 7-8.7v-2.3c-5.7 0.5-9.6 4.9-9.6 11 0 6.1 3.9 10.5 9.6 11z"/>
	<path class="s0" d="m537.7 565.3v2.4c4.3 0.2 7.3 3.7 7.3 8.7 0 5-2.9 8.5-7.3 8.8v2.3c5.8-0.2 10-4.7 10-11-0.2-6.5-4.2-11-10-11.2z"/>
	<path class="s0" d="m647.3 585c-4.2-0.5-7-3.8-7-8.7 0-4.9 2.8-8.2 7-8.7v-2.3c-5.7 0.5-9.6 4.9-9.6 11 0 6.1 3.9 10.5 9.6 11z"/>
	<path class="s0" d="m648.8 565.3v2.4c4.3 0.2 7.3 3.7 7.3 8.7 0 5-2.9 8.5-7.3 8.8v2.3c5.8-0.2 10-4.7 10-11 0-6.3-4.1-11-10-11.2z"/>
	<path class="s0" d="m714.8 574.9h9.7v2.4h-9.7z"/>
	<path class="s0" d="m714.8 584.7h10v2.4h-10z"/>
	<path class="s0" d="m417.5 567.3l-1.4 3.4 6.5 16.4h2.9l-8-19.8z"/>
	<path class="s0" d="m417.9 579.1h-5.2l-1 2.5h7.2l-1-2.5z"/>
	<path class="s0" d="m416.6 565.6h-2.7l-8.6 21-0.1 0.5h2.8l8.6-21.5z"/>
	<path class="s0" d="m445.4 583.9v-18.3h-2.4v14.9l2.4 3.4z"/>
	<path class="s0" d="m430.5 565.6h-3l15.1 21.5h3.3l-15.4-21.5z"/>
	<path class="s0" d="m427.9 568.8v18.3h2.6v-14.9l-2.6-3.4z"/>
	<path class="s0" d="m662.6 568.9v18.2h2.5v-14.7l-2.5-3.5z"/>
	<path class="s0" d="m680.2 584.1v-18.5h-2.5v14.9l2.5 3.6z"/>
	<path class="s0" d="m677.3 587.1h3.3l-15.5-21.5h-2.9l15 21.4 0.1 0.1z"/>
	<path class="s0" d="m790.1 583.9v-18.3h-2.7v14.9l2.7 3.4z"/>
	<path class="s0" d="m775 565.6h-3l15.1 21.5h3.3l-15.4-21.5z"/>
	<path class="s0" d="m772.5 568.9v18.2h2.4v-14.7l-2.4-3.5z"/>
	<path class="s0" d="m504.9 583.9v-18.3h-2.5v14.9l2.5 3.4z"/>
	<path class="s0" d="m487.4 568.9v18.2h2.4v-14.7l-2.4-3.5z"/>
	<path class="s0" d="m502.1 587.1h3.3l-15.4-21.5h-3.2l15.2 21.4 0.1 0.1z"/>
	<path class="s0" d="m450.3 565.6h2.4v21.5h-2.4z"/>
	<path class="s0" d="m457.4 565.6h-3v2.4h3c5 0 8.2 3.2 8.2 8.2 0 5-3.2 8.6-8.2 8.6h-3v2.4h3c6.5 0 10.9-4.4 10.9-11 0-6.3-4.4-10.6-10.9-10.6z"/>
	<path class="s0" d="m509.7 565.6h2.4v21.5h-2.4z"/>
	<path class="s0" d="m513.7 565.6h10v2.4h-10z"/>
	<path class="s0" d="m513.7 574.9h9.7v2.4h-9.7z"/>
	<path class="s0" d="m554.9 568h3.9c2.6 0 4.3 1.7 4.3 4 0 2.3-1.7 4-4.3 4h-3.9v2.2h5.3c3.4-0.5 5.4-2.9 5.4-6.4 0-3.5-2.7-6.5-6.6-6.5h-4.2c0 0.1 0 2.7 0 2.7z"/>
	<path class="s0" d="m561.3 579.8h-3l4.9 7.3h3.1l-5-7.3z"/>
	<path class="s0" d="m551 565.6h2.4v21.5h-2.4z"/>
	<path class="s0" d="m607.3 579.1h-5.1l-1.1 2.5h7.1l-0.9-2.5z"/>
	<path class="s0" d="m606.9 567.3l-1.3 3.3 6.5 16.5h2.7l-7.9-19.8z"/>
	<path class="s0" d="m605.9 565.6h-2.5l-8.6 21-0.5 0.5h3l8.6-21.5z"/>
	<path class="s0" d="m763.6 577.2v-2.3h-11v-9.3h-2.4v11.6h13.4z"/>
	<path class="s0" d="m750.2 578.7h2.4v8.5h-2.4z"/>
	<path class="s0" d="m867 567.7c2.2 0 4.3 1.2 5.4 2.8l0.2 0.2 2.1-1.3-0.2-0.4c-1.9-2.4-4.5-3.7-7.5-3.8z"/>
	<path class="s0" d="m865.5 578h9.4v-2.1h-9.4v2.1z"/>
	<path class="s0" d="m872.5 579.5v3.2c-1.2 1.3-3.2 2.2-5.4 2.3v2.4c3.2 0 5.8-1.3 7.8-3.5v-4.4h-2.5z"/>
	<path class="s0" d="m865.5 585c-4.3-0.6-7.1-4-7.1-8.7 0-4.7 2.9-8.1 7.1-8.7v-2.4c-5.8 0.6-9.7 5.1-9.7 11 0 5.9 3.9 10.4 9.7 11z"/>
	<path class="s0" d="m822.7 584.7h8.6v2.4h-8.6z"/>
	<path class="s0" d="m698.2 565.6h2.4v21.5h-2.4z"/>
	<path class="s0" d="m702.1 565.6h5.3v2.4h-5.3z"/>
	<path class="s0" d="m691.5 565.6h5.4v2.4h-5.4z"/>
	<path class="s0" d="m710.9 565.6h2.4v21.5h-2.4z"/>
	<path class="s0" d="m714.8 574.9h9.7v2.4h-9.7z"/>
	<path class="s0" d="m714.8 565.6h9.7v2.4h-9.7z"/>
	<path class="s0" d="m765.1 565.6h2.4v21.5h-2.4z"/>
	<path class="s0" d="m818.6 565.6h2.4v21.5h-2.4z"/>
	<path class="s0" d="m841.2 585c-4.2-0.5-7-3.8-7-8.7 0-4.9 2.8-8.2 7-8.7v-2.3c-5.7 0.5-9.6 4.9-9.6 11 0 6.1 3.9 10.5 9.6 11z"/>
	<path class="s0" d="m842.6 565.3v2.4c4.3 0.2 7.3 3.7 7.3 8.7 0 5-2.9 8.5-7.3 8.8v2.3c5.8-0.2 10-4.7 10-11 0-6.3-4.1-11-10-11.2z"/>
	<path class="s0" d="m803.5 585c-4.2-0.5-7-3.8-7-8.7 0-4.9 2.8-8.2 7-8.7v-2.3c-5.7 0.5-9.6 4.9-9.6 11 0 6.1 3.9 10.5 9.6 11z"/>
	<path class="s0" d="m805 565.3v2.4c4.3 0.2 7.3 3.7 7.3 8.7 0 5-2.9 8.5-7.3 8.8v2.3c5.8-0.2 10-4.7 10-11 0-6.5-4.2-11-10-11.2z"/>
	<path class="s0" d="m737.9 585c-4.3-0.6-7.2-4-7.2-8.7 0-4.7 2.9-8.1 7.2-8.7v-2.4c-5.8 0.6-9.8 5.1-9.8 11 0 5.9 3.9 10.5 9.8 11z"/>
	<path class="s0" d="m739.3 567.7c2.1 0 4.3 1.2 5.4 2.8l0.2 0.2 2.1-1.3-0.2-0.4c-1.9-2.4-4.4-3.6-7.4-3.8v2.4z"/>
	<path class="s0" d="m744.9 582l-0.2 0.2c-1.3 1.7-3.2 2.8-5.4 2.8v2.4c3 0 5.4-1.3 7.5-3.8l0.2-0.4z"/>
	<g>
	</g>
	<g>
	</g>
</svg>