<?xml version="1.0" encoding="UTF-8"?>
<svg id="Layer_1" xmlns="http://www.w3.org/2000/svg" viewBox="0 0 24 13.31">
  <defs>
    <style>
      .cls-1 {
        fill: #ffcd05;
      }
    </style>
  </defs>
  <path class="cls-1" d="M17.3,12.14c.23.4.57.73.99.93-.31.15-.65.23-.99.23h-3.07c-.81,0-1.56-.44-1.96-1.14L6.71,1.17c-.22-.4-.56-.72-.97-.92.31-.15.65-.23,1-.23h3.05c.81,0,1.56.44,1.96,1.14,0,0,5.56,10.98,5.56,10.98ZM7.97,4.75l-1.7-3.34c-.21-.39-.58-.66-.98-.83-.2.16-.39.35-.52.58C4.58,1.51.37,9.81.2,10.15c-.51,1.13,0,2.46,1.14,2.96,1.07.48,2.32.06,2.88-.97,0,0,3.76-7.4,3.76-7.4ZM23.81,3.15c.5-1.14-.02-2.46-1.16-2.95,0,0,0,0,0,0h0c-.28-.12-.59-.19-.89-.19h0c-.82-.01-1.57.43-1.97,1.15l-3.75,7.41,1.69,3.32c.21.4.59.66,1,.84.25-.2.47-.44.6-.74,0,0,4.48-8.84,4.48-8.84Z"/>
</svg>