<svg version="1.2" xmlns="http://www.w3.org/2000/svg" viewBox="0 0 1000 1000" width="1000" height="1000">
	<title>National Cybersecurity Authority-01 (1)</title>
	<style>
		.s0 { fill: #ffcd05 } 
	</style>
	<g>
		<g id="Layer_1">
			<path class="s0" d="m405.2 328.4c1.8 2.2 2.8 4.8 2.8 7.4v179.7c0 3.1-2.7 5.8-5.8 5.8h-11.3c-3.1 0-5.7-2.7-5.7-5.8v-175.4l-48-55.8c-1.8-2.2-2.8-4.8-2.8-7.4v-41.1c0-3.1 2.7-5.7 5.8-5.7h11.3c3.1 0 5.8 2.6 5.8 5.7v36.8l47.9 55.7zm-31.5 36.9c0 10.8-6.1 20.3-16 25.1l-0.6 0.3v83.6c0 3.1-2.6 5.7-5.8 5.7h-11.3c-3.1 0-5.7-2.6-5.7-5.7v-83.6l-0.7-0.3c-9.8-4.8-15.9-14.3-15.9-25.1 0-15.4 12.5-27.9 27.9-27.9 15.4 0 27.9 12.5 27.9 27.9zm-16.7 0c0-6.1-5-11.2-11.2-11.2-6.2 0-11.2 4.9-11.2 11.2 0 6.2 5 11.1 11.2 11.1 6.2 0 11.2-4.9 11.2-11.1zm45.3-295.9h-11.4c-3.1 0-5.7 2.6-5.7 5.7v87.8l-27.9 13.5v-85.2c0-3.1-2.6-5.8-5.8-5.8h-11.3c-3.1 0-5.7 2.7-5.7 5.8v103.1c0 3.1 1 6 2.9 8.2 2.2 2.3 5.3 3.6 8.4 3.6 3.1 0 3.4-0.4 4.9-1.2l50.7-24.6c4-1.8 6.4-5.9 6.4-10.3v-95.1c0-3.1-2.6-5.7-5.7-5.7h0.2zm140.6 140h11.3c3.3 0 5.8-2.6 5.8-5.8v-136.7c0-3.3-2.6-5.7-5.8-5.7h-11.3c-3.1 0-5.7 2.6-5.7 5.7v136.7c0 3.2 2.6 5.8 5.7 5.8zm-101.6-34.8l50.7 30.9c3.7 2.1 8.4 2.1 12 0 3.3-2.2 5.4-6 5.4-10.4v-132.1c0-3.1-2.6-5.8-5.7-5.8h-11.3c-3.1 0-5.8 2.7-5.8 5.8v112.4l-27.9-16.9v-91.4c0-3.3-2.6-5.8-5.7-5.8h-11.3c-3.2 0-5.8 2.7-5.8 5.8v97.8c0 4 2.1 7.7 5.6 9.9zm-140.5-61.9h-11.3c-3.2 0-5.8 2.6-5.8 5.7v263.1c0 3.2 2.6 5.8 5.8 5.8h11.3c3.1 0 5.7-2.6 5.7-5.8v-263.1c0-3.1-2.6-5.7-5.7-5.7zm405.6 0h-11.4c-3.2 0-5.7 2.6-5.7 5.7v263.1c0 3.2 2.6 5.8 5.7 5.8h11.4c3.1 0 5.7-2.6 5.7-5.8v-263.1c0-3.1-2.6-5.7-5.7-5.7zm-48.9 181.5c2.6 2.1 4.1 5.4 4.1 8.7v28.6c0 3.1-2.7 5.7-5.8 5.7h-11.3c-3.3 0-5.8-2.6-5.8-5.7v-23.2l-46.6-38.9c-2.6-2.1-4.1-5.4-4.1-8.7v-138l-0.6-0.3c-9.7-4.6-15.8-14.5-15.8-25.1 0-15.5 12.5-27.9 27.9-27.9 15.4 0 27.9 12.4 27.9 27.9 0 15.4-6.2 20.5-15.7 25.1l-0.7 0.3v132.6l46.6 38.9zm-7.4 88.2c-1.9 0-3.9 0.4-5.7 1.6l-50.7 29.7c-3.5 2.1-5.8 5.7-5.8 9.9v92c0 3.1 2.6 5.8 5.8 5.8h11.3c3.3 0 5.7-2.7 5.7-5.8v-85.5l27.9-16.2v60.4c0 3.1 2.7 5.7 5.8 5.7h11.3c3.1 0 5.8-2.6 5.8-5.7v-80c0-3.4-1.4-6.5-3.7-8.7-2.1-2.1-4.9-3.1-7.8-3.1zm-101.5 55.3h-0.6l-50.7 2.5c-6.1 0.3-10.9 5.4-10.9 11.5v113.1c0 3.1 2.7 5.7 5.8 5.7h11.3c3.3 0 5.7-2.6 5.7-5.7v-102.3l27.9-1.3v83.5c0 3.2 2.7 5.8 5.8 5.8h11.3c3.3 0 5.8-2.6 5.8-5.8v-95.5c0-1.1 0-2.1-0.4-2.9-1.3-5.1-5.9-8.6-11-8.6zm-73.5 84.9c0 15.4-12.5 27.9-27.9 27.9-15.4 0-27.9-12.5-27.9-27.9 0-15.4 6.1-20.4 15.8-25.1l0.6-0.4v-69.9c0-3.1 2.6-5.7 5.8-5.7h11.3c3.1 0 5.7 2.6 5.7 5.7v69.9l0.7 0.4c9.8 4.7 15.7 14.3 15.7 25.1zm-16.7 0c0-6.1-4.9-11.2-11.2-11.2-6.2 0-11.1 4.9-11.1 11.2 0 6.2 4.9 11.1 11.1 11.1 6.3 0 11.2-4.9 11.2-11.1zm197.3-437.1h-11.3c-3.3 0-5.8 2.6-5.8 5.7v153c0 3.1 2.6 5.8 5.8 5.8h11.3c3.1 0 5.7-2.7 5.7-5.8v-153c0-3.1-2.6-5.7-5.7-5.7zm-45.2 11.8c0-6.1-4.9-11.1-11.1-11.1-6.3 0-11.2 4.9-11.2 11.1 0 6.3 4.9 11.2 11.2 11.2 6.2 0 11.1-4.9 11.1-11.2zm-39.5 248.8c-27.1-7.7-40.9 2-58.3 14.3-2.1 1.5-4.2 3-6.5 4.6-3.8-28.7-3.2-63.2-2.3-74.7 7 4.5 15.6 12.5 21.3 33.7l0.8 2.9c0 0.5 0.7 0.9 1 0.9 0.5 0 0.8-0.4 1-0.9l0.5-2.9c3.8-21-7.2-36-11.7-41 2 0.3 5.1 1.1 8.7 2.7 5.9 2.8 14.8 8.7 23.5 21.4l1.8 2.8c0.3 0.5 0.8 0.5 1.3 0.3 0.5-0.2 0.7-0.7 0.7-1.1l-0.7-3.3c-5.6-27.4-25.6-36.8-32.6-39.3 3.7-1.3 12.9-2.8 30.8 3.2l2.3 0.8c0.5 0 0.8 0 1.2-0.3 0-0.4 0-0.9 0-1.2l-1.7-1.8c-13.4-15.8-33-14.4-39.9-13.3 1.7-2.5 5.3-6.2 11-10.2l2.3-1.6c0.4-0.3 0.5-0.8 0.4-1.2 0-0.5-0.7-0.6-1.2-0.6l-2.8 0.5c-5.2 0.8-9.5 2.1-12.8 3.7-3.3 1.7-5.7 3.3-7.4 4.8-0.3-2.9-1-6.7-2.3-9.8l-0.6-1.4c-0.2-0.3-0.5-0.6-1-0.6-0.5 0-0.8 0.3-1 0.6l-0.7 1.5c-1.3 3.1-1.9 6.9-2.3 9.9-3.1-2.8-9.8-7.1-20.1-8.6l-2.8-0.5c-0.5 0-0.9 0.2-1.2 0.7-0.1 0.5 0 1 0.3 1.1l2.3 1.7c5.8 4.1 9.2 7.9 11 10.2-6.9-1.2-26.4-2.5-39.8 13.3l-1.7 1.8c-0.3 0.3-0.3 0.8 0 1.1 0.3 0.3 0.7 0.5 1.2 0.3l2.3-0.8c17.7-5.9 26.9-4.4 30.8-3.1-7.2 2.5-27.1 11.7-32.6 39.1l-0.7 3.3c0 0.4 0 0.9 0.7 1.1 0.5 0.2 0.9 0 1.1-0.3l2-2.8c8.7-12.8 17.5-18.7 23.4-21.4 3.8-1.6 6.8-2.4 8.7-2.7-4.5 5-15.4 20-11.6 41l0.5 2.9c0 0.5 0.5 0.9 1 0.9 0.5 0 0.8-0.4 1-0.9l0.8-2.9c5.7-21.2 14.1-29.2 21.3-33.7 0.7 11.5 1.3 45.8-2.3 74.7-2.3-1.5-4.4-3.1-6.6-4.6-17.3-12.3-31.1-22-58.2-14.3-0.5 0-0.8 0.5-0.7 1 0 0.5 0.5 0.8 1 1 26.8 2.3 39.6 12.3 52.9 22.8 2.9 2.3 6 4.8 9.2 7.1-9.2 6.1-19.1 11.8-29.3 13.6-0.5 0-0.8 0.5-0.9 1 0 0.3 0.3 1 0.6 1.1 14.3 7.8 26.8 0.9 40.2-8.3 9.4 6.4 18.2 11.6 27.6 11.6 9.4 0 8.2-1 12.6-3.3 0.4-0.1 0.7-0.8 0.7-1.1 0-0.5-0.5-1-1-1-10.2-1.8-20-7.5-29.2-13.6 3.3-2.3 6.2-4.8 9.2-7.1 13.4-10.5 26.1-20.5 52.8-22.8 0.5 0 0.9-0.5 1-1 0-0.5-0.3-1-0.8-1z"/>
			<g>
				<path class="s0" d="m108.9 639.3v11.8h-13.4v-11.8z"/>
				<path class="s0" d="m90 639.3v11.8h-13.4v-11.8z"/>
				<path class="s0" d="m254.3 705.4c3 0 5.8-0.6 8.2-1.8 2.5-1.3 4.5-2.9 6.1-5.2 2.2 2.6 4.5 4.4 6.8 5.4 2.2 1 5.5 1.6 9.5 1.6h5.7c5.6 0 10.2-1.9 13.5-6 1.9 1.9 4.1 3.4 6.5 4.4 2.5 1 4.8 1.5 6.8 1.5h85.3c3.8-9.9 5.6-17.6 5.6-23.5 0-5.9-1-8.7-3-12.3-1.9-3.6-4.9-6.4-8.7-8.6-3.7-2.1-8.3-3.1-13.7-3.1-9.9 0-20.2 3.6-30.9 10.7v-35h-13.1v60.6h-21.5c-4.1 0-7.3-1.1-9.1-3.4 0.4-1.7 0.5-3.5 0.5-5.3v-26.4h-13.1v24.4c0 3.3-0.8 5.9-2.6 7.9q-2.7 3-6.4 3h-1.8c-3.6 0-6.3-0.4-8.1-0.9-1.8-0.4-3.3-1.4-4.7-3.1q0.5-2.4 0.5-4.9v-27.4h-13.2v25.4c0 3.3-0.8 5.9-2.6 7.9q-2.7 3-6.4 3h-132.1q-3.5 0-5.4-2c-1.2-1.3-1.8-3.6-1.8-6.9v-25.4c-8.1-1.3-14.3-1.8-18.6-1.8-4.3 0-9.5 0.9-13.3 3.1-3.8 2.1-6.9 4.9-8.9 8.5-2.1 3.6-3.1 7.7-3.1 12.2 0 4.4 1 8.8 3 12.3 2 3.6 4.7 6.2 8.2 8.2 3.4 1.9 7.5 2.9 11.6 2.9 6.3 0 14-1.4 16.3-1.8 2.3 1.2 4.9 1.8 8.2 1.8h140zm97.8-25.4c4.8-3.3 9.4-5.8 14-7.7 4.6-1.8 9.5-2.8 14.4-2.8 4.9 0 7.7 1.1 10.4 3.4 2.6 2.3 3.9 5.4 3.9 9.2 0 3.8-0.7 7.7-1.8 12.2h-40.9zm-268.5 11q-2.9-3.2-2.9-8.9c0-8.5 3.7-12.8 11.4-12.8 7.8 0 3.8 0 6 0.7v17.4c0 2.4 0.3 4.6 0.8 6.5-1.8 0-4.6 0-6.8 0-3.6 0-6.5-1.1-8.5-3.3"/>
				<path class="s0" d="m260.3 713.6v11.9h-13.5v-11.9z"/>
				<path class="s0" d="m279 713.6v11.9h-13.5v-11.9z"/>
				<path class="s0" d="m309.2 639.3v11.8h-13.5v-11.8z"/>
				<path class="s0" d="m428.5 702.6c3.4 2 7.4 3 11.6 3h7.9c-0.3 1.6-0.8 2.9-1.5 4.1-1.1 1.8-2.9 3.1-5.2 4.1-2.3 1-5.4 1.6-9.2 2.1v12.3l5.2-0.6c7.4-1.2 13-3.5 17.1-6.6 4.1-3.1 6.4-8.3 6.9-15.4h28.2v-71.7h-12.9v60.5h-15.1v-34.3c-8.1-1.3-14.3-1.8-18.7-1.8-4.5 0-9.6 1-13.3 3.1-3.8 2.2-6.9 5-9.1 8.6-2.1 3.6-3.1 7.7-3.1 12.1 0 4.5 1 8.9 3 12.3 1.9 3.6 4.7 6.3 8.2 8.2zm13.8-33.3c1.8 0 3.7 0 5.9 0.7v24.3h-5.9c-3.8 0-6.6-1.2-8.6-3.3q-2.9-3.2-2.9-8.9c0-8.5 3.8-12.8 11.5-12.8z"/>
				<path class="s0" d="m518.6 633.7v71.7h-13.1v-71.7z"/>
				<path class="s0" d="m591.6 639.3v11.8h-13.4v-11.8z"/>
				<path class="s0" d="m572.9 639.3v11.8h-13.4v-11.8z"/>
				<path class="s0" d="m725.1 705.4c2.9 0 5.7-0.6 8.2-1.8 2.4-1.3 4.4-2.9 6.1-5.2 2.1 2.6 4.4 4.4 6.7 5.4 2.4 1 5.6 1.6 9.5 1.6h12.3c3 0 5.8-0.6 8.2-1.8 2.5-1.3 4.4-2.9 6.1-5.2 2.1 2.6 4.4 4.4 6.7 5.4 2.3 1 5.6 1.6 9.5 1.6h49.3c6.1 0 11.1-2.4 15.1-7.4 1.9 2.3 4.2 4.1 7 5.5 2.8 1.3 5.3 1.8 7.6 1.8h22.3v-71.8h-13v60.6h-9.3c-2.6 0-4.8-0.3-6.2-1.1-1.5-0.9-2.8-2-3.8-3.7q1.5-5.1 1.5-10.3c0-5.7-1.5-11.2-4.5-15.8-2.9-4.7-7-8.5-12.5-11.3-5.4-2.8-11.9-4.1-19.3-4.1h-11.5v11.2h11.3c4.9 0 9.2 1 12.8 2.8 3.5 1.8 6.1 4.4 7.9 7.5 1.8 3.1 2.6 6.7 2.6 10.5 0 3.8-0.6 5.9-1.8 8.1-1.3 2.1-2.8 3.7-4.6 4.7q-2.7 1.5-5.4 1.5h-2.1c3.1-2.9 4.7-6.4 4.7-10.8 0-4.5-0.8-6.1-2.3-9.1-1.4-2.9-3.7-5.4-6.9-7.2-3.1-1.8-6.7-2.8-11.3-2.8-4.6 0-7.5 0.9-10.7 2.7-3.1 1.8-5.5 4.1-7.2 6.9-1.8 2.9-2.6 5.9-2.6 9 0 4.7 1.5 8.5 4.6 11.1h-11.5c-3.6 0-6.2-0.3-8-0.8-1.8-0.5-3.3-1.5-4.8-3.1q0.5-2.5 0.5-4.9v-27.4h-13.1v25.4c0 3.3-0.9 5.9-2.7 7.9q-2.7 2.9-6.4 2.9h-8.3c-3.6 0-6.3-0.3-8.1-0.8-1.8-0.5-3.3-1.5-4.7-3.1q0.5-2.5 0.5-4.9v-27.4h-13.2v25.4c0 3.3-0.8 5.9-2.6 7.9q-2.7 2.9-6.4 2.9h-119.8q-3.5 0-5.4-1.9c-1.2-1.3-1.8-3.6-1.8-6.9v-25.5c-8.1-1.3-14.3-1.8-18.6-1.8-4.3 0-9.5 1-13.3 3.1-3.8 2.2-6.9 5-8.8 8.6-2.2 3.6-3.2 7.7-3.2 12.1 0 4.5 1 8.9 3 12.3 2 3.7 4.8 6.3 8.2 8.2 3.4 2 7.5 3 11.7 3 6.2 0 13.9-1.5 16.2-1.8 2.3 1.1 4.9 1.8 8.2 1.8h127.7zm95.4-27.7c1.4-1.4 3.1-2.2 5.4-2.2 2.3 0 3.4 0.5 4.9 1.3 1.3 0.9 2.5 2 3.1 3.3 0.8 1.3 1.2 2.7 1.2 4 0 2.9-0.7 5.2-2.2 7.2-1.4 1.8-3.4 2.8-5.9 2.8h-0.3c-5.4-1.7-8.2-5.1-8.2-10.4 0-5.2 0.6-4.7 2.1-6.2m-254.1 13.5q-2.9-3.2-2.9-8.9c0-8.5 3.8-12.8 11.5-12.8 7.7 0 3.8 0 5.9 0.6v17.4c0 2.5 0.3 4.6 0.8 6.6-1.8 0-4.6 0-6.7 0-3.6 0-6.6-1.1-8.6-3.3"/>
				<path class="s0" d="m748.4 644.7h-10.9c-0.4-0.7-0.8-1.6-0.8-2.8 0-1.1 0.4-2 0.8-2.6 0.7-0.7 1.4-1 2.3-1 1 0 1.7 0 2.7 0.5l2.3-7.1c-2.2-0.6-4-1-5.8-1-3.3 0-5.7 1-7.7 2.8-2 1.8-2.8 4.3-2.8 7.4 0 3.1 0.3 2.5 1 3.8h-4.6l-1.6 8h25.1z"/>
				<path class="s0" d="m792.5 713.6v11.9h-13.4v-11.9z"/>
				<path class="s0" d="m773.8 713.6v11.9h-13.4v-11.9z"/>
				<path class="s0" d="m928.8 633.7v71.7h-13.2v-71.7z"/>
				<path class="s0" d="m97.8 826.1v11.8h-13.5v-11.8z"/>
				<path class="s0" d="m116.5 826.1v11.8h-13.5v-11.8z"/>
				<path class="s0" d="m185.4 751.7v11.8h-13.5v-11.8z"/>
				<path class="s0" d="m172.1 806.7h-11.1q-3.5 0-5.5-2c-1.1-1.3-1.8-3.6-1.8-6.9v-37.6h-20.2c-7.8 0-13.7 2.2-17.4 6.3-3.7 4.1-5.5 9.3-5.5 15.6v24.6h-16.8c-9.2 0-13.8-4.1-13.8-12.5v-22.6h-13.1v24.8c0 6.2 1.8 11.4 5.6 15.6 3.6 4.1 9.5 6.2 17.4 6.2h33.6v-33.8c0-8.4 4.6-12.7 13.8-12.7h3.1v28.4c0 5.5 1.5 9.9 4.3 13.2 2.8 3.2 6.9 4.9 12.1 4.9h28.3v-46.5h-13v35.3z"/>
				<path class="s0" d="m212.3 746.1v71.8h-13.1v-71.8z"/>
				<path class="s0" d="m390.6 826.1v11.8h-13.5v-11.8z"/>
				<path class="s0" d="m436.5 826.1v11.8h-13.4v-11.8z"/>
				<path class="s0" d="m417.8 826.1v11.8h-13.4v-11.8z"/>
				<path class="s0" d="m546.3 806.7h-9.3c-3.8 0-6.4-0.3-8.1-0.8-1.6-0.5-3.2-1.7-4.7-3.1 0.3-2 0.5-3.7 0.5-4.8v-30.4h-13.2v28.4c0 3.6-0.8 6.4-2.4 8.1-1.7 1.8-3.8 2.6-6.3 2.6-2.4 0-4.9-0.7-6.9-2.1-2.1-1.5-3.1-3.6-3.1-6.4v-26.6h-13.1v24.4c0 3.3-0.8 5.9-2.6 7.9q-2.7 3-6.4 3h-5.8v-35.3h-13.1v35.3h-9.4c-3.6 0-6.2-0.4-8-0.9-1.8-0.4-3.3-1.4-4.8-3.1q0.5-2.4 0.5-4.9v-27.4h-13.1v25.4c0 3.3-0.8 5.9-2.6 7.9q-2.7 3-6.4 3h-8.4c-4.1 0-7.2-1.2-9-3.5 0.3-1.6 0.5-3.4 0.5-5.2v-26.5h-13.2v24.5c0 3.3-0.8 5.9-2.6 7.9q-2.7 2.9-6.4 2.9h-117.2c-4.3 0-7.4-1.3-9.5-4.1v-31.2h-13.1v44c0 3.1-0.5 5.4-1.3 7.2-0.9 1.7-2.2 3-4 3.8-1.8 0.8-4.1 1.3-7.2 1.8v12.3l5.2-0.5c6-0.6 10.9-2.9 14.7-6.7 3.7-3.8 5.5-9.8 5.5-17.9 3.3 1.8 6.4 2.8 9.6 2.8h121.1c5.6 0 10.2-2 13.4-6.1 2 2 4.1 3.5 6.6 4.5 2.5 1 4.8 1.5 6.7 1.5h12.3c3 0 5.8-0.7 8.3-1.9 2.4-1.3 4.4-2.9 6-5.2 2.2 2.6 4.5 4.4 6.8 5.4 2.3 1 5.5 1.7 9.5 1.7h32.1c5.6 0 10.2-2.2 13.7-6.3 1.8 2.1 3.9 3.6 6.4 4.8 2.4 1 5.9 1.6 10.1 1.6 4.3 0 6.3-0.6 9.1-2 2.8-1.3 4.9-3.1 6.7-5.4 2.1 2.8 4.4 4.6 6.9 5.8 2.5 1 5.6 1.6 9.7 1.6h22.3v-71.7h-13v60.6z"/>
				<path class="s0" d="m588.5 746.1v71.8h-13.1v-71.8z"/>
				<path class="s0" d="m652.5 759.8v11.8h-13.4v-11.8z"/>
				<path class="s0" d="m819.4 773.5c-3.7-2.1-8.2-3.1-13.2-3.1-5.1 0-10.6 0.7-18.8 1.8v34.3h-115.3v-35.3h-13.2v52.1h-11c-9.2 0-13.8-4.3-13.8-12.7v-16.2h-13.1v18.2c0 6.2 1.8 11.5 5.6 15.6 3.6 4.1 9.5 6.2 17.4 6.2h28.1v-16.7h153.9c3.8-9.9 5.6-17.6 5.6-23.5 0-5.9-1-8.5-3.1-12.1-2.2-3.6-5.1-6.6-9.1-8.6zm-3.2 33.2h-15.6v-24.3c2.1-0.5 4.1-0.6 5.9-0.6 7.5 0 11.5 4.2 11.5 12.8 0 8.5-0.7 7.7-1.8 12.1z"/>
				<path class="s0" d="m857.5 760.6h18.7v-6.1h-8c-0.8-0.5-1.2-1.1-1.2-2.1 0-1 0-1 0.7-1.3 0.3-0.4 1-0.5 1.5-0.5 1 0 2.4 0.3 4.2 0.8l1.5-6.1c-2.6-0.8-4.7-1.3-6.4-1.3-1.6 0-3.9 0.7-5.1 2-1.1 1.3-1.8 2.9-1.8 4.9 0 2 0.4 2.3 1 3.4h-3.4l-1.7 6.1z"/>
				<path class="s0" d="m915.8 806.7h-11.3c-2.5 0-4.1-0.7-5.4-2-1.2-1.3-1.9-3.6-1.9-6.9v-53.5h-13.1v55.5q0 1.2 0 3.5c-2.9 1.8-6.7 2.7-11.5 3.2h-0.3v-37.4h-13.1v37.6h-16.6v11.2h27.7c6.3 0 12-2 17.3-5.8 2.9 3.8 7.2 5.8 12.8 5.8h28v-71.8h-12.9v60.6h0.1z"/>
				<path class="s0" d="m87.7 903.2c2.8 4.1 5.3 7.7 6.9 10.8h0.2c-0.2-5.2-0.3-8.8-0.3-11.3v-18h7.2v39.7h-7.7l-13-18.4c-2.3-3.1-4.6-6.9-7-11h-0.2c0.2 4.9 0.3 8.7 0.3 11.3v18.1h-7.2v-39.7h7.7z"/>
				<path class="s0" d="m127.5 921.4c-0.4 0.5-0.9 0.8-1.5 1.3-0.5 0.5-1.2 0.9-2 1.4-0.6 0.3-1.5 0.6-2.3 0.9-0.8 0-1.8 0.4-2.8 0.4-1 0-2.6 0-3.7-0.7-1.2-0.5-2.2-1-3.2-1.8q-1.2-1.2-1.9-2.9c-0.5-1.2-0.7-2.5-0.7-3.8 0-1.3 0.3-3 0.8-4.1 0.5-1.3 1.3-2.3 2.3-3.1 1-0.9 2.3-1.5 3.6-2 1.5-0.5 3-0.7 4.6-0.7 1.7 0 2.5 0 3.5 0 1 0 2 0.4 2.8 0.5v-1.1c0-0.7 0-1.3-0.4-2-0.1-0.7-0.6-1.1-1.1-1.6-0.5-0.5-1.2-0.9-2-1.2q-1.2-0.5-2.9-0.5c-1.2 0-2.8 0-4.3 0.5-1.5 0.3-2.9 0.8-4.6 1.5v-5.6c1.5-0.6 3-1.1 4.6-1.5 1.6-0.3 3.3-0.5 5.1-0.5 1.8 0 3.9 0.4 5.6 0.9 1.6 0.5 2.9 1.1 3.9 2.1 1 1 1.8 2 2.5 3.1 0.5 1.3 0.8 2.6 0.8 4v19.3h-6.4l-0.3-3.1zm-0.7-9.2c-0.6 0-1.5-0.3-2.3-0.5-0.8 0-1.8 0-2.6 0-1.8 0-3.1 0.3-4.1 1-1 0.7-1.5 1.8-1.5 3.1 0 1.3 0 1.2 0.3 1.7 0.4 0.5 0.5 0.8 1 1.1 0.3 0.3 0.8 0.5 1.3 0.7 0.5 0 1 0 1.7 0 0.6 0 1.3 0 1.9-0.4 0.7 0 1.2-0.5 1.8-0.6q0.8-0.5 1.5-1c0.5-0.3 0.8-0.7 1.2-1v-4.4 0.3z"/>
				<path class="s0" d="m159.5 924.5c-0.8 0-1.8 0.5-2.8 0.5-1 0-2.2 0-3.1 0-2.5 0-4.5-0.3-5.9-1.1-1.5-0.8-2.7-2-3.3-3.5-0.5-0.9-0.7-2.4-0.7-4.2v-15h-5.4v-5.7h5.4v-8h7.1v8h8.3v5.7h-8.3v14c0 1.1 0 2 0.5 2.5 0.6 0.9 1.8 1.3 3.6 1.3 1.8 0 1.6 0 2.4 0 0.9 0 1.7-0.4 2.3-0.5v6z"/>
				<path class="s0" d="m164.9 881.5h7.4v7.8h-7.4zm0.2 14.1h7v28.7h-7z"/>
				<path class="s0" d="m207.6 910.1c0 2.3-0.4 4.3-1 6.2-0.7 1.8-1.7 3.5-3 4.8-1.3 1.3-2.8 2.3-4.6 3.1-1.8 0.7-3.7 1.2-5.9 1.2-2.1 0-4.2-0.4-6.1-1.2-1.8-0.6-3.2-1.8-4.5-3.1-1.4-1.3-2.2-3-2.8-4.8-0.7-1.8-1-3.9-1-6.2 0-2.3 0.3-4.3 1-6.2 0.6-1.8 1.6-3.5 2.9-4.8 1.3-1.3 2.8-2.3 4.6-3.1 1.8-0.7 3.8-1.2 5.9-1.2 2.2 0 4.3 0.4 6.1 1.2 1.8 0.6 3.3 1.8 4.6 3.1 1.3 1.3 2.1 3 2.8 4.8 0.6 1.8 1 3.9 1 6.2zm-7.4 0c0-1.5-0.2-3-0.5-4.1q-0.5-1.7-1.5-3c-0.6-0.8-1.5-1.3-2.3-1.8-0.8-0.3-1.8-0.6-2.9-0.6-1.2 0-2 0-2.8 0.6-0.9 0.4-1.7 1-2.3 1.8q-1 1.3-1.5 3c-0.3 1.1-0.5 2.5-0.5 4.1 0 1.6 0.2 3 0.5 4.1q0.5 1.7 1.5 3c0.6 0.8 1.4 1.3 2.3 1.8 0.8 0.3 1.8 0.6 2.9 0.6 1.2 0 2 0 3-0.6 0.8-0.4 1.6-1 2.3-1.8q1-1.3 1.4-3c0.4-1.1 0.5-2.5 0.5-4.1"/>
				<path class="s0" d="m220.2 899.8c0.5-0.7 1-1.2 1.6-1.8 0.7-0.7 1.4-1.2 2.2-1.5 0.8-0.5 1.6-0.8 2.6-1 1-0.3 2-0.3 3.1-0.3 1.2 0 2.2 0 3.1 0.3 1 0 1.8 0.7 2.7 1.1 0.8 0.5 1.4 1.2 2.1 2 0.7 0.8 1.1 1.8 1.5 2.8 0.1 0.7 0.3 1.3 0.3 2v21.1h-7.1v-19.5c0-0.5-0.1-1-0.3-1.5-0.3-0.9-0.8-1.6-1.6-1.9-0.7-0.4-1.7-0.7-2.6-0.7-1 0-2.7 0.3-4 1-1.3 0.7-2.3 1.6-3.3 2.8v19.8h-7v-28.7h5.7l0.7 4z"/>
				<path class="s0" d="m264.5 921.4c-0.3 0.5-0.8 0.8-1.5 1.3-0.5 0.5-1.1 0.9-1.9 1.4-0.7 0.3-1.5 0.6-2.3 0.9-0.8 0-1.8 0.4-2.8 0.4-1 0-2.6 0-3.8-0.7-1.1-0.5-2.1-1-3.1-1.8q-1.2-1.2-2-2.9c-0.5-1.2-0.6-2.5-0.6-3.8 0-1.3 0.3-3 0.8-4.1 0.5-1.3 1.3-2.3 2.3-3.1 1-0.9 2.3-1.5 3.6-2 1.5-0.5 2.9-0.7 4.6-0.7 1.6 0 2.5 0 3.4 0 1 0 2 0.4 2.8 0.5v-1.1c0-0.7 0-1.3-0.3-2-0.2-0.7-0.7-1.1-1.2-1.6-0.4-0.5-1.1-0.9-1.9-1.2q-1.3-0.5-3-0.5c-1.1 0-2.8 0-4.2 0.5-1.5 0.3-3 0.8-4.6 1.5v-5.6c1.4-0.6 2.9-1.1 4.6-1.5 1.6-0.3 3.2-0.5 5-0.5 1.9 0 4 0.4 5.6 0.9 1.7 0.5 3 1.1 4 2.1 0.9 1 1.8 2 2.4 3.1 0.5 1.3 0.8 2.6 0.8 4v19.3h-6.4l-0.3-3.1zm-0.6-9.2c-0.7 0-1.5-0.3-2.3-0.5-0.9 0-1.8 0-2.7 0-1.8 0-3.1 0.3-4.1 1-1 0.7-1.4 1.8-1.4 3.1 0 1.3 0 1.2 0.3 1.7 0.3 0.5 0.5 0.8 1 1.1 0.3 0.3 0.8 0.5 1.3 0.7 0.5 0 1 0 1.6 0 0.7 0 1.3 0 2-0.4 0.7 0 1.1-0.5 1.8-0.6q0.7-0.5 1.5-1c0.5-0.3 0.8-0.7 1.1-1v-4.4 0.3z"/>
				<path class="s0" d="m286.2 881.5v43h-7.1v-43z"/>
				<path class="s0" d="m327.1 890.1q-3 0-5.5 1c-1.6 0.6-3.1 1.6-4.2 2.8-1.2 1.3-2.2 2.7-2.8 4.5-0.7 1.9-1 4-1 6.3 0 2.3 0.3 4.4 1 6.2 0.6 1.8 1.5 3.3 2.6 4.5 1.2 1.1 2.6 2.1 4.3 2.6 1.6 0.6 3.6 1 5.6 1 1.9 0 3.1 0 4.5-0.4 1.7 0 3-0.6 4.5-0.9v6.2c-1.3 0.3-3 0.6-4.5 1-1.6 0-3.2 0.3-4.9 0.3q-5.1 0-8.8-1.5c-2.7-1-4.8-2.3-6.4-4.1-1.7-1.8-3-3.8-4-6.2-0.8-2.5-1.3-5.1-1.3-8.1 0-2.9 0.5-5.9 1.3-8.3 1-2.7 2.3-5 4-6.8 1.8-1.9 3.9-3.4 6.5-4.4 2.7-1.1 5.6-1.6 8.9-1.6 3.3 0 3.3 0 4.7 0.3 1.5 0 2.8 0.5 4.2 1v6.2q-2.5-0.7-4.5-1c-1.3 0-2.6-0.3-3.9-0.3"/>
				<path class="s0" d="m336.6 895.7h7.5l4.3 10.5q2.5 5.9 3.4 8.8c0.5-1.5 1.5-4.2 3.2-8.2l4.4-11h7.7l-18.5 42.7h-6.9l6.5-15.4-11.8-27.3z"/>
				<path class="s0" d="m399.1 909.6c0 2.6-0.3 4.9-1.1 6.9q-1.3 3-3 4.9c-1.1 1.3-2.6 2.3-4.1 2.8-1.5 0.7-3.1 1-4.6 1-1.5 0-2.1 0-3-0.3-0.8-0.4-1.6-0.7-2.2-1-0.7-0.3-1.2-0.8-1.7-1.3-0.5-0.5-0.8-0.8-1-1.2l-0.6 3.1h-5.8v-43h7.1v16q0.7-0.5 1.5-1c0.5-0.3 1.1-0.5 1.8-0.8 0.6 0 1.3-0.5 1.9-0.5 0.7 0 1.5 0 2.3 0 1.7 0 3.2 0.3 4.8 0.8 1.5 0.6 2.8 1.5 4.1 2.6 1.1 1.2 2.1 2.8 2.8 4.6 0.6 1.8 1 4.1 1 6.4m-7.6 0.3c0-1.8-0.1-3.2-0.6-4.6-0.5-1.3-1-2.3-1.7-2.9-0.6-0.7-1.5-1.2-2.1-1.3-0.8 0-1.5-0.4-2.3-0.4-0.8 0-2.1 0-3.1 0.7-1.2 0.5-2 1-3 1.6v13.8q0.5 0.5 1 1c0.3 0.3 0.8 0.7 1.3 1 0.5 0.3 1 0.5 1.7 0.7 0.6 0 1.1 0.3 1.9 0.3 0.8 0 2.2 0 3-0.7 0.8-0.5 1.6-1.1 2.1-1.9 0.7-0.9 1-1.8 1.3-3.2q0.5-1.7 0.5-3.9"/>
				<path class="s0" d="m420.1 919.6c1.3 0 2.8 0 4.3-0.5 1.5-0.3 2.9-0.6 4.6-1.1v5.6c-1 0.3-2.3 0.8-4.3 1.1q-2.7 0.5-5.9 0.5c-2.1 0-3.9-0.3-5.7-0.8-1.8-0.5-3.5-1.3-4.8-2.5-1.3-1.1-2.5-2.6-3.3-4.6-0.8-1.8-1.1-4.1-1.1-6.7 0-2.6 0.3-4.9 1.1-6.9q1.2-3 3-4.9 1.9-2 4.4-3c1.6-0.6 3.3-1 5.1-1 1.8 0 3.4 0.4 5.1 0.9 1.5 0.5 2.8 1.4 3.9 2.6 1.2 1.1 2 2.8 2.6 4.6 0.7 1.8 1 4.1 1 6.5v2.5h-18.8c0 1.3 0.3 2.5 0.8 3.5 0.5 0.9 1.1 1.6 1.9 2.3 0.9 0.6 1.8 0.9 2.8 1.3 1.2 0.3 2.3 0.3 3.5 0.3m-3-18.9c-0.8 0-1.6 0-2.3 0.5-0.6 0.5-1.3 0.8-1.8 1.3-0.5 0.5-1 1.2-1.1 2-0.4 0.8-0.5 1.5-0.7 2.5h11.3c0-0.9 0-1.7-0.3-2.5-0.3-0.8-0.5-1.5-1-2-0.5-0.5-1-1-1.6-1.3-0.7-0.3-1.5-0.5-2.3-0.5"/>
				<path class="s0" d="m453.6 901.2h-0.7c-2.1 0-4.1 0.4-5.7 1-1.6 0.7-3 1.7-3.8 3v19.3h-7v-28.7h5.7l0.7 4q1.2-2.3 3.4-3.5c1.5-0.8 3.3-1.3 5.3-1.3 1.9 0 1.3 0 1.8 0v6.2z"/>
				<path class="s0" d="m470.5 916.2q0-1-0.5-1.5c-0.3-0.3-0.8-0.7-1.3-1-0.7-0.3-1.3-0.5-2-0.6-0.8 0-1.4-0.4-2.3-0.7q-1.4-0.5-2.9-1-1.5-0.5-2.5-1.5c-0.6-0.6-1.3-1.3-1.8-2.3-0.5-0.9-0.6-1.9-0.6-3.2 0-1.4 0.3-3 0.8-4.1 0.5-1.2 1.3-2.2 2.3-3 1-0.8 2.1-1.3 3.4-1.6 1.3-0.4 2.6-0.5 4.1-0.5 1.5 0 3.5 0 4.9 0.5 1.5 0.3 3 0.6 4.3 1.1v5.8c-0.6 0-1.3-0.5-2.1-0.7-0.7 0-1.5-0.3-2.2-0.5-0.8 0-1.4-0.3-2.1-0.3h-2.1c-0.7 0-1.5 0-2.2 0-0.4 0-0.9 0.3-1.4 0.6-0.4 0.4-0.7 0.7-0.9 1 0 0.3-0.1 0.7-0.1 1.2 0 0.5 0.1 1.1 0.5 1.6q0.5 0.7 1.5 1c0.6 0.3 1.3 0.5 1.9 0.6 0.7 0 1.3 0.4 2 0.5 1 0 2 0.5 2.9 0.9 1 0.3 1.9 0.8 2.7 1.4 0.8 0.7 1.4 1.4 1.9 2.3 0.5 1 0.9 2.2 0.9 3.6 0 1.5-0.4 3.2-1 4.3-0.7 1.2-1.5 2.3-2.6 3-1.2 0.8-2.5 1.4-4 1.8-1.5 0.3-3.3 0.6-5.1 0.6-1.8 0-3.4 0-4.9-0.5-1.5-0.3-2.6-0.6-3.6-1.1v-5.8c1.5 0.7 2.9 1 4.3 1.2 1.3 0 2.4 0.3 3.6 0.3 1.1 0 1.6 0 2.4 0 0.8 0 1.5-0.3 2-0.6 0.5-0.4 1-0.7 1.3-1q0.5-0.8 0.5-1.5"/>
				<path class="s0" d="m498.4 919.6c1.3 0 2.8 0 4.3-0.5 1.5-0.3 2.9-0.6 4.6-1.1v5.6c-1 0.3-2.3 0.8-4.3 1.1q-2.7 0.5-5.9 0.5c-2.1 0-3.9-0.3-5.8-0.8-1.8-0.5-3.4-1.3-4.7-2.5-1.3-1.1-2.5-2.6-3.3-4.6-0.8-1.8-1.1-4.1-1.1-6.7 0-2.6 0.3-4.9 1.1-6.9q1.2-3 3-4.9 1.9-2 4.4-3c1.6-0.6 3.3-1 5.1-1 1.8 0 3.4 0.4 5.1 0.9 1.4 0.5 2.8 1.4 3.9 2.6 1.2 1.1 2 2.8 2.6 4.6 0.7 1.8 1 4.1 1 6.5v2.5h-18.9c0 1.3 0.4 2.5 0.9 3.5 0.5 0.9 1.1 1.6 1.9 2.3 0.9 0.6 1.8 0.9 2.8 1.3 1.2 0.3 2.3 0.3 3.5 0.3m-3-18.9c-0.8 0-1.6 0-2.3 0.5-0.6 0.5-1.3 0.8-1.8 1.3-0.5 0.5-1 1.2-1.1 2-0.4 0.8-0.5 1.5-0.7 2.5h11.3c0-0.9 0-1.7-0.3-2.5-0.3-0.8-0.5-1.5-1-2-0.5-0.5-1-1-1.6-1.3-0.7-0.3-1.5-0.5-2.3-0.5"/>
				<path class="s0" d="m535.5 923.9c-0.8 0.3-2 0.6-3.3 1-1.3 0.3-2.6 0.3-4.1 0.3-2.1 0-4.1-0.3-5.7-0.8-1.8-0.7-3.5-1.5-4.8-2.6-1.3-1.2-2.5-2.8-3.1-4.6-0.8-1.8-1.2-4-1.2-6.6 0-2.6 0.5-5.1 1.4-7.1 0.8-1.9 1.9-3.6 3.4-4.7 1.5-1.3 3-2.2 4.8-2.8 1.8-0.7 3.4-0.8 5.2-0.8 1.8 0 2.5 0 3.8 0.3 1.1 0 2.3 0.5 3.3 1v5.7c-0.8-0.3-1.8-0.6-2.8-1-1 0-2-0.3-3.1-0.3-1.2 0-2.2 0-3.3 0.5-1 0.3-2 0.8-2.8 1.6q-1.2 1.3-2 3c-0.5 1.3-0.6 2.8-0.6 4.4 0 1.7 0 2.5 0.5 3.6 0.4 1.2 0.8 2.2 1.6 2.8 0.7 0.9 1.5 1.5 2.6 2 1 0.5 2.3 0.7 3.8 0.7 1.5 0 2.5 0 3.4-0.4q1.5-0.5 3-1z"/>
				<path class="s0" d="m554.4 925.2c-3 0-5.3-0.5-7.2-1.5-2-1-3.3-2.3-4.3-3.9-1-1.7-0.8-1.8-1.2-3-0.3-1.1-0.3-2.3-0.3-3.6v-17.5h7.1v16.9q0 1.4 0 2.4c0 0.7 0.3 1.3 0.6 1.8q0.8 1.3 2 2c0.8 0.5 2 0.7 3.1 0.7 1.2 0 2.3 0 3.3-0.7 1-0.5 1.6-1.1 2-2.1 0.5-1 0.6-2.3 0.6-4v-17h7.1v17.5c0 2.3-0.4 4.3-1.2 5.9-0.8 1.7-1 1.8-1.8 2.5-0.6 0.8-1.6 1.3-2.6 2-1 0.5-2.1 0.9-3.3 1.1-1.3 0.3-2.6 0.5-4.1 0.5"/>
				<path class="s0" d="m592 901.2h-0.7c-2.1 0-4.1 0.4-5.7 1-1.7 0.7-3 1.7-3.8 3v19.3h-7.1v-28.7h5.9l0.7 4q1.2-2.3 3.4-3.5c1.5-0.8 3.3-1.3 5.3-1.3 2 0 1.3 0 1.8 0v6.2z"/>
				<path class="s0" d="m596.1 881.5h7.4v7.8h-7.4zm0.1 14.1h7.1v28.7h-7.1z"/>
				<path class="s0" d="m628.7 924.5c-0.8 0-1.8 0.5-2.8 0.5-0.9 0-2.1 0-3.1 0-2.4 0-4.4-0.3-5.9-1.1-1.5-0.8-2.6-2-3.3-3.5-0.5-0.9-0.6-2.4-0.6-4.2v-15h-5.4v-5.7h5.4v-8h7v8h8.4v5.7h-8.4v14c0 1.1 0 2 0.5 2.5 0.7 0.9 1.8 1.3 3.6 1.3 1.8 0 1.7 0 2.5 0 0.8 0 1.6-0.4 2.3-0.5v6z"/>
				<path class="s0" d="m630.7 895.7h7.5l4.3 10.5q2.5 5.9 3.5 8.8c0.5-1.5 1.4-4.2 3.1-8.2l4.4-11h7.7l-18.5 42.7h-6.9l6.6-15.4-11.9-27.3h0.2z"/>
				<path class="s0" d="m701.8 914.4h-15l-3.9 10.1h-7.7l15.7-39.7h6.8l15.7 39.7h-7.7zm-7.5-20c-1.4 4.1-2.7 7.7-3.8 10.5l-1.3 3.6h10.3l-1.3-3.6c-1.2-2.8-2.3-6.2-3.8-10.5z"/>
				<path class="s0" d="m730.8 925.2c-2.9 0-5.2-0.5-7.2-1.5-2-1-3.3-2.3-4.3-3.9-1-1.7-0.8-1.8-1.1-3-0.3-1.1-0.3-2.3-0.3-3.6v-17.5h7v16.9q0 1.4 0 2.4c0 0.7 0.3 1.3 0.7 1.8q0.7 1.3 1.9 2c0.9 0.5 2 0.7 3.2 0.7 1.1 0 2.3 0 3.2-0.7 1-0.5 1.7-1.1 2-2.1 0.5-1 0.7-2.3 0.7-4v-17h7v17.5c0 2.3-0.3 4.3-1.1 5.9-0.8 1.7-1 1.8-1.8 2.5-0.7 0.8-1.7 1.3-2.7 2-0.9 0.5-2.1 0.9-3.2 1.1-1.4 0.3-2.7 0.5-4.1 0.5"/>
				<path class="s0" d="m768.9 924.5c-0.8 0-1.8 0.5-2.8 0.5-1 0-2.1 0-3.1 0-2.5 0-4.4-0.3-5.9-1.1-1.5-0.8-2.6-2-3.3-3.5-0.5-0.9-0.7-2.4-0.7-4.2v-15h-5.4v-5.7h5.4v-8h7.1v8h8.4v5.7h-8.4v14c0 1.1 0 2 0.5 2.5 0.6 0.9 1.8 1.3 3.6 1.3 1.8 0 1.6 0 2.5 0 0.8 0 1.6-0.4 2.3-0.5v6z"/>
				<path class="s0" d="m781.7 893.2v3.6c0 1 0 1.8-0.3 2.6 0.5-0.5 1-1.1 1.4-1.6q1-0.7 2-1.5 1-0.5 2.5-1c1-0.3 1.9-0.3 3.1-0.3 1.1 0 1.8 0 2.8 0.3 0.8 0 1.8 0.5 2.4 0.9 0.9 0.3 1.5 0.9 2.2 1.4 0.6 0.7 1.1 1.3 1.6 2.3 0.4 0.8 0.7 1.7 0.8 2.7 0.2 0.9 0.4 2.1 0.4 3.4v18.5h-7.1v-19.6c0-0.5 0-1-0.5-1.5-0.5-0.8-1-1.5-1.8-1.8-0.8-0.4-1.6-0.5-2.6-0.5-1 0-2.6 0.3-3.8 1-1.1 0.6-2.3 1.6-3.1 2.8v19.8h-7.1v-43h7.1v11.8z"/>
				<path class="s0" d="m835.9 910.1c0 2.3-0.4 4.3-1 6.2-0.7 1.8-1.7 3.5-3 4.8-1.3 1.3-2.8 2.3-4.6 3.1-1.8 0.7-3.7 1.2-5.9 1.2-2.1 0-4.2-0.4-6.1-1.2-1.8-0.6-3.2-1.8-4.5-3.1-1.4-1.3-2.2-3-2.8-4.8-0.7-1.8-1-3.9-1-6.2 0-2.3 0.3-4.3 1-6.2 0.6-1.8 1.6-3.5 2.9-4.8 1.3-1.3 2.8-2.3 4.6-3.1 1.8-0.7 3.8-1.2 5.9-1.2 2.2 0 4.3 0.4 6.1 1.2 1.8 0.6 3.3 1.8 4.6 3.1 1.3 1.3 2.1 3 2.8 4.8 0.6 1.8 1 3.9 1 6.2zm-7.3 0c0-1.5 0-3-0.5-4.1-0.4-1.1-0.8-2.1-1.4-3-0.7-0.8-1.5-1.3-2.3-1.8-0.8-0.3-1.8-0.6-3-0.6-1.1 0-2 0-2.8 0.6-0.8 0.4-1.6 1-2.3 1.8q-1 1.3-1.4 3c-0.4 1.1-0.5 2.5-0.5 4.1 0 1.6 0 3 0.5 4.1 0.4 1.2 0.8 2.1 1.4 3 0.7 0.8 1.5 1.3 2.3 1.8 0.8 0.3 1.8 0.6 3 0.6 1.1 0 2 0 2.9-0.6 0.9-0.4 1.7-1 2.3-1.8q1-1.3 1.5-3c0.3-1.1 0.5-2.5 0.5-4.1"/>
				<path class="s0" d="m859.2 901.2h-0.7c-2.1 0-4.1 0.4-5.7 1-1.7 0.7-3 1.7-3.8 3v19.3h-7.1v-28.7h5.8l0.6 4q1.3-2.3 3.5-3.5c1.5-0.8 3.3-1.3 5.2-1.3 2 0 1.3 0 1.8 0v6.2z"/>
				<path class="s0" d="m863.4 881.5h7.4v7.8h-7.4zm0.2 14.1h7.1v28.7h-7.1z"/>
				<path class="s0" d="m896.1 924.5c-0.8 0-1.8 0.5-2.8 0.5-1 0-2.1 0-3.1 0-2.5 0-4.4-0.3-5.9-1.1-1.5-0.8-2.6-2-3.3-3.5-0.5-0.9-0.7-2.4-0.7-4.2v-15h-5.4v-5.7h5.4v-8h7.1v8h8.4v5.7h-8.4v14c0 1.1 0 2 0.5 2.5 0.6 0.9 1.8 1.3 3.6 1.3 1.8 0 1.6 0 2.5 0 0.8 0 1.6-0.4 2.3-0.5v6z"/>
				<path class="s0" d="m898.1 895.7h7.5l4.3 10.5q2.4 5.9 3.4 8.8c0.5-1.5 1.5-4.2 3.2-8.2l4.4-11h7.7l-18.5 42.7h-6.9l6.5-15.4-11.8-27.3h0.2z"/>
			</g>
		</g>
	</g>
</svg>