<?xml version="1.0" encoding="UTF-8"?>
<svg id="Layer_1" xmlns="http://www.w3.org/2000/svg" viewBox="0 0 24 12.62">
  <defs>
    <style>
      .cls-1 {
        fill: #ffcd05;
      }
    </style>
  </defs>
  <path class="cls-1" d="M7.01,4.52h-.94l-.51,2.65h.84c.56,0,.97-.1,1.24-.31.27-.21.46-.56.55-1.05.09-.47.05-.8-.12-.99-.18-.19-.52-.29-1.05-.29ZM12,0C5.37,0,0,2.83,0,6.31s5.37,6.31,12,6.31,12-2.83,12-6.31S18.63,0,12,0ZM8.74,7.45c-.26.25-.57.44-.92.55-.34.11-.76.16-1.28.16h-1.18l-.33,1.68h-1.38l1.23-6.33h2.65c.8,0,1.38.21,1.74.63.37.42.48,1,.33,1.75-.06.3-.16.58-.31.85-.14.26-.33.49-.56.7ZM12.76,8.17l.54-2.8c.06-.32.04-.54-.07-.65-.11-.12-.34-.17-.69-.17h-1.09l-.7,3.62h-1.37l1.23-6.33h1.37l-.33,1.68h1.22c.77,0,1.3.13,1.59.4s.38.7.26,1.3l-.57,2.94h-1.39ZM20.36,5.9c-.06.3-.16.58-.31.85-.14.26-.33.49-.56.7-.26.25-.57.44-.92.55-.34.11-.76.16-1.29.16h-1.18l-.33,1.68h-1.38l1.23-6.33h2.65c.8,0,1.38.21,1.74.63.37.42.48,1,.33,1.75ZM17.77,4.52h-.94l-.52,2.65h.84c.56,0,.97-.1,1.24-.31.27-.21.45-.56.55-1.05.09-.47.05-.8-.12-.99s-.52-.29-1.05-.29Z"/>
</svg>