<?xml version="1.0" encoding="UTF-8"?>
<svg id="Layer_1" xmlns="http://www.w3.org/2000/svg" viewBox="0 0 288.51 288.52">
  <defs>
    <style>
      .cls-1 {
        fill: #ffcd05;
      }
    </style>
  </defs>
  <path class="cls-1" d="M0,288.52h84.89v-33.94h16.96v33.94h16.95v-84.85c-30.39-.04-71.58,0-101.81,0v-16.99h118.77v101.84h17.01v-118.8H0v50.93h101.85v16.96H0v50.91ZM17,271.56h0v-16.98h50.9v16.98H17Z"/>
  <polygon class="cls-1" points="271.55 288.52 271.55 288.52 271.55 186.68 254.59 186.68 254.59 288.52 203.65 288.52 203.65 169.72 220.65 169.72 220.65 271.56 237.61 271.56 237.61 169.72 288.51 169.72 288.51 288.52 271.55 288.52"/>
  <polygon class="cls-1" points="169.73 288.52 169.73 288.52 186.71 288.52 186.71 152.77 288.51 152.77 288.51 135.78 169.73 135.78 169.73 288.52"/>
  <path class="cls-1" d="M287.88,0h-84.49v33.82h-16.92V0h-16.88v84.49c30.28.07,71.27,0,101.38,0v16.91h-118.3V0h-16.9v118.29h152.11v-50.68h-101.4v-16.91h101.4V0ZM270.97,16.91h0v16.91h-50.68v-16.91h50.68Z"/>
  <polygon class="cls-1" points="118.81 0 118.81 0 118.81 152.77 0 152.77 0 135.78 101.86 135.78 101.86 0 118.81 0"/>
  <polygon class="cls-1" points="17 0 0 0 0 118.82 50.9 118.82 50.9 16.99 67.9 16.99 67.9 118.82 84.89 118.82 84.89 0 33.95 0 33.95 101.83 17 101.83 17 0"/>
</svg>