<svg version="1.2" xmlns="http://www.w3.org/2000/svg" viewBox="0 0 764.21 229.6" width="765" height="230">
	<title>Digital Government Authority-01 (1)</title>
	<style>
		.s0 { fill: #ffcd05 } 
	</style>
	<path fill-rule="evenodd" class="s0" d="m77.8 133.2c-0.3 2.5-1 4.7-1.9 6.4-1 1.7-2.2 3.1-3.6 4.2-1.4 1.1-2.9 1.7-4.6 2.2-1.7 0.4-3.6 0.6-5.5 0.6-1.9 0-3.6 0-5.1-0.6-1.6-0.4-3-1-4.3-2.2-1-0.9-2-2.2-2.6-3.9-0.6-1.6-0.6-3.6-0.4-5.8 0.1-1.3 0.6-2.9 1.3-4.8 0.6-1.9 1.5-3.8 2.8-5.5l5.9 2.2c-0.4 1-0.7 1.7-1.1 2.3-0.3 0.7-0.6 1.3-0.7 1.9-0.1 0.7-0.3 1.3-0.4 1.7-0.1 0.6-0.3 1.3-0.3 1.7-0.1 1.3-0.1 2.3 0.1 3.3 0.3 0.9 0.7 1.5 1.3 2.2 0.7 0.4 1.4 0.9 2.2 1 0.8 0 1.7 0.3 2.6 0.3 2.2 0 3.9-0.6 5.1-1.6 1.3-1.1 2-3 2.3-5.5l4.4-34h6.9z"/>
	<path fill-rule="evenodd" class="s0" d="m96.7 134.9c-0.1 0.9-0.3 1.6-0.3 2.2-0.1 0.4-0.1 0.6-0.3 0.6-1.6 0-3.2 0-4.5-0.3-1.4 0-2.7-0.6-3.7-1.3-1.1-0.6-1.9-1.3-2.5-2.5-0.5-1.1-0.7-2.3-0.5-3.8l3.9-30h7l-3.6 27.7c-0.1 0.7-0.1 1.6 0 2.2 0.1 0.6 0.4 1.1 0.7 1.4 0.4 0.3 0.8 0.4 1.3 0.6 0.4 0 1 0 1.6 0 0.5 0 0.7 0.3 0.7 0.7 0.4 0.7 0.4 1.2 0.2 2.4z"/>
	<path fill-rule="evenodd" class="s0" d="m96.1 137.7c-0.7 0-1.4 0-1.9-0.6-0.4-0.5-0.4-1.1-0.4-2 0.1-1 0.3-1.7 0.7-2.2 0.3-0.5 0.7-0.8 1.4-0.8h1.3c0.7 0 1.3 0 1.6-0.3 0.4-0.3 0.8-0.6 1.1-0.9 0.3-0.5 0.4-1 0.6-1.4 0.1-0.6 0.4-1.3 0.6-2 0.4-1.9 1-3.6 1.7-5.2 0.8-1.5 1.7-2.9 3-4.1 1-1 2.5-2 3.9-2.6 1.5-0.6 3.1-0.9 4.8-0.9 1.7 0 3.6 0.3 4.9 0.9 1.4 0.6 2.7 1.4 3.4 2.5q1.4 1.6 1.9 3.8c0.3 1.4 0.3 3 0.1 4.8-0.1 0.6-0.1 1.2-0.3 1.8-0.1 0.7-0.3 1.1-0.4 1.7 0.3 0.7 0.9 1.3 1.7 1.6 0.7 0.4 1.6 0.6 2.6 0.6 0.9 0 0.7 0.4 0.7 0.8 0.1 0.4 0.1 1.2 0 2.2-0.1 0.6-0.1 1-0.1 1.6 0 0.5-0.1 0.6-0.1 0.9 0 0.3-0.1 0.3-0.1 0.3 0 0 0 0-0.1 0-0.6 0-1 0-1.9 0-0.6 0-1.2-0.3-2-0.4-0.6-0.3-1.2-0.6-1.9-1-0.6-0.5-1-1.1-1.6-1.7-1.3 1.2-2.8 2.2-4.3 2.8-1.5 0.6-3.1 0.7-4.8 0.7-1.7 0-3 0-4.2-0.6-1.3-0.4-2.5-1.2-3.7-2.3-0.9 1.1-2 1.7-2.9 2.2-1 0.3-2.3 0.6-3.9 0.6h-1.4zm17.9-17.5c-1 0-1.7 0.3-2.5 0.7-0.8 0.4-1.4 1.1-1.9 2-0.7 0.7-1.1 1.7-1.4 2.8-0.4 1.1-0.7 2.3-1 3.6 1 1 1.7 1.6 2.6 2q1.1 0.7 2.8 0.7c1.2 0 2.6-0.5 3.6-1.6 0.9-1 1.6-2.3 1.7-3.9 0.3-2 0-3.6-0.7-4.8-0.6-0.9-1.6-1.5-3.2-1.5z"/>
	<path fill-rule="evenodd" class="s0" d="m128.6 137.7c-0.9 0-1.6 0-1.9-0.6-0.3-0.5-0.4-1.1-0.4-2 0.1-1 0.3-1.7 0.7-2.2 0.3-0.5 0.8-0.8 1.4-0.8h4.6c-0.4-0.9-0.7-1.9-1-2.9-0.1-1-0.3-2-0.1-3 0.3-1.9 0.7-3.5 1.6-5.1 1-1.6 2-2.7 3.3-3.6 1.3-1 2.9-1.7 4.3-2.2 1.6-0.4 3.3-0.7 5-0.7 1.7 0 2.6 0.1 3.9 0.3 1.3 0.1 2.5 0.4 3.2 0.7l-1.9 5.5c-0.4-0.1-1.2-0.3-2.2-0.4-0.9-0.2-2-0.2-2.9-0.2-1 0-1.4 0.2-2.3 0.4-0.8 0.1-1.6 0.4-2.2 0.9-0.8 0.4-1.3 1.1-1.9 1.7-0.5 0.7-1 1.7-1 2.8-0.3 1.9 0.1 3.3 1.3 4.5 1 1 2.6 1.5 4.8 1.5h7l-0.8 5.8h-22.6v-0.4z"/>
	<path fill-rule="evenodd" class="s0" d="m166.6 99.3c-0.3-1-0.4-1.7-0.4-2.5 0.1-1.6 0.9-2.9 2-3.8 1-1 2.6-1.4 4.3-1.4 1.7 0 0.9 0 1.3 0.1 0.5 0 1.1 0.1 1.6 0.3l-1 2.9c-0.7-0.3-1.4-0.3-2.2-0.3-0.9 0-1.7 0.1-2.2 0.6-0.6 0.5-0.8 0.9-1 1.7-0.2 0.7 0.1 1.3 0.6 1.9 0.6 0.5 1.3 0.6 2.2 0.6h3.2l-0.3 2.9h-10.4l0.3-2.9h2zm14.9 34.9c-0.9 1.3-2.2 2-3.5 2.7-1.4 0.4-3.2 0.7-5.2 0.7h-16.3l0.7-5.8h13.4c2 0 3.6-0.4 4.5-1.4 1-0.9 1.6-2.5 1.9-4.8l3.3-25.9h6.9l-3.4 27.2c-0.1 1.5 0.2 2.6 1.1 3.5 0.9 1 2.2 1.4 4 1.4 1.8 0 0.9 0 1 0.6 0.2 0.5 0.2 1.1 0.2 2.3-0.2 1.2-0.4 2-0.5 2.3-0.1 0.3-0.3 0.6-0.4 0.6q-0.9 0-2.2 0c-0.8 0-1.6-0.3-2.2-0.6-0.6-0.3-1.3-0.7-1.9-1.1-0.4-0.3-0.9-0.9-1.4-1.6zm-15.9-28.7h7l-3.2 23.9h-6.9z"/>
	<path fill-rule="evenodd" class="s0" d="m189 131.9c1.1 0 2 0 2.6-0.3 0.8 0 1.3-0.4 1.7-1 0.4-0.4 0.8-0.9 1-1.3 0.1-0.7 0.3-1.3 0.4-2l3.3-27.4h7l-3.6 28.6c-0.1 1.6-0.6 3-1 4.1-0.5 1.1-1.3 2-2.2 2.9-1 0.7-2.3 1.4-3.7 1.7-1.6 0.3-3.3 0.6-5.5 0.6-2.2 0-1.4 0-1.9-0.6-0.4-0.4-0.4-1.1-0.4-2 0.1-1 0.3-1.7 0.7-2.2 0.7-0.8 1.1-1.1 1.6-1.1z"/>
	<path fill-rule="evenodd" class="s0" d="m235.1 150.5c0.1-1 0.6-1.9 1.4-2.6 0.7-0.6 1.6-1 2.8-1 1.2 0 1.9 0.3 2.5 1 0.7 0.6 0.8 1.6 0.7 2.6-0.2 1.1-0.7 2-1.4 2.7-0.8 0.6-1.7 1-2.6 1-1 0-1.9-0.3-2.6-1-0.7-0.8-1-1.5-0.8-2.7zm-9.1 0c0.1-1 0.7-1.9 1.4-2.6 0.7-0.6 1.7-1 2.8-1 1.2 0 1.9 0.3 2.6 1 0.6 0.6 0.7 1.6 0.6 2.6-0.1 1.1-0.6 2-1.4 2.7-0.7 0.6-1.6 1-2.6 1-0.9 0-1.9-0.3-2.5-1-0.7-0.8-1-1.5-0.9-2.7zm0.9-20.8c-0.3 2.3 0.4 4.2 2.2 5.4 1.7 1.2 4.3 1.7 8.1 1.7 3.8 0 3.3 0 4.6-0.4 1.4-0.3 2.5-0.4 3.6-0.7 0.9-0.3 1.7-0.7 2.3-1.3 0.4-0.4 0.8-0.9 1-1.2 0-0.7-0.4-1.3-1.3-2-0.9-0.8-2.3-1.6-4.2-2.7-2-1-3.6-2.3-4.5-3.5-1-1.3-1.3-3-1.1-4.9 0.1-1.2 0.6-2.5 1.3-3.8 0.6-1 1.6-2.2 2.6-3.1 1.1-1 2.5-1.6 4-2 1.6-0.4 3.4-0.8 5.3-0.8h1.3c0.5 0 1.1 0.2 1.7 0.2 0.6 0.1 1.1 0.1 1.7 0.3 0.4 0.1 0.9 0.3 1.4 0.4l-1.9 5.1c-0.4-0.1-1.1-0.3-1.9-0.4-0.8-0.1-1.7-0.1-2.5-0.1-0.9 0-1.3 0-1.9 0.1-0.7 0.1-1.4 0.3-2 0.7-0.7 0.3-1.3 0.6-1.6 1-0.4 0.4-0.6 1.1-0.8 1.7 0 0.4 0 0.9 0.4 1.4 0.3 0.4 0.6 0.9 1 1.3 0.4 0.4 1.1 1 1.7 1.3 0.6 0.4 1.3 0.7 2 1 0.9 0.5 1.7 1.1 2.5 1.6 0.8 0.4 1.4 1.1 2 1.7 0.4 0.6 1 1.3 1.3 2 0.3 0.7 0.3 1.6 0.3 2.5-0.1 1.6-0.7 2.9-1.7 4.1-0.9 1.3-2.2 2.3-3.7 3.2-1.5 0.9-3.5 1.6-5.8 2-2.2 0.4-4.8 0.7-7.5 0.7-2.8 0-5.5 0-7.6-0.6-2.2-0.4-4-1.3-5.6-2.2-1.6-1.1-2.5-2.3-3.2-3.9-0.7-1.6-0.8-3.6-0.5-5.8 0.1-1.3 0.7-2.6 1.3-4.5 0.6-1.7 1.6-3.6 2.8-5.5l5.9 2.3c-0.6 1.3-1.2 2.5-1.9 3.9-0.7 1.6-1.1 2.6-1.1 3.8z"/>
	<path fill-rule="evenodd" class="s0" d="m268.4 131.9c1.7 0 3-0.3 3.7-1 1-0.7 1.4-1.9 1.7-3.8v-1.3c0.2-1.7 0-3.1-1.1-3.9-1.1-0.9-2.7-1.4-4.9-1.4h-4.8l0.7-5.7h6.2c2.2 0 3.9 0.3 5.5 0.7 1.6 0.4 2.6 1.3 3.6 2 0.9 0.9 1.5 1.9 1.9 3.2 0.3 1.2 0.4 2.5 0.3 3.8l-0.4 3.5c-0.5 3.5-1.4 6-3 7.4-1.6 1.6-4 2.3-7.3 2.3h-12.6l0.8-5.8z"/>
	<path fill-rule="evenodd" class="s0" d="m294.2 141c1.1 0 1.9 0 2.9 0 0.7 0 1.5-0.4 2-0.5 0.6-0.3 1-0.6 1.3-1 0.3-0.4 0.5-1.1 0.7-1.7h-4.9c-1.7 0-3.2 0-4.5-0.6-1.4-0.4-2.5-1.1-3.4-1.9-0.9-1-1.5-2-2-3.5-0.4-1.4-0.4-2.9-0.3-4.8 0.1-1.6 0.6-3.2 1.4-4.8 0.6-1.5 1.6-2.8 2.8-4.1 1.3-1.2 2.7-2 4.2-2.8 1.6-0.6 3.4-1.1 5.5-1.1 2.1 0 2.9 0.4 4.2 0.8 1.3 0.4 2.5 1.2 3.4 2 0.9 0.9 1.6 2 2 3.4 0.4 1.4 0.4 3 0.3 4.9l-0.7 6.4h3.6c0.5 0 0.8 0 1 0.6 0.1 0.5 0.1 1.3 0.1 2.2-0.1 1.1-0.3 1.9-0.4 2.4-0.1 0.3-0.3 0.4-0.4 0.4h-4.7c-0.4 1.6-1 2.9-1.9 4.2-0.7 1-1.9 2-3.1 2.8-1.3 0.8-2.7 1.3-4.2 1.6-1.6 0.3-3.3 0.4-5.2 0.4-1.9 0-2.2 0-3.3 0-1 0-2.2-0.3-3.1-0.6l1.7-5.5c0.7 0 1.5 0.3 2.5 0.4 0.6 0.6 1.6 0.6 2.5 0.6zm-0.9-15c-0.3 1.9 0 3.5 0.7 4.4 0.7 1 2 1.4 3.9 1.4h4l0.7-6c0.1-0.7 0.1-1.6 0-2.2 0-0.6-0.3-1.3-0.4-1.9-0.3-0.6-0.6-0.9-1.2-1.2-0.5-0.4-1.3-0.5-1.9-0.5q-1 0-1.9 0.3c-0.7 0.2-1.3 0.7-1.7 1.1-0.4 0.4-1 1.1-1.4 1.9-0.5 0.8-0.8 1.7-0.8 2.7z"/>
	<path fill-rule="evenodd" class="s0" d="m312.7 137.7c-0.9 0-1.5-0.3-1.9-0.7-0.3-0.5-0.4-1.1-0.4-2 0.1-1 0.3-1.7 0.8-2.2 0.3-0.5 0.7-0.8 1.3-0.8h5.5c0.9 0 1.9 0 2.6 0 0.8 0 1.4-0.3 1.9-0.4-0.7-0.7-1.3-1.6-1.9-2.2-0.6-0.6-1-1.3-1.7-1.7-0.4-0.4-1-1-1.6-1.6-0.7-0.4-1.4-1-2.3-1.6 0-0.3 0.1-0.7 0.3-1.3 0.1-0.7 0.3-1.3 0.4-1.9 0.1-0.6 0.3-1.3 0.6-1.7 0.1-0.4 0.3-0.9 0.4-1.3 0.7-0.3 1.4-0.7 2.4-1 0.9-0.3 1.8-0.8 2.9-1.1 1.1-0.3 2.2-0.6 3.3-0.7 1-0.1 2.2-0.3 3.2-0.3 1.7 0 3.2 0.1 4.5 0.4 1.4 0.3 2.7 0.7 3.6 1.6 1 0.6 1.7 1.3 2.3 2.5 0.5 1 0.7 2.2 0.5 3.5-0.1 0.9-0.5 1.7-0.8 2.6-0.4 1-1 1.7-1.7 2.5-0.6 0.8-1.5 1.6-2.3 2.3-0.9 0.8-1.9 1.4-2.9 1.9 0.4 0 0.9 0 1.7 0.4h7c0.4 0 0.7 0 1 0.6 0.1 0.4 0.1 1.3 0.1 2.2-0.1 1.3-0.4 2-0.5 2.3-0.1 0.3-0.3 0.4-0.4 0.4h-7.1c-1.9 0-3.3 0-4.7-0.6-1.2-0.3-2.3-0.7-2.9-1.4-1.3 0.7-2.8 1.1-4.3 1.4-1.6 0.3-3.3 0.6-4.9 0.6h-3.9v-0.6zm15.2-17.6c-0.6 0-1.3 0-1.9 0.1-0.6 0.1-1.3 0.1-1.7 0.4-0.6 0.1-1 0.3-1.6 0.4-0.4 0.1-0.7 0.3-0.9 0.4 1.3 1 2.5 2.3 3.3 3.6 0.9 1.2 1.6 2.3 2.3 3.5 0.4-0.3 1-0.6 1.7-1 0.6-0.4 1-0.9 1.5-1.4 0.5-0.4 1-0.9 1.1-1.5 0.3-0.5 0.4-1.1 0.6-1.7 0-0.3 0-0.7-0.1-1-0.1-0.3-0.3-0.6-0.7-0.9-0.3-0.3-0.8-0.4-1.4-0.7-0.6-0.2-1.3-0.2-2.2-0.2z"/>
	<path fill-rule="evenodd" class="s0" d="m357.6 137.7c-1.7 0-3.2-0.3-4.3-0.7-1.3-0.7-2-1.4-2.6-2.4-0.9 1.1-2.2 1.9-3.9 2.4-1.7 0.4-3.7 0.7-6.3 0.7-2.6 0-1.3 0-1.9-0.6-0.4-0.5-0.4-1.1-0.4-2 0.1-1 0.3-1.7 0.7-2.2 0.5-0.5 0.8-0.8 1.4-0.8 1.9 0 3.3-0.3 4.2-0.9 1-0.7 1.4-1.9 1.7-3.8l1.1-8h6.9l-1.1 8.6c0 0.6-0.1 1.1 0 1.6 0 0.4 0.2 0.9 0.5 1.3 0.1 0.3 0.6 0.6 1 0.9 0.4 0 1.1 0.3 1.9 0.3 1.3 0 2-0.3 2.6-0.9 0.7-0.7 1.1-1.9 1.3-3.9l1.1-8h6.9l-1.1 8.6c0 0.6-0.1 1.1 0 1.6 0 0.4 0.2 0.9 0.4 1.3 0.1 0.3 0.6 0.6 1 0.9 0.4 0 1.1 0.3 1.9 0.3 1.3 0 2.2-0.3 2.6-0.9 0.7-0.7 1-1.9 1.3-3.8l1.6-12.5h6.9l-1.6 12.3c-0.1 1.3 0.2 2.6 1.1 3.5 0.9 1 2.2 1.4 4 1.4 1.8 0 0.9 0 1.1 0.6 0.1 0.5 0.1 1.1 0.1 2.3-0.1 1.2-0.4 2-0.5 2.3-0.1 0.3-0.3 0.6-0.4 0.6-0.6 0-1.4 0-2 0-0.7 0-1.4-0.3-2.2-0.4-0.7-0.3-1.4-0.6-2-1.1-0.6-0.4-1-0.9-1.4-1.5-0.9 1-1.9 1.8-3.1 2.5-1.3 0.4-2.6 0.7-4.2 0.7-1.6 0-3.2-0.3-4.3-0.7-1.1-0.7-2-1.4-2.4-2.3-2.1 1.6-4.5 2.8-7.6 2.8z"/>
	<path fill-rule="evenodd" class="s0" d="m386.5 131.9c1.1 0 2 0 2.6-0.3 0.8 0 1.3-0.4 1.7-1 0.4-0.4 0.8-0.9 1-1.3 0.1-0.7 0.3-1.3 0.4-2l3.3-27.4h7l-3.6 28.6c0 1.6-0.6 3-1 4.1-0.5 1.1-1.3 2-2.2 2.9-1 0.7-2.3 1.4-3.7 1.7-1.6 0.3-3.3 0.6-5.5 0.6-2.2 0-1.6 0-1.9-0.6-0.4-0.4-0.4-1.1-0.4-2 0.1-1 0.3-1.7 0.7-2.2 0.4-0.8 1-1.1 1.6-1.1z"/>
	<path fill-rule="evenodd" class="s0" d="m416.5 99.8l-4.9 37.9h-6.9l4.8-37.9z"/>
	<path fill-rule="evenodd" class="s0" d="m438.2 105.9c0-1 0.6-1.9 1.3-2.6 0.8-0.6 1.7-1.1 2.9-1.1 1.1 0 1.9 0.4 2.5 1.1 0.6 0.6 0.7 1.6 0.6 2.6 0 1.1-0.6 2-1.3 2.7-0.8 0.6-1.7 1-2.7 1-0.9 0-1.9-0.3-2.5-1-0.6-0.8-0.9-1.7-0.8-2.7zm-7.2 40.7q-1.6 0-2.8 0c-0.9 0-1.6-0.3-2-0.4l1.5-5.4c0.5 0 0.8 0 1.1 0 0.3 0 0.7 0 1.1 0 1.2 0 2.3-0.4 2.9-1.1 0.6-0.7 1-2 1.3-3.6l2.6-21.3h6.9l-2.2 17.2h4.3c0.5 0 0.8 0 1.1 0.6 0 0.5 0 1.3 0 2.3 0 1-0.3 1.9-0.4 2.2 0 0.3-0.3 0.6-0.5 0.6h-5.1c-0.3 1.9-0.7 3.3-1.4 4.5-0.6 1.1-1.3 2-2.3 2.9-0.9 0.6-1.9 1-2.9 1.3-1.1 0-2.1 0.1-3.3 0.1z"/>
	<path fill-rule="evenodd" class="s0" d="m446.3 137.7c-0.8 0-1.4 0-1.9-0.6-0.6-0.7-0.7-1.1-0.4-2 0-1 0.3-1.7 0.7-2.2 0.3-0.5 0.7-0.8 1.4-0.8h14.9c1.7 0 3.2-0.3 3.9-1 0.7-0.8 1.4-2 1.6-3.6v-1.4c0.5-3.6-1.3-5.3-5.5-5.3h-11.1l0.8-5.8 15.7-14.8 4.2 4.5-11.2 10.4h4c2 0 3.7 0.3 5.2 0.7 1.3 0.4 2.5 1.3 3.2 2 0.8 1 1.4 1.9 1.7 3.2 0.3 1.2 0.3 2.5 0 3.9l-0.4 3.4c-0.4 3.5-1.4 6-3.2 7.6-1.6 1.6-4 2.2-7.2 2.2h-16.6v-0.4h0.1z"/>
	<path fill-rule="evenodd" class="s0" d="m477.5 146.6q-1.6 0-2.8 0c-0.9 0-1.6-0.3-2-0.4l1.6-5.4c0.4 0 0.7 0 1 0 0.3 0 0.7 0 1.1 0 1.2 0 2.3-0.4 2.9-1.1 0.6-0.7 1.1-2 1.3-3.6l2.8-21.3h7l-2.3 17.2h4.4c0.4 0 0.7 0 0.9 0.6 0 0.5 0 1.3 0 2.3 0 1-0.3 1.9-0.4 2.2 0 0.3-0.3 0.6-0.4 0.6h-5.2c-0.3 1.9-0.7 3.3-1.4 4.5-0.6 1.1-1.3 2-2.3 2.9-0.9 0.6-1.9 1-2.9 1.3-1.3 0-2.3 0.1-3.4 0.1z"/>
	<path fill-rule="evenodd" class="s0" d="m492.7 137.7c-0.8 0-1.6 0-1.9-0.6-0.4-0.5-0.4-1.1-0.4-2 0-1 0.3-1.7 0.7-2.2 0.3-0.5 0.7-0.8 1.4-0.8h1.3c0.7 0 1.3 0 1.6-0.3 0.4-0.3 0.7-0.6 1.1-0.9 0.3-0.5 0.4-1 0.6-1.4 0-0.6 0.4-1.3 0.6-2 0.3-1.9 1-3.6 1.7-5.2 0.7-1.5 1.7-2.9 2.9-4.1 1.1-1 2.6-2 3.9-2.6 1.6-0.6 3.2-0.9 4.9-0.9 1.7 0 3.6 0.3 4.9 0.9 1.4 0.6 2.7 1.4 3.4 2.5q1.4 1.6 1.9 3.8 0.5 2.1 0 4.8c0 0.6 0 1.2-0.3 1.8 0 0.7-0.3 1.1-0.4 1.7 0.3 0.7 0.9 1.3 1.6 1.6 0.8 0.4 1.7 0.6 2.7 0.6 0.9 0 0.7 0.4 0.7 0.8 0 0.4 0 1.2 0 2.2 0 0.6 0 1 0 1.6 0 0.5 0 0.6 0 0.9 0 0.3 0 0.3 0 0.3-0.6 0-1.1 0-1.9 0-0.6 0-1.3-0.3-2-0.4-0.6-0.3-1.3-0.6-1.9-1-0.6-0.5-1-1.1-1.6-1.7-1.3 1.2-2.8 2.2-4.3 2.8-1.6 0.6-3.1 0.7-4.8 0.7-1.7 0-3 0-4.2-0.6-1.3-0.4-2.6-1.2-3.7-2.3-1 1.1-2 1.7-3 2.2-0.9 0.3-2.2 0.6-3.8 0.6h-1.4v-0.8zm17.9-17.6c-1 0-1.7 0.3-2.6 0.8-0.7 0.4-1.3 1-1.8 2-0.7 0.7-1.1 1.6-1.4 2.8-0.4 1.1-0.8 2.2-1 3.6 1 0.9 1.7 1.6 2.6 2q1.1 0.6 2.8 0.6c1.2 0 2.6-0.4 3.6-1.6 0.9-0.9 1.6-2.3 1.7-3.9 0.3-2 0-3.5-0.7-4.7-0.6-0.9-1.7-1.6-3.2-1.6z"/>
	<path fill-rule="evenodd" class="s0" d="m525 131.9c1 0 1.9 0 2.6-0.3 0.7 0 1.3-0.4 1.7-1 0.4-0.4 0.7-0.9 0.9-1.3 0-0.7 0.3-1.3 0.5-2l3.3-27.4h7l-3.6 28.6c0 1.6-0.6 3-1.1 4.1-0.4 1.1-1.2 2-2.2 2.9-0.9 0.7-2.2 1.4-3.7 1.7-1.5 0.3-3.2 0.6-5.4 0.6-2.2 0-1.6 0-1.9-0.6-0.4-0.4-0.4-1.1-0.4-2 0-1 0.3-1.7 0.7-2.2 0.6-0.8 1.1-1.1 1.6-1.1z"/>
	<path fill-rule="evenodd" class="s0" d="m555 99.8l-4.9 37.9h-6.9l4.8-37.9z"/>
	<path fill-rule="evenodd" class="s0" d="m29.1 169.3c-1.3-0.5-2.6-0.8-3.7-1.1-1.3 0-2.6-0.3-3.9-0.3-1.3 0-1.6 0-2.2 0-0.8 0-1.4 0.3-2 0.6-0.7 0.3-1.1 0.8-1.4 1.3-0.4 0.4-0.6 1-0.7 1.9-0.1 0.6 0 1.2 0.1 1.7 0.1 0.4 0.6 0.9 1 1.3 0.5 0.5 1.1 1 2 1.3 0.8 0.4 1.7 0.9 3 1.4 1.3 0.6 2.6 1.2 3.9 1.9 1 0.6 2.2 1.3 2.9 2.3 0.8 0.9 1.4 1.9 1.7 2.9 0.3 1.1 0.4 2.5 0.1 4.1-0.1 1.9-0.7 3.5-1.7 4.9-0.9 1.3-2 2.5-3.3 3.4-1.4 1-3 1.6-4.6 2-1.7 0.5-3.3 0.7-5.1 0.7-1.8 0-3.4 0-5.3-0.5-1.9-0.3-3.7-0.7-5.5-1.3l2.3-6.1c1.5 0.6 3.2 1.2 4.8 1.6 1.6 0.3 3.2 0.4 4.3 0.4 2 0 3.6-0.3 4.8-1.1 1.1-0.6 1.9-1.7 2-3.1 0.2-0.7 0-1.3-0.1-1.9-0.1-0.4-0.6-1.1-1-1.6-0.4-0.4-1.3-1-2-1.4-0.7-0.4-1.9-0.9-3-1.3-1.3-0.7-2.6-1.3-3.6-1.9-1.1-0.7-2-1.4-2.9-2.3-0.7-1-1.3-1.9-1.7-3-0.3-1-0.4-2.3-0.1-3.8 0.3-1.9 0.8-3.5 1.7-4.8 1-1.4 2-2.5 3.4-3.3 1.4-0.7 2.8-1.4 4.3-1.9 1.6-0.3 3.2-0.6 4.6-0.6 1.5 0 3.4 0 5.2 0.3 1.6 0 3.1 0.6 4.3 1l-2.6 6.2z"/>
	<path fill-rule="evenodd" class="s0" d="m52 181.7c0.1-1.4-0.1-2.5-1-3.3-1-0.7-2.4-1.2-4.4-1.2-2 0-2 0-3.2 0.3-1.3 0.3-2.5 0.6-3.9 1l-0.6-5.1c1.2-0.5 2.6-0.8 4.3-1.1 1.6-0.3 3.2-0.4 4.6-0.4 4.3 0 7.5 0.9 9.4 2.6 1.9 1.9 2.5 4.4 2 7.7l-1.4 11.4c-0.1 0.9-0.1 2-0.3 3.1-0.1 1.1-0.1 2.2 0 3h-6.5c-0.2-0.4-0.2-1-0.2-1.7v-1.7h-0.1c-0.7 1.3-2 2.2-3.3 2.8-1.4 0.8-3.2 1.1-4.9 1.1-1.6 0-2.3 0-3.3-0.4-1.1-0.3-2.2-0.8-3-1.4-0.9-0.6-1.6-1.6-1.9-2.6-0.4-1.1-0.4-2.3-0.3-3.9 0.3-1.9 1-3.6 1.9-4.9 1.1-1.2 2.3-2.2 4-2.8 1.7-0.6 3.6-1 5.8-1.4 2.2-0.3 4.3-0.3 6.5-0.3v-0.8zm-1.7 5.1c-1.2 0-2.3 0-3.3 0-1.1 0-2 0.4-3 0.7-0.9 0.3-1.6 0.7-2.2 1.3-0.4 0.7-0.9 1.3-0.9 2.2-0.1 1.1 0.1 2 0.7 2.7q0.9 0.9 2.8 0.9c1.3 0 1.9 0 2.9-0.4 0.7-0.3 1.6-0.7 2-1.4 0.6-0.6 1-1.2 1.3-2 0.4-0.7 0.5-1.3 0.7-2.2l0.3-1.9h-1.3z"/>
	<path fill-rule="evenodd" class="s0" d="m82 199.5l0.4-3.6h-0.1c-0.9 1.4-2 2.3-3.7 3.1-1.6 0.8-3.2 1.1-4.9 1.1-1.7 0-3-0.3-4-0.7-1.3-0.5-2.2-1.1-3-2-0.7-0.8-1.2-1.9-1.5-3.2-0.4-1.3-0.4-2.5-0.1-4.1l2.3-17.9h7.2l-1.9 15.3c-0.1 1-0.1 2-0.1 2.9 0 1 0.1 1.6 0.4 2.2 0.4 0.7 0.8 1.1 1.4 1.4 0.6 0.3 1.4 0.4 2.3 0.4 1 0 1.4 0 2.2-0.4 0.8-0.3 1.4-0.6 2-1.3 0.7-0.6 1.1-1.3 1.6-2.3 0.4-0.9 0.8-2.2 1-3.6l1.9-14.7h7.2l-3.3 27.2h-7.2v0.2z"/>
	<path fill-rule="evenodd" class="s0" d="m119.4 161.6h7.3l-4.8 37.9h-7.2l0.4-3.5h-0.1c-1.2 1.4-2.6 2.5-4.2 3.1-1.6 0.7-3.1 1-4.6 1-1.5 0-3.4-0.3-4.8-1.1-1.4-0.7-2.4-1.6-3.2-2.9-0.7-1.3-1.4-2.8-1.6-4.5-0.3-1.7-0.3-3.6 0-5.5 0.3-2 0.8-3.9 1.6-5.7 0.7-1.7 1.7-3.2 2.8-4.5 1.1-1.3 2.6-2.2 4-3 1.6-0.7 3.3-1 5.2-1 1.9 0 2.9 0.3 4.3 0.7 1.4 0.7 2.3 1.6 3.3 2.9h0.1zm-15.6 24.2c-0.1 1.2-0.1 2.3-0.1 3.4 0.1 1.1 0.3 2 0.7 2.9 0.5 0.7 1 1.4 1.7 1.9 0.8 0.4 1.6 0.6 2.6 0.6 1.1 0 2 0 3-0.6 0.9-0.7 1.7-1.1 2.3-1.9 0.6-0.7 1.3-1.7 1.7-2.9q0.6-1.5 0.9-3.4c0.1-1.3 0.1-2.3 0-3.5q-0.1-1.6-0.9-2.8c-0.4-0.8-1.1-1.4-1.9-1.7-0.7-0.3-1.7-0.7-2.6-0.7-1 0-2 0-2.9 0.7-0.9 0.4-1.6 1-2.2 1.9-0.6 0.7-1 1.7-1.4 2.8-0.5 1-0.8 2-0.9 3.3z"/>
	<path fill-rule="evenodd" class="s0" d="m141 161.7l-0.7 6.3h-7.3l0.8-6.3zm-1.5 10.4l-3.4 27.2h-7.2l3.3-27.2z"/>
	<path fill-rule="evenodd" class="s0" d="m161.6 162.5h15.3c1.6 0 3.2 0 4.3 0.5 1.3 0.3 2.5 0.9 3.3 1.5 0.9 0.8 1.6 1.7 2 2.9 0.4 1 0.4 2.5 0.3 4.2-0.3 2.3-1.1 4.2-2.3 5.5-1.3 1.2-2.9 2.2-4.5 2.8 0.9 0.4 1.6 0.7 2.5 1.1 0.7 0.5 1.3 1 1.9 1.7 0.4 0.7 0.9 1.6 1 2.6 0.1 0.9 0.3 2.2 0.1 3.4-0.1 1.4-0.6 2.7-1.2 3.9-0.7 1.3-1.4 2.3-2.6 3.3-1 0.9-2.5 1.7-3.9 2.2-1.5 0.4-3.2 0.7-5.4 0.7h-15.6zm3.4 30.9h6.1c0.9 0 1.9 0 2.6 0 0.7 0 1.6-0.4 2.2-0.8 0.6-0.3 1.1-0.7 1.6-1.6 0.3-0.6 0.6-1.3 0.7-2.3 0.1-0.9 0-1.7-0.3-2.3-0.3-0.6-0.7-1-1.3-1.6-0.6-0.3-1.2-0.6-2.2-0.7-0.9 0-1.9 0-2.9 0h-5.2l-1.3 9.5zm2.1-15.8h5.2c2 0 3.6-0.3 4.9-1.1 1-0.7 1.9-1.9 2-3.5 0.1-1 0-1.6-0.1-2.3-0.3-0.6-0.7-0.9-1.1-1.2-0.4-0.3-1-0.4-1.7-0.6q-0.9 0-2.2 0h-5.6l-1.4 8.8z"/>
	<path fill-rule="evenodd" class="s0" d="m208 199.5l0.5-3.6h-0.1c-1 1.4-2 2.3-3.7 3.1-1.6 0.8-3.3 1.1-5 1.1-1.7 0-2.9-0.3-4-0.7-1.2-0.5-2.2-1.1-2.9-2-0.7-0.8-1.3-1.9-1.6-3.2-0.3-1.3-0.3-2.5-0.1-4.1l2.3-17.9h7.3l-1.9 15.3c-0.1 1-0.1 2-0.1 2.9 0 1 0.1 1.6 0.4 2.2 0.3 0.7 0.7 1.1 1.4 1.4 0.6 0.3 1.3 0.4 2.3 0.4 0.9 0 1.4 0 2.2-0.4 0.8-0.4 1.4-0.6 2-1.3 0.6-0.6 1-1.3 1.6-2.3 0.4-0.9 0.7-2.2 0.9-3.6l1.9-14.7h7.3l-3.4 27.2h-7.3z"/>
	<path fill-rule="evenodd" class="s0" d="m241.3 178.5c-1.4-0.4-2.6-0.9-3.7-1-1.2 0-2.3-0.3-3.4-0.3-1 0-1.8 0-2.6 0.4-0.6 0.3-1 0.9-1.2 1.7-0.2 0.7 0.1 1.3 0.7 1.9 0.6 0.4 1.9 1 3.7 1.5 1.3 0.5 2.6 1 3.5 1.4 1.1 0.4 1.9 1.1 2.7 1.9 0.6 0.6 1.2 1.6 1.3 2.3 0.4 1 0.4 1.9 0.2 3.2-0.2 1.5-0.7 2.8-1.6 3.9-0.8 1-1.7 1.9-3 2.5-1 0.6-2.3 1-3.7 1.4-1.3 0.3-2.8 0.4-4 0.4-1.6 0-3.3 0-5.1-0.4-1.7-0.4-3.3-0.8-4.6-1.4l2.2-5.5c1.3 0.6 2.9 1.1 4.3 1.4 1.6 0.3 2.8 0.4 3.9 0.4 1 0 2.5 0 3.2-0.4 0.8-0.4 1.3-1 1.4-1.9 0.1-0.7-0.1-1.4-0.9-2-0.8-0.4-2.2-1.1-4.2-1.7-2.9-0.9-4.7-2-5.9-3.5-1.1-1.2-1.6-2.9-1.4-4.8 0.1-1.4 0.6-2.6 1.4-3.8 0.7-1 1.5-1.9 2.6-2.6 1-0.7 2.3-1.3 3.6-1.6 1.2-0.3 2.6-0.4 3.9-0.4 1.2 0 2.9 0 4.5 0.3 1.6 0.3 2.9 0.6 4.2 1z"/>
	<path fill-rule="evenodd" class="s0" d="m259.3 161.7l-0.7 6.3h-7.4l0.7-6.3zm-1.3 10.4l-3.4 27.2h-7.3l3.4-27.2z"/>
	<path fill-rule="evenodd" class="s0" d="m272.2 172.1l-0.4 3.6h0.1c1-1.4 2-2.3 3.7-3.2 1.6-0.7 3.3-1 4.9-1 1.7 0 3 0 4 0.6 1.1 0.4 2.3 1.1 3 2 0.7 1 1.3 1.9 1.6 3.2 0.3 1.2 0.3 2.5 0.1 4.1l-2.3 17.9h-7.3l1.9-15.3c0.1-1.1 0.1-2 0.1-3 0-0.9-0.1-1.6-0.4-2.2-0.3-0.6-0.8-1-1.4-1.3-0.6-0.3-1.4-0.4-2.3-0.4-1 0-1.4 0-2.2 0.3-0.6 0.3-1.4 0.6-2 1.2-0.6 0.7-1.3 1.4-1.7 2.3-0.4 1-0.7 2.3-0.9 3.5l-1.9 14.7h-7.3l3.4-27.1h7.2z"/>
	<path fill-rule="evenodd" class="s0" d="m301.3 188c0 1.3 0.1 2.2 0.6 3.2 0.3 0.7 0.9 1.3 1.7 2 0.7 0.4 1.6 0.9 2.6 1 1 0.3 2 0.3 3.3 0.3 1.2 0 2.2 0 3.2 0 1.1 0 2.3-0.4 3.3-0.7v5.3c-1.2 0.4-2.4 0.7-3.8 0.8-1.4 0-2.8 0.3-4.3 0.3-2.5 0-4.5-0.3-6.3-1.1-1.9-0.6-3.3-1.6-4.3-2.9-1.1-1.3-1.9-2.6-2.3-4.5-0.5-1.7-0.7-3.6-0.4-5.8 0.4-2 0.8-3.9 1.7-5.7 0.8-1.7 1.9-3.3 3.3-4.5 1.3-1.3 2.8-2.2 4.6-3 1.7-0.6 3.7-1 5.8-1 2.1 0 3.7 0.3 5.2 0.9 1.3 0.7 2.6 1.6 3.3 2.7 1 1 1.4 2.5 1.7 4.2 0.3 1.7 0.3 3.4 0 5.4l-0.3 3h-18.6v0.2zm7.5-11.5c-1.6 0-3.1 0.7-4.5 1.7-1.2 1.1-2.2 2.6-2.6 4.5h11.7c0.3-1.9 0-3.4-1-4.5-0.6-1-1.9-1.7-3.6-1.7z"/>
	<path fill-rule="evenodd" class="s0" d="m343 178.5c-1.3-0.4-2.6-0.9-3.6-1-1.3 0-2.4-0.3-3.4-0.3-1.1 0-1.9 0-2.6 0.4-0.7 0.3-1.1 0.9-1.3 1.7-0.1 0.7 0.1 1.3 0.7 1.9 0.7 0.4 1.9 1 3.7 1.5 1.4 0.5 2.7 1 3.6 1.4 1 0.4 1.9 1.1 2.6 1.9 0.7 0.6 1.3 1.6 1.4 2.3 0.3 1 0.3 1.9 0.1 3.2-0.1 1.5-0.6 2.8-1.6 3.9-0.7 1-1.7 1.9-2.9 2.5-1.1 0.6-2.3 1-3.7 1.4-1.4 0.3-2.8 0.4-4 0.4-1.7 0-3.4 0-5.2-0.4-1.6-0.4-3.2-0.8-4.6-1.4l2.2-5.5c1.4 0.6 3 1.1 4.3 1.4 1.6 0.3 2.9 0.4 3.9 0.4 1.1 0 2.6 0 3.3-0.4 0.7-0.3 1.3-1 1.4-1.9 0.1-0.7-0.1-1.4-1-2-0.7-0.4-2.2-1.1-4.2-1.7-2.8-0.9-4.6-2-5.9-3.5-1-1.2-1.6-2.9-1.4-4.8 0.1-1.4 0.7-2.6 1.4-3.8 0.7-1 1.6-1.9 2.6-2.6 1.1-0.7 2.4-1.3 3.6-1.6 1.3-0.3 2.6-0.4 3.9-0.4 1.3 0 3 0 4.5 0.3 1.6 0.3 3 0.6 4.2 1z"/>
	<path fill-rule="evenodd" class="s0" d="m367.3 178.5c-1.3-0.4-2.6-0.9-3.6-1-1.3 0-2.3-0.3-3.4-0.3-1.1 0-1.9 0-2.6 0.4-0.7 0.3-1.1 0.9-1.3 1.7-0.1 0.7 0.1 1.3 0.7 1.9 0.7 0.4 1.9 1 3.7 1.5 1.4 0.5 2.7 1 3.6 1.4 1.1 0.4 1.9 1.1 2.6 1.9 0.7 0.6 1.3 1.6 1.4 2.3 0.3 1 0.3 1.9 0.1 3.2-0.1 1.5-0.6 2.8-1.6 3.9-0.7 1-1.7 1.9-2.9 2.5-1.1 0.6-2.3 1-3.7 1.4-1.4 0.3-2.8 0.4-4 0.4-1.7 0-3.4 0-5.2-0.4-1.6-0.4-3.2-0.8-4.6-1.4l2.2-5.5c1.4 0.6 3 1.1 4.3 1.4 1.6 0.3 2.9 0.4 3.9 0.4 1.1 0 2.6 0 3.3-0.4 0.7-0.4 1.3-1 1.4-1.9 0.1-0.7-0.1-1.4-1-2-0.7-0.4-2.2-1.1-4.2-1.7-2.8-0.9-4.6-2-5.9-3.5-1-1.2-1.6-2.9-1.4-4.8 0.2-1.4 0.7-2.6 1.4-3.8 0.8-1 1.6-1.9 2.6-2.6 1.1-0.7 2.4-1.3 3.6-1.6 1.3-0.3 2.7-0.4 3.9-0.4 1.3 0 3 0 4.5 0.3 1.6 0.3 3 0.6 4.2 1z"/>
	<path fill-rule="evenodd" class="s0" d="m415 169.3q-1.4-0.5-3.1-1c-1.2-0.3-2.3-0.3-3.3-0.3-1.9 0-3.7 0.3-5.3 1.1-1.5 0.6-2.9 1.5-4 2.8-1 1-2 2.5-2.6 4.2-0.6 1.6-1 3.3-1.4 5.1 0 1.6 0 3.2 0 4.8 0.4 1.6 0.8 2.9 1.7 4.1 0.8 1.3 1.9 2.2 3.3 2.8 1.4 0.7 2.9 1.1 4.9 1.1 2 0 2.7 0 3.7-0.3 1.1-0.3 2.2-0.7 3.3-1.1l0.4 5.8c-1.4 0.6-2.8 1-4.3 1.3-1.6 0.3-3.2 0.3-4.9 0.3-2.8 0-5.1-0.4-7.2-1.4-2.2-0.9-3.9-2.2-5.3-3.9-1.3-1.7-2.3-3.5-2.9-6-0.7-2.3-0.7-4.8-0.3-7.7 0.3-2.8 1-5.3 2.2-7.6 1-2.3 2.6-4.5 4.3-6.1 1.9-1.7 3.9-3 6.3-3.9 2.5-1 5.2-1.4 7.9-1.4 2.7 0 3.1 0 4.5 0.3 1.4 0.3 2.6 0.7 3.9 1.1l-1.9 5.9z"/>
	<path fill-rule="evenodd" class="s0" d="m424.5 188c0 1.3 0 2.2 0.6 3.2 0.3 0.7 1 1.3 1.7 2 0.7 0.4 1.6 0.9 2.6 1 1 0.3 2 0.3 3.3 0.3 1.3 0 2.2 0 3.3 0 1 0 2.2-0.4 3.2-0.7v5.3c-1.1 0.4-2.4 0.7-3.8 0.8-1.3 0-2.8 0.3-4.3 0.3-2.5 0-4.5-0.3-6.3-1.1-1.9-0.6-3.3-1.6-4.3-2.9-1.1-1.3-1.9-2.6-2.3-4.5-0.4-1.7-0.7-3.6-0.3-5.8 0.3-2 0.7-3.9 1.6-5.7 0.8-1.7 1.9-3.3 3.3-4.5 1.3-1.3 2.8-2.2 4.6-3 1.7-0.6 3.7-1 5.8-1 2.1 0 3.7 0.3 5.2 0.9 1.3 0.7 2.6 1.6 3.3 2.7 1 1 1.4 2.5 1.7 4.2 0.3 1.7 0.3 3.4 0 5.4l-0.3 3h-18.6v0.2zm7.8-11.5c-1.7 0-3.2 0.7-4.6 1.7-1.2 1.1-2.2 2.6-2.6 4.5h11.7c0.3-1.9 0-3.4-1-4.5-0.6-1-1.8-1.7-3.5-1.7z"/>
	<path fill-rule="evenodd" class="s0" d="m457.7 172.1l-0.4 3.6c1-1.4 2-2.3 3.7-3.2 1.6-0.7 3.3-1 4.9-1 1.7 0 3 0 4 0.6 1.1 0.4 2.2 1.1 3 2 0.7 1 1.2 1.9 1.6 3.2 0.3 1.2 0.3 2.5 0 4.1l-2.4 17.9h-7.2l1.9-15.3c0-1.1 0-2 0-3 0-0.9 0-1.6-0.4-2.2-0.4-0.6-0.8-1-1.4-1.3-0.6-0.3-1.4-0.4-2.3-0.4-1 0-1.4 0-2.2 0.3-0.7 0.3-1.4 0.6-2 1.2-0.7 0.7-1.3 1.4-1.7 2.3-0.4 1-0.7 2.3-1 3.5l-1.9 14.7h-7.2l3.4-27.1h7.2 0.1z"/>
	<path fill-rule="evenodd" class="s0" d="m479.8 172.1h4.2l1-7.3h7.2l-0.9 7.3h5.6l-0.8 5.5h-5.5l-1.6 12.1q0 1.4 0 2.2c0 0.5 0 0.9 0.3 1.3 0 0.3 0.4 0.4 0.7 0.6 0.4 0 1 0 1.6 0h1.3q0.5 0 1.2 0l-0.6 5.5c-0.6 0-1.4 0-2.3 0h-2.5c-1.7 0-3.2 0-4-0.5-1-0.3-1.7-0.7-2.2-1.5-0.5-0.7-0.8-1.4-1-2.6 0-0.9 0-2.2 0-3.4l1.9-14.1h-4.2l0.6-5.2z"/>
	<path fill-rule="evenodd" class="s0" d="m505 188c0 1.3 0 2.2 0.6 3.2 0.4 0.7 1 1.3 1.7 2 0.7 0.4 1.6 0.9 2.6 1 1 0.3 2 0.3 3.3 0.3 1.2 0 2.2 0 3.2 0 1.1 0 2.3-0.4 3.3-0.7v5.3c-1.1 0.4-2.4 0.7-3.8 0.8-1.3 0-2.8 0.3-4.3 0.3-2.5 0-4.5-0.3-6.3-1.1-1.9-0.6-3.3-1.6-4.3-2.9-1.1-1.3-1.9-2.6-2.3-4.5-0.5-1.7-0.7-3.6-0.4-5.8 0.4-2 0.8-3.9 1.7-5.7 0.8-1.7 1.9-3.3 3.3-4.5 1.4-1.3 2.8-2.2 4.6-3 1.7-0.6 3.7-1 5.8-1 2.1 0 3.7 0.3 5.2 0.9 1.3 0.7 2.6 1.6 3.3 2.7 1 1 1.4 2.5 1.7 4.2 0.3 1.7 0.3 3.4 0 5.4l-0.3 3h-18.6v0.2zm7.7-11.5c-1.7 0-3.2 0.7-4.6 1.7-1.2 1.1-2.2 2.6-2.6 4.5h11.7c0.3-1.9 0-3.4-1-4.5-0.7-1-2-1.7-3.5-1.7z"/>
	<path fill-rule="evenodd" class="s0" d="m546.2 177.3q-0.4 0-0.9 0h-1.1c-0.9 0-1.7 0-2.5 0.4-0.7 0.3-1.6 0.7-2.3 1.6-0.8 0.7-1.3 1.6-1.9 2.8-0.4 1.3-0.7 2.6-1.1 4.2l-1.6 13.2h-7.2l3.4-27.2h7.1l-0.4 3.6c1.7-2.8 4.2-4.2 7.6-4.2h2l-1.2 5.7z"/>
	<path fill-rule="evenodd" class="s0" d="m730.4 128.1c-1 1.7-3 2.5-4.9 1.9-3.6-1-6.9-2.2-10.4-3.1-3.4-1.1-6.9-2-10.4-2.9-7-1.7-14-3.5-21-4.7-3.2-0.6-5.5-3.8-4.9-7.3 0-0.6 0.3-1.2 0.6-1.9 3.4-6.3 7.2-12 11.1-17.4 3.9-5.5 8.1-10.9 12.6-15.9 1.6-1.7 4.2-1.9 5.9-0.3 1.4 1.2 1.7 3.4 0.9 5-3.1 6-6.4 11.7-9.7 17.5l-5 8.5c0 0.3-0.4 0.7-0.6 1.1 4.6 1 9.1 2.5 13.7 4.1 3.5 1.2 7.1 2.6 10.5 4.2 3.4 1.5 6.9 3.2 10.2 5.1 1.9 1.5 2.6 4 1.4 6.1z"/>
	<path fill-rule="evenodd" class="s0" d="m648.7 118.7c-0.6 0.3-1.3 0.4-1.9 0.6-6.9 1.2-14 2.8-20.9 4.7-3.4 1-7 1.9-10.4 2.9q-5.1 1.4-10.5 3.1c-2.2 0.6-4.5-0.6-5.1-2.8-0.4-1.9 0.3-3.8 1.9-4.9 3.2-1.9 6.6-3.5 10.1-5.1 3.3-1.6 6.9-3 10.5-4.2 4.5-1.6 9.1-3 13.7-4.1 0-0.3-0.4-0.8-0.6-1.1l-5-8.5c-3.4-5.7-6.6-11.5-9.8-17.5-1-2-0.3-4.5 1.7-5.7 1.7-0.9 3.7-0.4 5 1 4.5 5 8.7 10.4 12.6 15.9 3.9 5.5 7.6 11.1 11 17.4 1.8 2.8 0.9 6.6-2.3 8.3z"/>
	<path fill-rule="evenodd" class="s0" d="m691.9 197c-1.9 0.7-3.9 0-5-1.6-2.3-3.8-4.5-7.7-6.8-11.7l-6.6-11.7-6.5-11.7c-0.4-0.9-1-1.7-1.6-2.6-0.4 0.9-1 1.7-1.5 2.6l-6.6 11.7-6.6 11.7c-2.3 3.8-4.5 7.7-6.8 11.4-1.3 1.9-3.7 2.6-5.8 1.3-1.7-1-2.3-3.1-1.7-5 1.6-4.2 3.3-8.4 5.2-12.6 1.6-4.1 3.6-8.2 5.5-12.3 2-4.1 4-8.2 6.2-12.1 2.2-3.9 4.4-8 7-12 1.9-2.9 5.6-3.6 8.4-1.8 0.6 0.5 1.3 1.1 1.7 1.7 2.6 4.1 4.8 8 6.9 12.1 2 4.1 4.2 8 6.1 12.1 2 4.1 3.9 8.2 5.6 12.3 1.7 4.2 3.6 8.4 5.3 12.6 0.8 2.6-0.2 4.9-2.4 5.6z"/>
	<path fill-rule="evenodd" class="s0" d="m661.1 58.5c-0.9-3.2-1.3-6.3-1.7-9.6-0.3-3.2-0.3-6.3-0.3-9.6 0-6.3 0.7-12.7 2.2-19 0.7-2.3 2.9-3.8 5.2-3.2 1.6 0.4 2.8 1.7 3.1 3.2 1.6 6.3 1.9 12.7 2 19 0 3.2 0 6.3-0.3 9.6-0.3 3.1-0.7 6.3-1.7 9.6-0.6 2.3-3.1 3.5-5.4 2.8-1.6-0.3-2.5-1.5-3.1-2.8z"/>
	<path fill-rule="evenodd" class="s0" d="m745.3 156.4c-1.3 1.9-3.6 2.9-5.6 2-4.5-1.6-8.8-3.2-13.3-4.7-4.6-1.6-9.1-2.8-13.5-4.2-4.3-1.3-8.7-2.3-13.1-3.3 3 5.4 5.9 10.8 9.1 16.2 2.8 4.9 5.5 9.9 8.1 15.1 2.5 5.1 5.2 10.2 7.2 15.5 1 2.6 0 5.2-2.6 6.4-2.2 0.9-4.5 0-5.8-1.7l-18.2-28.2c-6.1-9.5-12.1-19.4-17-29.7-1.7-3.5-0.3-7.7 3.1-9.6 1.4-0.6 3-0.9 4.4-0.6 9.9 1.7 19.5 4.2 29 7.7 4.6 1.7 9.4 3.6 13.8 5.8 4.5 2.2 8.8 4.4 13.1 7 1.9 1 2.7 3.9 1.3 6.3z"/>
	<path fill-rule="evenodd" class="s0" d="m650.3 139.4c-5.2 10.5-11.1 20.4-17.1 29.9l-18 28.3c-1.3 2.2-4.3 2.8-6.5 1.3-2-1.2-2.6-3.8-1.9-5.7 2.2-5.4 4.7-10.6 7.2-15.7 2.6-5.1 5.2-10.1 8.1-15.1 2.9-5.4 6.1-10.8 8.8-16.2-4.3 1.1-8.7 2.2-13 3.5-4.5 1.3-9.1 2.6-13.5 4.2-4.5 1.4-9 3.2-13.4 4.7-2.5 1-5.1-0.4-6.1-2.8-0.7-2.2 0-4.5 2-5.7 4.3-2.6 8.8-4.8 13.2-7 4.5-2 9.2-4.1 13.8-5.8 9.3-3.5 19-6 29-7.9 3.7-0.6 7.5 1.9 8.1 5.8 0 1.3 0 2.9-0.7 4.2z"/>
	<path fill-rule="evenodd" class="s0" d="m729.3 165.4c3.2 1.6 5.8 3.4 8.4 5.4 2.7 2 5 4.3 7.3 6.8 4.6 4.7 8.8 9.9 12.3 15.9 1.1 2 0.3 4.7-1.7 5.8-1.4 0.7-3.1 0.6-4.5-0.4-5.3-3.8-10.1-8.2-14.6-12.5q-3.5-3.3-6.7-6.9c-2.2-2.6-4.2-5.1-5.9-7.9-1.2-2-0.6-4.8 1.4-6 1.3-0.9 2.7-0.9 4-0.2z"/>
	<path fill-rule="evenodd" class="s0" d="m606.8 171.3c-1.7 2.8-3.7 5.4-5.9 7.9-2.2 2.3-4.3 4.7-6.6 7-4.6 4.4-9.4 8.8-14.6 12.5-1.9 1.4-4.5 1-5.9-1-1-1.4-1-3.2-0.3-4.5 3.2-6.2 7.6-11.2 12.1-16 2.3-2.4 4.8-4.6 7.2-6.8 2.7-2 5.3-3.9 8.5-5.4 2.2-1.1 4.6 0 5.7 1.8 0.8 1.7 0.6 3.3-0.2 4.5z"/>
	<path fill-rule="evenodd" class="s0" d="m699.2 54c-4 8.7-8.5 17.2-13.1 25.3-4.7 8.3-9.5 16.5-14.7 24.5-1.3 2-3.5 3.3-5.9 3.3-2.3 0-4.6-1.4-5.8-3.3-5-8.2-9.8-16.3-14.5-24.7-2.3-4.1-4.6-8.3-6.8-12.5-2.2-4.2-4.5-8.6-6.5-12.8-1.1-2.3 0-5.1 2.2-6.4 2-1 4.5-0.3 5.8 1.4 2.9 3.8 5.5 7.7 8.4 11.7 2.8 3.9 5.5 7.9 8.1 11.8 3.1 4.7 6.2 9.5 9.4 14.4 3.1-4.9 6.2-9.8 9.3-14.4 5.3-8 10.8-15.7 16.6-23.3 1.6-2 4.6-2.5 6.7-0.7 1.1 1.3 1.6 3.9 0.8 5.7z"/>
	<path class="s0" d="m218.4 608.6l14.2-4.1-23.4-40.2 9.2 44.3z"/>
	<path class="s0" d="m332.6 562.2l13.3-4.2-9.4-8.6-10.8 6 6.9 6.8z"/>
	<path class="s0" d="m288.5 576.2l-44 24.7 99.4-27.9-11.3-10.8-44.1 14z"/>
	<path class="s0" d="m343.9 573l2-15-13.3 4.2 11.3 10.8z"/>
	<path class="s0" d="m325.7 555.4l-5.1-5-81.4 41.4 49.3-15.6 37.2-20.8z"/>
	<path class="s0" d="m331.5 544.9l5 4.5 7.6-4.3-3.1-5.1-9.5 4.9z"/>
	<path class="s0" d="m320.6 550.4l5.1 5 10.8-6-5-4.5-10.9 5.5z"/>
	<path class="s0" d="m239.2 591.8l5.3 9.1 44-24.7-49.3 15.6z"/>
	<path class="s0" d="m352.8 540.2l-8.7 4.9 13.6 22.2 5.8-12.3-10.7-14.8z"/>
	<path class="s0" d="m357.7 567.3l15.9 2-10.1-14.3-5.8 12.3z"/>
	<path class="s0" d="m886.2 550c-2.8-0.2-4.6-1.9-5.4-2.8l-0.2-0.4-1.6 1.9 0.2 0.2c1.7 2.1 4.3 3.2 7.2 3.4v-2.3z"/>
	<path class="s0" d="m887.5 539.7v2.8c2.4 0.8 4.3 1.6 4.3 3.8 0 2.2-1.2 3.6-4.3 3.7v2.4c5.1-0.2 7-3.4 7-6.2 0-4.4-3.7-5.6-7-6.5z"/>
	<path class="s0" d="m480.1 565.6h2.4v21.5h-2.4z"/>
	<path class="s0" d="m631.2 565.6h2.4v21.5h-2.4z"/>
	<path class="s0" d="m879.3 565.6h-3l8.6 12.3v9.2h2.4v-9.6l-8-11.9z"/>
	<path class="s0" d="m888.4 576.4l7.6-10.8h-3l-6 8.7 1.4 2.1z"/>
	<path class="s0" d="m573.9 565.6h-2.5l0.1 0.4 8.6 20.9 0.1 0.2h2.6l-8.9-21.5z"/>
	<path class="s0" d="m582.9 583.5l5.4-13.2 1.9-4.7h-2.6l-6 14.9 1.3 3z"/>
	<path class="s0" d="m569.9 565.6v21.5h2.4v-15.4l-2.4-6.1z"/>
	<path class="s0" d="m589.2 571.9v15.2h2.5v-21.5l-2.5 6.3z"/>
	<path class="s0" d="m618.6 565.6h2.4v21.5h-2.4z"/>
	<path class="s0" d="m622.4 565.6h5.3v2.4h-5.3z"/>
	<path class="s0" d="m611.7 565.6h5.4v2.4h-5.4z"/>
	<path class="s0" d="m536.2 585c-4.2-0.5-7-3.8-7-8.7 0-4.9 2.8-8.2 7-8.7v-2.3c-5.7 0.5-9.6 4.9-9.6 11 0 6.1 3.9 10.5 9.6 11z"/>
	<path class="s0" d="m537.7 565.3v2.4c4.3 0.2 7.3 3.7 7.3 8.7 0 5-2.9 8.5-7.3 8.8v2.3c5.8-0.2 10-4.7 10-11-0.2-6.5-4.2-11-10-11.2z"/>
	<path class="s0" d="m647.3 585c-4.2-0.5-7-3.8-7-8.7 0-4.9 2.8-8.2 7-8.7v-2.3c-5.7 0.5-9.6 4.9-9.6 11 0 6.1 3.9 10.5 9.6 11z"/>
	<path class="s0" d="m648.8 565.3v2.4c4.3 0.2 7.3 3.7 7.3 8.7 0 5-2.9 8.5-7.3 8.8v2.3c5.8-0.2 10-4.7 10-11 0-6.3-4.1-11-10-11.2z"/>
	<path class="s0" d="m714.8 574.9h9.7v2.4h-9.7z"/>
	<path class="s0" d="m714.8 584.7h10v2.4h-10z"/>
	<path class="s0" d="m417.5 567.3l-1.4 3.4 6.5 16.4h2.9l-8-19.8z"/>
	<path class="s0" d="m417.9 579.1h-5.2l-1 2.5h7.2l-1-2.5z"/>
	<path class="s0" d="m416.6 565.6h-2.7l-8.6 21-0.1 0.5h2.8l8.6-21.5z"/>
	<path class="s0" d="m445.4 583.9v-18.3h-2.4v14.9l2.4 3.4z"/>
	<path class="s0" d="m430.5 565.6h-3l15.1 21.5h3.3l-15.4-21.5z"/>
	<path class="s0" d="m427.9 568.8v18.3h2.6v-14.9l-2.6-3.4z"/>
	<path class="s0" d="m662.6 568.9v18.2h2.5v-14.7l-2.5-3.5z"/>
	<path class="s0" d="m680.2 584.1v-18.5h-2.5v14.9l2.5 3.6z"/>
	<path class="s0" d="m677.3 587.1h3.3l-15.5-21.5h-2.9l15 21.4 0.1 0.1z"/>
	<path class="s0" d="m790.1 583.9v-18.3h-2.7v14.9l2.7 3.4z"/>
	<path class="s0" d="m775 565.6h-3l15.1 21.5h3.3l-15.4-21.5z"/>
	<path class="s0" d="m772.5 568.9v18.2h2.4v-14.7l-2.4-3.5z"/>
	<path class="s0" d="m504.9 583.9v-18.3h-2.5v14.9l2.5 3.4z"/>
	<path class="s0" d="m487.4 568.9v18.2h2.4v-14.7l-2.4-3.5z"/>
	<path class="s0" d="m502.1 587.1h3.3l-15.4-21.5h-3.2l15.2 21.4 0.1 0.1z"/>
	<path class="s0" d="m450.3 565.6h2.4v21.5h-2.4z"/>
	<path class="s0" d="m457.4 565.6h-3v2.4h3c5 0 8.2 3.2 8.2 8.2 0 5-3.2 8.6-8.2 8.6h-3v2.4h3c6.5 0 10.9-4.4 10.9-11 0-6.3-4.4-10.6-10.9-10.6z"/>
	<path class="s0" d="m509.7 565.6h2.4v21.5h-2.4z"/>
	<path class="s0" d="m513.7 565.6h10v2.4h-10z"/>
	<path class="s0" d="m513.7 574.9h9.7v2.4h-9.7z"/>
	<path class="s0" d="m554.9 568h3.9c2.6 0 4.3 1.7 4.3 4 0 2.3-1.7 4-4.3 4h-3.9v2.2h5.3c3.4-0.5 5.4-2.9 5.4-6.4 0-3.5-2.7-6.5-6.6-6.5h-4.2c0 0.1 0 2.7 0 2.7z"/>
	<path class="s0" d="m561.3 579.8h-3l4.9 7.3h3.1l-5-7.3z"/>
	<path class="s0" d="m551 565.6h2.4v21.5h-2.4z"/>
	<path class="s0" d="m607.3 579.1h-5.1l-1.1 2.5h7.1l-0.9-2.5z"/>
	<path class="s0" d="m606.9 567.3l-1.3 3.3 6.5 16.5h2.7l-7.9-19.8z"/>
	<path class="s0" d="m605.9 565.6h-2.5l-8.6 21-0.5 0.5h3l8.6-21.5z"/>
	<path class="s0" d="m763.6 577.2v-2.3h-11v-9.3h-2.4v11.6h13.4z"/>
	<path class="s0" d="m750.2 578.7h2.4v8.5h-2.4z"/>
	<path class="s0" d="m867 567.7c2.2 0 4.3 1.2 5.4 2.8l0.2 0.2 2.1-1.3-0.2-0.4c-1.9-2.4-4.5-3.7-7.5-3.8z"/>
	<path class="s0" d="m865.5 578h9.4v-2.1h-9.4v2.1z"/>
	<path class="s0" d="m872.5 579.5v3.2c-1.2 1.3-3.2 2.2-5.4 2.3v2.4c3.2 0 5.8-1.3 7.8-3.5v-4.4h-2.5z"/>
	<path class="s0" d="m865.5 585c-4.3-0.6-7.1-4-7.1-8.7 0-4.7 2.9-8.1 7.1-8.7v-2.4c-5.8 0.6-9.7 5.1-9.7 11 0 5.9 3.9 10.4 9.7 11z"/>
	<path class="s0" d="m822.7 584.7h8.6v2.4h-8.6z"/>
	<path class="s0" d="m698.2 565.6h2.4v21.5h-2.4z"/>
	<path class="s0" d="m702.1 565.6h5.3v2.4h-5.3z"/>
	<path class="s0" d="m691.5 565.6h5.4v2.4h-5.4z"/>
	<path class="s0" d="m710.9 565.6h2.4v21.5h-2.4z"/>
	<path class="s0" d="m714.8 574.9h9.7v2.4h-9.7z"/>
	<path class="s0" d="m714.8 565.6h9.7v2.4h-9.7z"/>
	<path class="s0" d="m765.1 565.6h2.4v21.5h-2.4z"/>
	<path class="s0" d="m818.6 565.6h2.4v21.5h-2.4z"/>
	<path class="s0" d="m841.2 585c-4.2-0.5-7-3.8-7-8.7 0-4.9 2.8-8.2 7-8.7v-2.3c-5.7 0.5-9.6 4.9-9.6 11 0 6.1 3.9 10.5 9.6 11z"/>
	<path class="s0" d="m842.6 565.3v2.4c4.3 0.2 7.3 3.7 7.3 8.7 0 5-2.9 8.5-7.3 8.8v2.3c5.8-0.2 10-4.7 10-11 0-6.3-4.1-11-10-11.2z"/>
	<path class="s0" d="m803.5 585c-4.2-0.5-7-3.8-7-8.7 0-4.9 2.8-8.2 7-8.7v-2.3c-5.7 0.5-9.6 4.9-9.6 11 0 6.1 3.9 10.5 9.6 11z"/>
	<path class="s0" d="m805 565.3v2.4c4.3 0.2 7.3 3.7 7.3 8.7 0 5-2.9 8.5-7.3 8.8v2.3c5.8-0.2 10-4.7 10-11 0-6.5-4.2-11-10-11.2z"/>
	<path class="s0" d="m737.9 585c-4.3-0.6-7.2-4-7.2-8.7 0-4.7 2.9-8.1 7.2-8.7v-2.4c-5.8 0.6-9.8 5.1-9.8 11 0 5.9 3.9 10.5 9.8 11z"/>
	<path class="s0" d="m739.3 567.7c2.1 0 4.3 1.2 5.4 2.8l0.2 0.2 2.1-1.3-0.2-0.4c-1.9-2.4-4.4-3.6-7.4-3.8v2.4z"/>
	<path class="s0" d="m744.9 582l-0.2 0.2c-1.3 1.7-3.2 2.8-5.4 2.8v2.4c3 0 5.4-1.3 7.5-3.8l0.2-0.4z"/>
	<g>
	</g>
	<g>
	</g>
</svg>