<svg version="1.2" xmlns="http://www.w3.org/2000/svg" viewBox="0 0 1000 1000" width="1000" height="1000">
	<title>National Cybersecurity Authority-01 (1)</title>
	<style>
		.s0 { fill: #ffcd05 } 
	</style>
	<g>
		<g id="Layer_1">
			<g>
			</g>
			<path class="s0" d="m591.4 477.3c-1.8 3.6-4.4 6.5-6.7 9.6-10.8 13.9-22.4 26.9-36 37.9-11.9 9.7-24.4 18-39.2 22.3-4.5 1.4-9.1 1.4-13.6 0.4-7.7-1.4-14.7-4.4-21.6-8.1-14.4-7.7-27.4-17.5-39.9-28-12.7-10.7-24.6-22.4-35.8-34.6-19.2-21.2-36.6-43.9-50.1-69.3-7-13-12.8-26.5-15.4-41.2-1.8-9.7-1.5-19.5 1.5-29 0.3-0.9 0.9-1.9 1.3-2.9 0.7-0.2 0.8-0.9 0.8-1.5 1.1-0.4 1.8-1.4 2.6-2.3 7.6-9.4 16.5-17.3 26.8-23.5 0.9 6.3 1.8 12.8 3.3 19.1 2 8.8 4.5 17.4 8.1 25.8 0.8 2.1 1.2 4.6 3.1 6.1-0.2 0.9 0 1.7 0.7 2.4 0.7 1.5 2 2.8 1.8 4.6-0.9 0.7-1.1 1.3-0.5 2.3 1.8 3.7 2.4 7.7 3.3 11.7 1.3 6.2 3.5 12.1 5.7 18.1 3.7 10.2 8.4 19.8 14.1 29.1 4.6 7.7 9.7 15 15.6 21.9 7.2 8.4 15.3 15.6 23.9 22.2 7.4 5.7 15.7 10.2 24.2 14.2 9.7 4.5 20 6.9 30.4 9.1 3.7 0.8 7.6 0.2 11.6 0.9 1 0.1 2.2 0.1 3.2 0 2-0.7 4.1-0.7 6.2-0.7 3.4 0 6.4-1.3 9.6-2.3 0.9 0 2 0 3 0 3.6 1.8 7.4 1.8 11.3 2.6 8.4 1.6 16.6 0.1 24.4-2.5 7.4-2.6 14-6.7 19.5-12.3 0.9-0.9 1.5-2 3.1-1.5z"/>
			<path class="s0" d="m380.4 357.9c-1.9-1.6-2.2-4-3.2-6-3.6-8.4-6-17.1-8.1-25.8-1.5-6.4-2.3-12.7-3.3-19.1 0.3-4.6-0.7-9.2 0.3-13.8 1.8-16.7 9.5-30.3 21.8-41.6 12.1-11.1 26.3-18.3 41.5-23.6 17.9-6.2 36.3-9.6 55.1-11.2 12.1-0.9 24.3-1.1 36.4-0.4 17.2 1.1 34.2 3.9 50.7 9.2 3.2 1.1 6.5 2.1 9.6 3.2 0.4 0.7 1 1.1 1.8 1.4 5.2 1.8 9.9 4.5 14.4 7.7 4.6 3.1 8.7 6.4 11.2 11.6 3.8 8.4 5.7 17.3 6 26.4 0.3 11.8 1 23.6-1 35.5-0.8 5.3-1.2 10.8-1.9 16.2-0.4 3.3-1.2 6.6-1.6 10-0.6 3.8-1.3 7.7-2.9 11.1-1.5-1.8-1.4-4.1-2.1-6.2-4.9-18.6-12.9-36-24.3-51.6-1.5-2.1-4-3.2-4.9-5.8-0.5-0.9-1-1.8-1.7-2.6-2.5-2.9-5.2-5.5-8-8-8.5-7.8-18.5-12.6-29.9-14.2-8.1-1.3-16.4-2.4-24.7-2.1-6.4 0.3-12.8 1-19.1 1.1-2.6 0-5.2 0.5-7.7 0.8-8.5 1.4-16.9 3-25.2 5.2-18.1 5-35.4 11.6-51.1 22.2-11.2 7.5-21 16.6-26.8 29.3-1.2 2.8-2 5.7-2.7 8.6-1.9 7.2 0.1 14.5 0 21.8 0 1.2 0.4 2.6 1.2 3.6 0.3 2.3 0.6 4.8 0.2 7.1z"/>
			<path class="s0" d="m607 348.9c1.7-3.6 2.4-7.5 2.9-11.2 0.4-3.3 1.3-6.6 1.7-10 0.7-5.4 0.9-10.9 1.9-16.2 1.9-11.8 1.4-23.6 1-35.5-0.3-9-2.1-17.9-6.1-26.3-2.5-5.2-6.6-8.5-11.1-11.7-4.5-3.2-9.2-5.9-14.4-7.7-0.9-0.3-1.4-0.7-1.8-1.4 5.7 0.7 11.4 2.4 17 3.9 12.5 3.4 24.6 7.9 35.9 14.3 5.2 2.8 10.1 6.4 14.9 10 7.6 5.6 11.6 13.2 13 22.4 1.7 12.1 1.2 24.2-0.3 36.3-3 22.3-8.7 44.2-16.2 65.5-8.5 24-19 47.2-32.9 68.7-4.8 7.4-10 14.5-16 21.1-1.4 1.4-2.5 3-3.7 4.6-1 0-1.4 0.6-1.4 1.6-1.4-0.3-2.2 0.7-3 1.5-5.5 5.8-12.3 9.9-19.5 12.4-7.9 2.7-16.1 4.1-24.5 2.5-3.8-0.7-7.7-0.9-11.3-2.7 3.2-1.3 6.6-2.3 9.7-4.1 12-6.8 23.6-14.5 33.2-25 9.6-10.4 5.2-4.8 7.3-7.7 3.8-5.1 7.4-10.3 10.7-15.8 5.3-8.6 8.9-18.1 11.4-28 0.8-3.2 1.6-6.3 2.2-9.6 0.8-4 1.5-7.8 1.5-11.8 0.1-10.3 0.7-20.6-0.7-30.8-0.3-1.9 0.3-4.3-2.2-5.4-0.4-1.6 1.1-2.8 0.8-4.4z"/>
			<path class="s0" d="m366.1 293.4c-1 4.5 0 9.2-0.3 13.7q-15.4 9.5-26.8 23.5c-0.7 0.9-1.5 1.8-2.6 2.3 0-0.8 0.6-1.5 0.8-2 7.6-13.6 17.1-25.7 27.7-37.1 0.2-0.3 0.6-0.3 1.1-0.4z"/>
			<path class="s0" d="m591.4 477.3c0-1 0.3-1.5 1.4-1.6-0.2 0.6-0.6 1.3-1.4 1.6z"/>
			<path class="s0" d="m336.6 332.9c0 0.7-0.2 1.3-0.9 1.5 0-0.7 0.3-1.2 0.9-1.5z"/>
			<path class="s0" d="m383 364.9c2.9 5.3 5.6 10.6 8.6 15.7 9 15.2 19.4 29.3 31.5 42.2 13.9 14.8 29.4 27.7 47 37.9 7.3 4.1 14.7 7.7 22.6 10.3 1 0.3 2.1 0.5 2.8 1.2 1.1 2.9 4 3.6 6.2 5.1 7.9 5.2 16.2 9.8 25.5 12.4 1.1 0.2 1.8 1.1 2.8 1.5-3.2 0.9-6.3 2.3-9.6 2.3-2.1 0-4.2 0-6.2 0.7-1 0.3-2.1 0.3-3.2 0-3.8-0.7-8 0-11.7-1-10.3-2.2-20.7-4.5-30.3-9-8.5-4-16.8-8.5-24.2-14.2-8.7-6.6-16.8-13.9-23.9-22.2-5.9-6.9-11-14.2-15.7-21.9-5.5-9.2-10.3-18.9-14-29.1-2.2-5.9-4.2-11.8-5.7-18.1-0.9-3.9-1.6-8-3.3-11.7-0.6-1-0.3-1.8 0.5-2.5z"/>
			<path class="s0" d="m530.1 491.3c-0.9-0.4-1.6-1.2-2.7-1.5-9.4-2.5-17.6-7.1-25.6-12.4-2.2-1.3-5.1-2.2-6.2-5 6.5 1.3 12.9 3 19.5 3.5 15.6 1.3 29.2-2.9 40.4-13.8 9.6-9.2 16.9-20.1 23.1-31.8 12-22.4 20.1-46.3 26.1-70.9 0.6-2 1-4.1 1.4-6 2.3 1.1 1.9 3.4 2.2 5.3 1.4 10.4 0.9 20.7 0.7 30.8 0 3.9-0.9 7.9-1.5 11.8-0.7 3.3-1.6 6.5-2.2 9.7-2.5 9.8-6.1 19.2-11.4 28-3.3 5.5-7.1 10.7-10.8 15.8-2 2.7-4.8 5.1-7.2 7.7-9.7 10.3-21.1 18.1-33.3 25-3 1.6-6.4 2.7-9.6 4-1.1 0-2.1 0-3 0z"/>
			<path class="s0" d="m380.4 357.9c0.9 0.6 0.9 1.5 0.7 2.5-0.7-0.7-1-1.5-0.7-2.5z"/>
			<path class="s0" d="m576 285.3c-0.7 0-1.4 0-1.8-0.5-8.5-7.8-19.1-10.8-30.1-12.7-8.2-1.4-16.6-2-25-1.7-11.8 0.3-23.3 1.5-35 3.7-17.2 3.2-33.8 8-49.6 15.1-14 6.4-27.2 14-37.9 25.2-7.7 7.9-13.3 17-15.5 28-0.6 2.9-0.3 5.8-0.7 8.5-0.8-1.1-1.3-2.5-1.3-3.6 0-7.2-2-14.5 0-21.8 0.9-2.9 1.7-5.8 2.8-8.5 5.8-12.8 15.4-21.9 26.8-29.4 15.6-10.6 32.9-17.2 51.1-22.1 8.2-2.2 16.7-3.9 25.1-5.2 2.6-0.5 5.2-0.9 7.7-0.9 6.3 0 12.8-0.8 19.1-1.1 8.4-0.4 16.6 0.9 24.7 2.1 11.3 1.6 21.3 6.4 30 14.3 2.7 2.6 5.6 5.1 7.9 7.9 0.7 0.9 1.3 1.7 1.7 2.7z"/>
			<path class="s0" d="m494.8 643c6.3-0.3 10.3-4.7 10.3-11 0-12 0-23.8 0-35.7 0-12 0-1.7 0-2.4 0-0.5-0.1-1.2-0.5-1.3-1.6-0.6-3.2-0.6-4.6 0-1.3 0.4-0.7 1.7-0.7 2.7 0 11.5 0 22.9 0 34.5 0 1.2 0 2.6-0.2 3.8-0.3 1.8-1.5 2.9-3.1 3.2q-4.1 0.8-8.2 0c-2.2-0.4-3.2-2.2-3.4-4.3-0.2-0.8 0-1.8 0-2.7 0-11.1 0-22.3 0-33.3 0-1.2 0.2-2.6-0.3-3.8q-5.4-1-5.4 4c0 11.4 0 22.6 0 34 0 4.6-1.6 6.4-6 6.2-2.6 0-5.8 1.1-7.6-0.7-1.5-1.5-0.4-4.5-0.4-6.8 0-5-2-8.7-5.9-11.3-4.2-3-8.9-3.4-13.7-1-4.7 2.4-7.3 6.1-7.4 11.6 0 2.7 0.4 5.3 1.3 8.4-4 0-7.5 0-11.1 0-2.5 0-4-1.8-4.3-4.4 0-1 0-1.8 0-2.8 0-11.8 0-23.5 0-35.3 0-2.5 0-2.3-3.2-2.5-1.8 0-2.9 0.2-2.8 2.5 0.1 4.8 0 9.6 0 14.4 0 7.5 0 14.9 0 22.4 0 3.7-1.8 5.4-5.5 5.5q-2.3 0-4.5 0c-0.4-1.5 0.5-2.3 0.9-3.1 1.4-2.8 1.8-5.8 1.4-8.8-1-8-7.5-13.8-15.9-13.8q-23.7 0-47.4 0c-0.8 0-2.1 0.6-2.8-0.8 4.7-3.4 9.1-7 13.9-10.3 3.3-2.2 4.4-4.8 3.3-8.5-0.1 0-0.4 0-0.4 0-9.2 6.5-18.3 12.9-27.5 19.4-1.4 0.9-2 3.4-1.5 5.2 0.6 1.8 2.2 1.1 3.3 1.1 1.2 0 2.6 0 4 0h54.1c2.2 0 4.4 0 6.5 1.2 3.8 2.5 5.7 6.9 4.6 10.7-1.2 4.6-5.2 7.6-10.1 7.6-24.5 0-48.9 0-73.2 0-4.7 0-6.1-1.5-6.1-6.2 0-4.2 0-8.6 0-12.9 0-1.6-0.4-2.5-2.2-2.3 0 0-0.3 0-0.4 0-3.4 0-3.4 0-3.4 3.3 0 4.1 0 8.3 0 12.5 0 3.7-1.8 5.5-5.5 5.5-3.7 0-7.3 0-11 0-6.9 0-6.5 0.4-6.2-6.1 0.3-7.1-6.6-14.4-14.4-13.6-5.7 0.6-9.5 3.6-11.4 8.8-2.1 5.2-0.9 10.6 3.3 14.3 4 3.7 8.6 4.5 13.7 2.7 1.1-0.4 2.3-0.6 1.8-2.3-0.8-2.6-2.1-3.7-3.9-3.2-1.3 0.5-2.7 0.9-4.2 0.5-4-1.1-6.2-4.6-5.6-8.7 0.5-3.4 3.9-6.2 7.5-6 3.9 0.1 6.9 3.3 7 7.5 0 1.5 0 3.2 0 4.7 0 5.3 2.1 7.4 7.3 7.4q8.2 0 16.5 0c1.2 0 2.6 0 3.8-0.5 4.8-1.6 4.8-1.6 8.5 0 1.4 0.5 2.8 0.6 4.3 0.6 30.6 0 61.4 0 92 0 2.1 0 4.3 0 6-1.3h0.1v-0.2c0.4 0 0.7-0.1 0.7-0.5 0.8-0.4 1.5-0.8 2.4 0 2.5 2 5.5 2.2 8.6 2.2 3.1 0 6.3-0.4 9.3 0 2.2 0.3 3.6-2.1 5.5-1.4 2.2 0.7 4.3 1.2 6.5 1.2 7.1 0 14.4 0 21.5 0 2.6 0 5.2-0.2 7.3-2.2 0.7-0.5 1.2-0.9 2.1-0.2 3.8 3.3 8.3 2.4 12.7 2.3zm-36.1-8.1c0 1.6-0.7 2.3-2.3 2.2-1.1 0-2.1 0-3.2 0-1.1 0-1.8 0-2.7 0-4.4-0.3-7.9-3.9-7.7-7.8 0.1-3.9 3.7-7.3 7.7-7.6 4.1-0.1 7.8 3.2 8.2 7.3 0.2 1.9 0 4 0 5.9z"/>
			<path class="s0" d="m90.4 646.3c1.8-2.9 4-3.3 7.1-3.3q60.2 0 120.4 0c8.2 0 12.2-4 12.2-12.3v-25.8c0-3.4-0.2-6.8 0-10.1 0-2.2-0.8-2.8-2.8-2.5-0.6 0-1.3 0-1.9 0-1.1 0-1.6 0.5-1.5 1.6 0 0.6 0 1.1 0 1.5 0 12 0 23.8 0 35.8 0 4.4-1.5 5.9-5.9 5.7-1 0-2.1 0.3-2.9-0.4-0.3-0.7 0-1.2 0.3-1.9 2-5.6 0.8-11-3.7-15-5-4.4-10.7-4.9-16.9-3.3-7.8 2.2-12.1 10.1-9.6 17.9 0.2 0.8 1.1 1.6 0.2 2.5h-7.9c-0.4-1 0.2-1.6 0.5-2.1 3.5-6.9 2.2-14-3.4-19.2-3.2-2.9-6.9-4.2-11.1-4.2q-23.7 0-47.4 0c-0.9 0-1.8 0.6-2.5-0.8 4.8-3.6 9.5-7.1 14.3-10.7 3.6-2.7 3.8-3.4 2.5-8.1-0.3 0-0.6 0-0.7 0.1q-12.8 9.1-25.6 18.2c-0.5 0.4-1.1 0.7-1.5 1.1-1.8 1.3-1.2 3.4-1 5.1 0.3 1.7 2.1 1 3.3 1 1.1 0 2.1 0 3.2 0h54.8c2.1 0 4.1 0 6.1 1.3 3.8 2.5 5.9 6.7 4.8 10.7-0.9 3.4-5 8-10.1 7.8-22.2-0.1-44.3 0-66.6 0-3.4 0-3.4 0-3.4-3.4q0-7.6 0-15.3c0-2-0.7-2.8-2.8-2.6q-0.6 0-1.2 0c-1.7-0.2-2.2 0.5-2.2 2.2 0 5.9 0 11.9 0 17.6 0.1 5.1-2.1 8.5-6.7 10.3-1.3 0.6-2 1.1-1.8 2.5 0 1.1 0 2.3 0 3.8 4.9-0.2 8.8-2.2 11.1-5.9zm105.8-24c3.1-1 6.3-1.1 9.5 0.5 3.3 1.7 5.2 5.1 4.6 8.3-0.5 2.9-3.4 5.5-7 5.9-0.9 0-2 0-3.1 0-0.7 0-1.4 0-2 0-3.9-0.3-7.1-2.8-7.7-5.9-0.5-3.6 1.8-7.6 5.7-8.8z"/>
			<path class="s0" d="m745.9 640.2c1.3-0.9 1.8-0.8 2.9 0.2 4 3.4 8.7 3.5 13.2 1.5 4.7-2.1 6.2-6.1 6.2-10.9 0-11.7 0-23.2 0-34.9 0-0.8 0-1.5 0-2.3 0-0.7-0.3-1.4-1-1.4-1.5-0.1-3.3-0.5-4.5 0.2-1.1 0.6-0.4 2.2-0.4 3.3 0 11.6 0 23.2 0 34.8 0 1.4 0.2 2.9-0.7 4.2-1.4 1.9-4 2.7-6.6 2-2.1-0.5-3.3-2.2-3.4-4.6 0-4.6 0-9.2 0-13.8 0-2.6 0-2.4-3.2-2.6-1.9 0-2.9 0.3-2.7 2.5 0 3.8 0 7.8-0.3 11.7-0.3 4.1-4.1 7.4-7.9 7.1-2.8 0-7.5-3.2-7.2-7.8q0-3.9 0-7.9c0-2.4-0.3-2.4-3.2-2.6-2.2-0.1-2.7 0.7-2.6 2.6 0 2.9 0.1 5.8-0.1 8.7-0.5 4.1-4.4 7.3-8.1 7-4.2-0.3-7.2-3.6-7.3-7.8 0-0.8 0-1.5 0-2.4 0-3.4-0.3-3.7-3.9-3.4-1.2 0-1.9 0.4-1.9 1.8 0 1.8 0 3.7 0 5.5-0.1 4.5-1.8 6-6.3 6-6.2 0-12.2 0-18.4 0-2.1 0-4.1 0-6.2-0.1-3.3-0.4-5.9-2.8-6.5-5.5-0.6-3.2 0.7-5.6 3.2-7.6 3.4-2.6 7.3-2.8 11.1-1.1 3.2 1.6 6.2 1.1 9.4 0.7-3.2-6.8-12.4-9.2-20.5-6.4-3 1.1-5.4 3-7.1 5.7-2.8 4.4-2.5 9.1-0.7 13.8-1.3 0.8-2.4 0.4-3.3 0.4-3.9 0-7.6 0-11.4 0-1.7 0-2-1-2-2.3 0-2 0-3.9 0-5.9-0.5-8.7-9.2-14.5-17.4-11.9-6.5 2.1-10.2 8.3-9.2 15 1 6.3 6.3 10.9 12.8 11.1 1.2 0 2.7-0.4 4.2 0.5-2.3 2.3-5.2 0.8-7.7 1.6 0 1 0 1.6 0 2.5 0 3.1 0.4 3.5 3.6 3.5 4.7-0.1 8.7-1.9 11.5-5.6 1.6-1.9 3.1-2.5 5.3-2.5q23.9 0 47.8 0c15.9 0 3.8 0 5.7-0.5 0.6 0 0.7-0.3 1-0.7 0.7 0 1.1-0.1 1.7-0.5 2.4-2 2.4-2 5.2-0.2 5.1 3.2 11.7 2.8 16.3-1.2 1.1-1 1.7-1.5 3.2-0.3 5.5 4.5 11.8 4.8 17.6 0.7zm-113-3.2c-0.8 0-1.5 0-2.3 0-4.1-0.1-7.1-3.3-7.3-7.1 0-3.7 3.2-7.4 6.9-7.7 3.4-0.3 7.1 2.6 7.8 6.2 0.2 0.9 0 2 0 3.1 0 6.2 0.7 5.5-5.2 5.5z"/>
			<path class="s0" d="m54.7 643.1c3 0 6-0.3 9 0 6.8 0.7 12.8-4.7 12.3-12.5-0.2-3.8 0-7.5 0-11.4 0-3.7 0-3.4-3.6-3.7-2.4 0-2.5 1-2.5 2.7 0 4.4 0 9 0 13.4 0 3-1.6 5.2-4.2 5.2-6.4 0.1-12.8 0-19.3 0-1.5 0-2.3-0.8-2.2-2.5 0-1.6 0-3.4-0.3-5.1-0.8-7.2-6-11.9-13-11.9-7 0-12.5 4.5-13.3 11.7-0.6 4.8 0.9 9 4.9 12.1 3.9 3 8.3 3.7 12.9 2 1.3-0.4 2.5-0.9 1.7-2.7-1.3-2.8-1.7-3.3-3.7-2.8-1.3 0.3-2.5 0.8-3.9 0.6-3.8-0.9-6.4-4.4-6.2-8.4 0.5-3.6 3.5-6.5 7.2-6.5 4 0 7 2.5 7.4 6.6 0.3 2.1 0 4.1 0 6.3 0 4.4 2.2 6.8 6.7 6.9 3.3 0 6.6 0 9.8 0z"/>
			<path class="s0" d="m538.6 636.1c0 4.8 2 6.9 6.9 7 3.3 0 6.6 0 9.8 0 3.5 0 7 0.2 10.5 0 5.7-0.3 10.1-4.4 10.3-9.9 0.2-5.1 0-10.1 0-15.2 0-2.4-0.2-2.2-3.4-2.4-1.9 0-2.5 0.6-2.5 2.5 0 4.3 0 8.7 0 12.9 0 4.6-1.5 6.1-6.2 6.1-4.4 0-8.9 0-13.3 0-7.5 0-6.2-0.2-6.2-5.9 0-6.2-3.3-10.9-8.9-13-5.2-1.9-10.8-0.2-14.8 4.3-3.9 4.4-4 11.5-0.4 16.4 3.5 4.8 10.5 6.8 15.8 4.4 1.1-0.6 2.2-0.9 1.5-2.5-1.1-2.6-2-3.5-3.7-3-1.4 0.4-2.8 0.8-4.2 0.5-3.9-1-6.3-4.3-5.7-8.5 0.4-3.2 3.5-6.1 7-6.3 3.7-0.2 7.1 2.4 7.5 6.4 0.3 2.1 0 4.1 0 6.2z"/>
			<path class="s0" d="m751.6 670.2c-2.4 0-2.9 1.2-3.5 2.9-2.2 5.7-4.4 11.4-6.7 17-2.9 7.4-5.9 14.7-8.8 22.1-0.3 0.7-0.8 1.5 0.1 2.1 2 1.1 5.3 0 6.1-2.2 1.2-3 2.5-6.1 3.6-9.1 0.5-1.6 1.5-2.2 3.1-2.1 4 0 8.1 0 12.1 0 1.5 0 2.5 0.5 3 2 1.1 2.9 2.5 5.7 3.5 8.6 0.6 2.2 1.7 3.5 4.2 2.9 0.8-0.1 1.8 0.3 3-0.5-5.5-13.9-10.8-27.5-16.2-41.3-0.7-1.7-1.5-2.7-3.5-2.7zm-6.1 25.1c2.1-5 4-9.7 6.2-15.3 2.2 5.4 4.1 10.3 6.2 15.3-4.3 0.5-8.1 0.5-12.4 0z"/>
			<path class="s0" d="m38.9 690.4c-2.5-1.1-5.3-1.8-7.7-2.6-2-0.7-3.9-1.6-5.4-3.1-2.6-2.7-1.8-6.8 1.5-8.5 1.5-0.7 2.9-0.9 4.6-0.9 3.9-0.2 7.4 1.2 10.8 3 1.9 0.9 2.1 0.8 3.6-1.9 0.8-1.6 0.7-2.4-0.8-3.2-4-2.2-8.1-3.4-12.3-3.4-4.5 0-6.4 0.2-8.8 1.5-6.8 3.4-8.3 11.8-3 17.4 2.4 2.5 5.2 3.7 8.4 4.8 2.7 0.9 5.5 1.7 8 3.1 2.4 1.5 4.1 3.5 3.8 6.7-0.3 3.1-2.5 4.8-5.2 5.6-1.9 0.7-4.1 0.8-6.2 0.6-3.2-0.4-6-1.4-8.8-2.9-1.9-1.1-2.2-0.8-4 2-0.9 1.7-0.2 2.4 1 3.1 6.3 3.5 13 4.4 20.1 2.6 4.6-1.1 7.6-4.3 8.6-9.1 1.4-6.3-1.8-11.8-8.2-14.7z"/>
			<path class="s0" d="m710.8 684.6c-1.4-0.4-2.9-0.4-4.2 0-0.9 0.4-0.5 1.6-0.6 2.5 0 6 0 11.9 0 18 0 3.5 0 3.5-3.8 4.1-0.6 0-1.2 0.3-1.9 0.3-5.1 0.2-7.5-2.1-7.7-7.2 0-1.4 0-2.9 0-4.2 0-3.9 0-7.9 0-11.7 0-1.9-1.1-1.9-2.6-1.9-1.4 0-3-0.4-3 1.9 0 6.2-0.3 12.2 0 18.4 0.3 4.9 2.1 9.5 9.7 10 2.1 0.2 4.2 0.2 6.2-0.1 0.9 0 1.8-0.6 2.5 0.4-1.1 3.8-2.9 5.1-6.6 5.2-4.1 0-7.8-1.4-12.1-4 0.3 2 0.7 3.1 0.7 4.3 0 2.5 1.2 3.6 3.3 4.1 3 0.8 6.2 1.4 9.2 1.1 7.6-0.5 11.3-4.5 11.4-12.1q0-7 0-14c0-4.2 0-8.6 0-12.9 0-0.7 0.1-1.8-0.7-2.1z"/>
			<path class="s0" d="m507.3 670.5c-1.1-0.3-2.3-0.3-3.4-0.3-4 0-7.9 0-11.7 0-3.3 0-3.3 0-3.3 3.1v18.9c0 6.6 0 13.3 0 19.9 0 2.3 0 2.2 2.9 2.3 1.8 0 2.6-0.1 2.6-2.3 0-4.4 0-9 0-13.3 0-1.7 0.7-2.4 2.3-2.2 3.1 0 6.1 0.1 9 0 7-0.5 12.5-5.5 12.9-11.9 0.5-7.8-3.5-12.9-11.3-14.2zm0.8 19.9c-2.6 1.1-5.3 0.8-7.8 0.8q-6 0-6-5.8 0-3.7 0-7.4c0-1.6 0.4-2.6 2.4-2.5 3.5 0.3 7-0.2 10.5 0.7 3.4 0.8 5.5 3.3 5.7 6.6 0.3 3.7-1.3 6.2-4.8 7.6z"/>
			<path class="s0" d="m978.5 687.1c0-2.5-0.1-2.6-2.7-2.6-2.7 0-2.8 0-2.8 2.4q0 8.1 0 16.1c0 5.4-0.7 6.7-7 6.5q-0.4 0-0.8 0c-3.2-0.4-4.7-1.8-5.2-5q-0.5-3.1-0.5-6.2c0-3.8 0-7.8 0-11.8 0-2.2-1.3-2-2.8-2-1.6 0-2.8 0-2.8 2.2q0 8 0 16c0 1.5 0.3 3.2 0.7 4.7 1 4.4 3.6 6.6 8 7.3q3.5 0.6 7 0c0.9 0 2.2-0.8 2.7 0.4 0.6 1.2-0.4 2.2-1.2 3.2-1.3 1.3-2.8 1.9-4.5 2-2.8 0.2-5.5-0.1-8-1.4-1.4-0.6-2.8-1.3-4.4-2-0.4 1.6 0.4 2.7 0.3 3.8-0.3 2.6 1.3 3.5 3.3 4.2 2.6 0.8 5.3 1.2 8.1 1.2 8.3-0.1 12.3-4.3 12.5-12.7 0-8.7 0-17.4 0-26.2z"/>
			<path class="s0" d="m270.9 684.7c-6.6-2.3-13.9 0-17.7 5.5-4 5.8-3.3 14.6 0.9 19.7 5.9 7 17.2 5.7 23.1 2.2 1-0.6 1.2-1.3 0.7-2.2-0.3-0.4-0.7-0.8-0.8-1.4-0.7-1.8-1.7-2.5-3.5-1.1-2.2 1.5-4.8 1.9-7.4 2.1-4.4 0-7.7-2.4-9.1-6.1-0.5-1.6 0-2.2 1.6-2.2 3.1 0 6.3 0 9.3 0 3.3 0 6.6 0 9.8 0 1.3 0 2.2-0.3 2.3-1.9 0.4-6.2-3.4-12.6-9.1-14.7zm0.7 11q-3.1 0-6.2 0c-2 0-4.4 0-6.6 0-1.3 0-1.5-0.7-0.9-1.8 1.8-2.9 4.1-4.5 7.5-4.7 3.3 0 5.7 1.7 7.4 4.3 1 1.4 0.6 2.1-1.1 2.2z"/>
			<path class="s0" d="m323.5 683.9c-7.3 0.3-13.2 5.5-14.3 13.2-1.2 7.8 3.3 15.4 10.3 17.3 5.5 1.5 10.9 0.8 16-1.9 2-1.1 1.2-2.2 0.4-3.4-0.7-1.3-1-3.2-3.3-1.7-3.1 1.9-6.5 2.6-10.2 1.9-4-0.7-6.5-3.5-6.9-7.7 1-0.5 2.1-0.2 3.1-0.2 5.9 0 11.6 0 17.5 0 1.7 0 2.4-0.5 2.4-2.2 0-8.1-5.2-15.7-15.1-15.3zm8.1 11.8h-14c-1.6 0-2-0.7-1.1-1.9 1.9-2.9 4.4-4.7 8.1-4.4 3.4 0.3 5.7 2.2 7.1 5.2 0 0.3 0 0.7-0.1 1.3z"/>
			<path class="s0" d="m626 685.7c-5.2-3-10.6-2.7-15.5 0.4-5.2 3.3-7 8.4-6.8 14.4 0.3 6.1 4.4 12 10.1 13.6 5.5 1.5 10.8 1 15.9-1.7 1.9-1.1 1.9-1.3 0.6-3.8-0.9-1.3-1.3-2.7-3.5-1.3-2.9 1.9-6.3 2.4-9.7 1.9-3.5-0.7-5.9-2.8-7-6.1-0.4-1.2 0-1.9 1.3-1.9 3.3 0 6.6 0 9.8 0 3.3 0 6.6 0 9.7 0 3.2 0 2.2 0 2.1-1.5-0.3-5.8-1.8-11-7.1-14zm0.1 9.5c-0.5 1.1-1.9 0.5-2.9 0.5-4 0-8 0-12.1 0-0.2 0-0.4-0.2-0.9-0.4 1.9-6 9.3-7.4 13-4.4 0.6 0.4 1.1 0.8 1.4 1.3 0.5 0.9 1.9 1.7 1.2 3z"/>
			<path class="s0" d="m846.2 683.9q-3.3 0-6.6 0c-1.6 0-2.3-0.4-2.3-2.2 0-3 0-6 0-8.9 0-2.6-0.2-2.8-3-2.8-2.7 0-2.7 0-2.7 2.6q0 19.6 0 39.2c0 2.5 0 2.5 2.8 2.6 2.7 0 2.9 0 2.9-2.7 0-3.2 0-6.4 0-9.4 0-3.4 0-6.7 0-10.1 0-1.1 0.1-2.1 1.5-2.4 2.7-0.5 5.5-0.8 8.1 0 1.9 0.6 3.4 1.8 3.8 4 0.5 1.9 0.7 3.9 0.7 5.8 0 4.1 0 8.4 0 12.5 0 2 0.9 2.4 2.5 2.3 2.8 0 3 0 3-2.2 0-5.6 0-11.3 0-16.7 0-1 0-1.8-0.2-2.8-1.1-5.6-4.6-8.6-10.4-8.8z"/>
			<path class="s0" d="m455 691.9c-0.9-4.4-4.2-7.6-8.5-7.8-2.9-0.3-5.7-0.3-8.6 0.5-5.3 1.5-5.7 1.9-5.6 7.4 0 0 0 0.3 0.3 0.6 1.4 0 2-1 3-1.3 2.7-1.1 5.6-2.2 8.7-1.9 2 0.1 3.8 1 4.8 2.9 0.4 0.7 0.8 1.4 0.2 2.2-0.5 0.8-1.3 0.7-2 0.5-3.2-0.6-6.2 0-9.2 0.9-3.3 0.7-6.1 2.3-7.2 5.9-1.9 5.9 0.7 11.1 6.9 12.6 5.2 1.4 10.6 0.8 15.8-0.8 1.6-0.6 2.1-1.7 2.1-3.3q0-7 0-14c0-1.4-0.3-2.9-0.6-4.3zm-7.3 17.2c-2.7 0.4-5.5 0.8-8.1 0-1.8-0.6-3.3-1.7-3.4-3.7-0.2-1.9 0.9-3.3 3.3-4.3 1.8-0.7 3.6-0.5 5.2-0.5 5.9 0.2 5.4-0.6 5.5 5.7 0 1.8-0.7 2.7-2.3 2.9z"/>
			<path class="s0" d="m76.2 690.5c-0.8-2.7-2.6-4.8-5.5-5.8-5.2-1.6-10.3-0.9-15.2 1.1-0.8 0.3-1.5 0.9-1.4 1.7 0.1 1.5-0.7 3-0.1 4.8 1.3 0.3 1.9-0.7 2.7-1 2.9-1.1 5.8-2.3 9.1-2 2.2 0.2 4.1 0.9 4.9 3.3 0.7 1.6 0 2.6-1.8 2.3-3.2-0.5-6.4 0-9.6 0.8-4.9 1.1-7.5 4.6-7.5 9.1 0 4.9 2.6 8.4 7.5 9.5 5.3 1.1 10.3 0.8 15.4-0.9 1.5-0.5 2.4-1.3 2.2-3.1q0-7.6 0-15.3c0-1.5-0.4-3.1-0.8-4.6zm-7.4 18.7c-2.6 0.4-5.2 0.5-7.7-0.2-1.9-0.5-3.3-1.6-3.5-3.7-0.1-1.8 1.3-3.4 3.3-4.3 1.8-0.6 3.6-0.4 5.3-0.6 5.3 0 5.3 0 5.3 5.5 0 2-0.7 3-2.7 3.4z"/>
			<path class="s0" d="m876.4 683.9c-8.2-0.7-15.4 6.9-15.4 15.3 0 8.9 6.6 15.8 15 15.6 8.5 0 15.3-7 15.3-15.5 0-8.7-6.6-15.4-14.9-15.4zm0 25.6c-5.9 0-9.4-5.4-9.3-9.9 0.3-5.8 3.8-10.2 9.1-10.2 5.2 0 9.3 4.3 9.4 9.9 0 5.5-4.1 10.2-9.2 10.2z"/>
			<path class="s0" d="m554.3 683.9c-9.5-0.4-16.4 8-15.8 15.3-0.7 7.9 5.6 15.8 14.6 15.9 8.3 0 14.8-6.5 15.3-15 0.5-8.4-6.8-15.8-14.1-16.2zm-0.8 25.6c-5.1 0-9.4-4.6-9.4-10.1 0-5.6 4-10 9.2-10.1 5.2 0 9.4 4.2 9.5 9.9 0 5.3-4.4 10.3-9.2 10.3z"/>
			<path class="s0" d="m590.6 685c-5.5-1.8-11.2-1.5-16.7 0.7-1.2 1.1-0.7 2.5-0.7 3.7 0 10.9 0 21.7 0 32.4 0 10.7 0 1.4 0 2 0 2.3 1.7 1.7 3.1 1.9 1.5 0 2.6 0 2.4-1.9q0-3.6 0-7.1c0-2.3 0.6-1.9 2-1.6 2 0.3 4.1 0.4 6.1-0.3 9-0.8 14.3-7.9 13.4-17.6-0.7-6-4-10.1-9.6-11.9zm-2 23.6c-2.4 1-5 1.1-7.7 0.7-1.6-0.3-2.3-1-2.2-2.5q0-3.7 0-7.4 0-3.7 0-7.4c0-1.5 0.7-2.2 2.1-2.3 2.3-0.3 4.7-0.5 7 0.2 4.1 1.1 6.5 4 6.6 8.1 0.3 6.1-1.4 9-5.8 10.8z"/>
			<path class="s0" d="m219.8 692.7c-1.1-5.6-4.5-8.5-10.3-8.8-4-0.1-7.8 0.3-11.7 0.8-1.9 0.3-2.7 0.9-2.6 2.9q0 7 0 14v12.5c0.8 0 1.4 0.3 1.8 0.3 3.7 0 3.7 0 3.7-3.6q0-7.6 0-15.2c0-5.1 0-6.3 6.4-6.3 4.7 0 6.6 1.8 7.2 6.4 0.7 5.5 0.3 11 0.3 16.4 0 1.8 0.7 2.2 2.2 2.3 3.1 0 3.4 0 3.4-3.4 0-1.1 0-2.1 0-3.2-0.1-5.1 0.5-10.1-0.6-15.2z"/>
			<path class="s0" d="m798.7 699c0-3.8 0-7.8 0-11.8 0-2.6-0.3-2.7-3-2.7-2.5 0-2.5 0-2.5 2.7q0 8 0 16.1c0 5.3-0.3 6.2-6.1 6.3-4.8 0-7-1.9-7.1-6.7 0-4.7 0-9.4 0-14.2 0-4.8 0-1.8 0-2.7-0.3-2.1-1.8-1.4-3-1.4-1.3 0-2.5-0.1-2.4 1.6 0 6.6 0 13.4 0.2 20 0.1 4.9 3.1 7.8 8.1 8.5 4.8 0.7 9.3 0 14-1.1 1.5-0.4 2.1-1.4 2.1-2.9 0-3.8 0-7.8 0-11.8z"/>
			<path class="s0" d="m108.4 699.2c0-4.2 0-8.1 0-12.1 0-2.5-0.2-2.5-2.9-2.5-2.6 0-2.8 0-2.8 2.5q0 8.4 0 16.9c0 5.6-0.2 5.6-5.7 5.6-0.6 0-1.1 0-1.5 0-3.5-0.4-5.3-1.9-5.7-5.4-0.1-1.3-0.1-2.8-0.1-4.2 0-4.1 0-8.4 0-12.5 0-2.8 0-2.8-2.5-2.8-2.7 0-3 0-3 2.6q0 8.1 0 16.1c0 1.4 0.1 2.9 0.5 4.3 1.1 4.4 3.8 6.6 8.2 7.3 4.6 0.6 9 0 13.6-1.1 1.5-0.5 2-1.3 2-2.8 0-4 0-7.8 0-11.8z"/>
			<path class="s0" d="m424.3 699c0-3.8 0-7.8 0-11.7 0-2.7-0.1-2.7-2.4-2.7-2.8 0-3.1 0-3.1 2.6q0 7.8 0 15.7c0 5.2-0.8 7.3-7.2 6.7-3.5-0.3-5.3-1.9-5.7-5.4-0.1-1.1 0-2.3 0-3.5 0-4.6 0-9.1 0-13.8 0-2.4-0.1-2.4-2.7-2.4-2.6 0-2.8 0-2.8 2.4 0 5.8 0 11.4 0 17.2 0 1.1 0.2 2.1 0.4 3 1 4.4 3.6 6.8 8 7.4 4.5 0.7 9.1 0 13.6-0.9 1.9-0.4 2.3-1.5 2.3-3.3 0-3.9 0-7.6 0-11.3z"/>
			<path class="s0" d="m946.1 709.1c-1.1 0-2.4 0-3.6 0-3.8 0-5.3-1.6-5.5-5.5 0-1.8 0-3.8 0-5.5 0-1.7 0-3.5 0-5.1 0-2.9 0-2.9 3-3q3.1 0 6.2 0c2.2 0 2.2-1.4 2.1-2.9 0-1.4 0.3-3-2.1-2.9q-3.1 0-6.2 0c-3 0-3 0-3.1-3 0-1.7 0-3.5 0-5.1 0.1-2.2-1.1-2.2-2.8-2.1-1.3 0-3-0.3-2.9 2.1q0 3.1 0 6.2 0 2.2-2 2c-0.6 0-1.1 0-1.5 0-1.9-0.2-2.5 0.6-2.5 2.5 0 2.9 0 3 3 3.2 3 0 3 0 3 3.3 0 3.8 0 7.8 0 11.6 0 5 2.8 8 7.6 9.2 2.9 0.7 5.8 0.3 8.5 0.3 0.6 0 1.1-0.3 1.3-0.8 0-1.2 0.2-2.6 0-3.9-0.3-1.3-1.7-0.8-2.7-0.8z"/>
			<path class="s0" d="m392.2 709.1c-1.1 0-2.1 0-3.2 0-4.5 0-6-1.4-6.2-6.1 0-3.6 0-7 0-10.6 0-1.9 0.7-2.4 2.5-2.4q3.3 0 6.6 0c2.2 0 2.3-0.3 2.3-3.1 0-2.7-0.1-2.7-2.3-2.6-2.2 0.2-4.4 0-6.6 0-1.8 0-2.6-0.5-2.6-2.4 0-2 0-3.9 0-6 0-2-1.1-2-2.5-1.9-1.2 0-3-0.7-3 1.8 0 1.7 0 3.4 0 5.1 0 3.2 0 3.3-3.1 3.3-2.1 0-2.8 0.7-2.7 2.7 0 2.8 0 2.8 2.8 2.9q2.9 0.2 2.9 3c0 1.8 0 3.8 0 5.5 0 2.4-0.2 4.7 0 7 0.4 5.3 3.8 8.6 9.2 9 1.8 0 3.7 0 5.5 0 2.7 0 2.6 0 2.7-2.9 0.2-2.2-0.7-2.8-2.6-2.6z"/>
			<path class="s0" d="m823.1 709.1c-1.1 0-2 0-3.1 0-4.1 0-5.2-1.1-5.7-5.3-0.1-2 0-4.1 0-6.1 0-1.7 0-3.5 0-5.1-0.1-2 0.7-2.5 2.5-2.5q3.5 0 7 0c2.2 0 2.1-1.5 2.1-2.9 0-1.6 0-2.9-2.2-2.7-2.4 0.1-4.7 0-7 0-1.7 0-2.5-0.7-2.4-2.4 0-1.9 0-3.8 0-5.9 0-2 0-1.8-0.9-1.9-1.4-0.3-2.9-0.6-4.1 0.3-1.1 0.7-0.5 1.9-0.6 2.9 0 1.3 0 2.6 0 3.8 0 2.9 0 3-3 3-2.1 0-2.8 0.7-2.6 2.8 0 2.6 0 2.7 2.4 2.9q0.5 0 0.9 0c1.9-0.3 2.6 0.4 2.4 2.3 0 3.3 0 6.6 0 9.7 0 1.6 0 3.2 0.5 4.7 0.9 4.4 3.8 7.2 8.3 7.6 2.4 0.2 4.7 0 7 0 0.7 0 1.4 0 1.7-0.9 0.3-1.2 0.4-2.6 0-3.8-0.6-1.4-1.8-0.7-2.8-0.8z"/>
			<path class="s0" d="m678.3 709.1c-1.1 0-2 0-3.1 0-3.3 0-4.8-1.4-5.1-4.7-0.1-2.1 0-4.1 0-6.3 0-2.1 0-4.2 0-6.4 0-1.3 0.5-1.9 1.9-1.7q3.3 0 6.6 0c2.8 0 2.9-0.3 2.8-2.9 0-2.6 0-2.6-2.6-2.6-1.7 0-3.5 0-5.1 0q-3.6 0-3.6-3.7c0-1.3 0-2.4 0-3.6 0-2.9 0-2.9-2.6-2.9-2.6 0-2.8 0-2.9 2.7 0 1.8 0 3.8 0 5.5 0 1.3-0.7 2-1.9 2-0.8 0-1.5 0-2.4 0-0.8 0-1.2 0-1.5 0.8-0.9 2.5 0.3 4.5 2.8 4.7 2.9 0.1 3 0.1 3 3.1 0 4.1 0 8.4 0 12.5 0.3 5 2.9 7.7 7.6 8.7 2.7 0.5 5.5 0 8.2 0.2 1 0 1.4-0.5 1.4-1.5 0.5-3.3 0-3.9-3.6-3.9z"/>
			<path class="s0" d="m244.2 709.1c-1.3 0-2.6 0-3.9 0-3.3 0-4.7-1.6-5-4.9 0-1.9 0-3.8 0-5.9 0-2 0-3.1 0-4.6 0-4.4 0-3.6 3.4-3.6h4.7q3.3 0 3.3-2.8c0-2.7 0-2.8-3.2-2.7-1.9 0-3.9 0-5.9 0-1.7 0-2.6-0.4-2.4-2.3 0.1-2 0-3.9 0-5.9 0-0.9 0-1.8-1-2-1.4-0.2-2.9-0.4-4.1 0.3-0.8 0.4-0.4 1.7-0.4 2.6 0 1.1 0 2.4 0 3.6 0 3.6 0 3.7-3.6 3.7-1.9 0-2.5 0.7-2.5 2.5 0 2.7 0 2.9 3.1 3 2.8 0.1 2.8 0.1 2.8 3.2 0 3.9 0 8.1 0 12 0.2 5.1 3.5 8.7 8.4 9.1 2.4 0.3 4.7 0 7 0 2.4 0 1.5 0 1.7-0.8 0.1-1.2 0.2-2.6 0-3.9-0.4-1.3-1.8-0.8-2.8-0.8z"/>
			<path class="s0" d="m583.1 643.1c4 0 8.1 0 12.1 0 4 0 6.8 0 10.2 0 4.1-0.3 6.6-2.6 7.3-6.7 0.7-4.3-0.8-7.6-4.8-9.8-6.8-3.7-13.5-7.3-20.6-11.1q-1 6 3.4 8.4c4.8 2.6 9.6 5.2 14.4 7.9 1.4 0.7 2.2 1.8 1.9 3.5-0.4 1.9-1.7 1.9-3.3 1.9h-2.7c-6 0-12 0-18 0-1.5 0-2.2 0.3-2.1 1.9 0 0.7 0 1.4 0 2-0.2 1.7 0.6 2.2 2.2 2.2z"/>
			<path class="s0" d="m363.8 708c-2 1.3-4.4 1.6-6.8 1.6-5.1-0.3-8.5-3.8-8.9-9.1-0.4-5.2 2.5-9.6 7.1-10.7 2.8-0.7 5.5-0.1 8 1 3 1.4 3 1.4 4.5-1.5 0.7-1.5 0.4-2.4-1.1-3.1-2.7-1.3-5.5-2.1-8.6-1.9-1.3 0-2.4 0-3.6 0-0.7 0-1.2 0.3-1.9 0.6-8.1 2.4-12.5 11.5-9.4 20.6 3.3 9.3 12.7 11.8 22.2 8.2 3.3-1.2 3.3-1.6 1.6-4.8-0.9-1.8-1.6-1.8-3.3-0.8z"/>
			<path class="s0" d="m972 642.6c1.6 0.8 3.3 0.5 5 0.2 1.4-0.2 0.8-1.7 0.8-2.7 0-14.2 0-28.4 0-42.6 0-14.1 0-2.3 0-3.6 0-0.5 0-1.3-0.4-1.3-1.6-0.6-3.4-0.6-4.9 0-1.4 0.2-0.9 1.7-0.9 2.7q0 11.1 0 22.3c0 7.4 0 15.1 0 22.6 0 0.9-0.4 2.1 0.4 2.5z"/>
			<path class="s0" d="m240.9 642.8c1.4 0.5 2.9 0.6 4.3 0 1.4-0.4 0.7-1.7 0.7-2.7q0-11.3 0-22.7v-2.7c0-6.6 0-13.3 0-19.9 0-1.8-0.4-2.5-2.4-2.5-3.2 0-3.2 0-3.2 3.6v40.6c0 1.5 0 3.2 0 4.7 0 0.7 0 1.4 0.6 1.6z"/>
			<path class="s0" d="m778.3 617.8q0 11.4 0 22.7c0 1.5 0.3 2.5 2.1 2.5 3.4 0.3 3.7 0 3.7-3.5 0-12.6 0-25.2 0-38v-7.4c0-0.7 0-1.5-0.7-1.7-1.3-0.4-2.9-0.4-4.2 0-1.5 0.6-0.9 2.1-0.9 3q0 11.2 0 22.3z"/>
			<path class="s0" d="m465.7 670.2c-2.8 0-2.8 0-2.8 2.9 0 6.3 0 12.5 0 18.8 0 6.6 0 13.3 0 19.9 0 2.6 0 2.6 2.6 2.7 2.9 0 3.2 0 3.2-2.4q0-19.6 0-39.2c0-2.6-0.1-2.7-3-2.7z"/>
			<path class="s0" d="m290 670.6c-1.3-0.7-2.8-0.6-4.1-0.1-1.4 0.4-0.9 1.6-0.9 2.6q0 19.3 0 38.7c0 12.9 0.2 2.7 3.1 2.7 2.6 0 2.6 0 2.6-2.6 0-6.4 0-12.7 0-19.2 0-6.6 0-13 0-19.5 0-0.8 0.4-2.1-0.4-2.6z"/>
			<path class="s0" d="m301.4 670.2c-2.6 0-2.6 0-2.8 2.4 0 6.6 0 13.1 0 19.6 0 6.4 0 13 0 19.5 0 2.6 0 2.6 2.6 2.6 2.8 0 2.9 0 2.9-2.4q0-19.7 0-39.5c0-2.4-0.1-2.5-2.9-2.5z"/>
			<path class="s0" d="m652.5 684.5c-4.1 0-8.4-0.2-12.5 0.9-1.6 0.4-2.3 1.3-2.3 3 0 3.9 0 7.6 0 11.4v12.6c0 0.8-0.2 1.6 0.7 2 1.3 0.4 2.8 0.6 4.2 0 1.4-0.4 0.8-1.8 0.8-2.7 0-6.2 0-12.3 0-18.4 0-2.8 0-2.9 2.8-3.1 1.9 0 3.8 0 5.9 0 1.9 0 1.9-1.3 1.8-2.7 0-1.3 0.4-2.9-1.7-2.9z"/>
			<path class="s0" d="m536.4 684.5c-4.1 0-8.3-0.3-12.3 0.9-1.5 0.4-2.1 1.1-2.1 2.8 0 3.8 0 7.8 0 11.6v12.6c0 0.8 0 1.5 0.8 1.9 2.8 1.1 4.8-0.2 4.8-3.2 0-6.2 0-12.2 0-18.4 0-2.1 0.9-2.7 2.8-2.7 1.4 0 2.9 0 4.2 0 3.8 0.2 3.3-0.9 3.3-4 0-0.9-0.4-1.7-1.3-1.5z"/>
			<path class="s0" d="m910.6 684.5c-4.1 0-8.3-0.3-12.3 0.9-1.5 0.4-2.1 1.3-2.1 2.8 0 3.8 0 7.8 0 11.6 0 4 0 8.2 0 12.1 0 2.4 0.2 2.5 2.9 2.5 2.7 0 2.7 0 2.7-2.5 0-6.1 0-12.2 0-18.4 0-6.2 0-3.4 3.5-3.5 1.6 0 3.4 0 5.1 0 1.6 0 1.8-1.3 1.6-2.5 0-1.3 0.6-3-1.4-3z"/>
			<path class="s0" d="m139.6 670.5c-1.1 0-2.4-0.2-3.5-0.2-0.8 0-1.1 0.4-0.9 1.2-0.6 4.2 0.2 8.4-0.5 12.7 0.7 0 1.3-0.3 2-0.4-0.6 0.1-1.3 0.3-2 0.4-4.3-0.1-8.7-0.7-12.7 1.5h-0.2c-0.5 0-0.9 0.4-1.2 0.8h-0.3c-1.8 1-3 2.2-4 3.9-0.4 0-0.5 0.2-0.5 0.7 0 0.2-0.3 0.5-0.4 0.8-2.9 5.2-2.9 10.4 0.1 15.6 0 0.7 0.4 1 0.8 1.3 0.6 1.2 1.4 2 2.5 2.6 0.3 0.5 0.7 0.8 1.4 0.8 0.3 0.4 0.7 0.7 1.1 0.7 0.3 0.3 0.7 0.7 1.2 0.5 0.3 0 0.7 0.2 1 0.3 4.2 1.8 8.6 1.3 13 0.4 1 0 1.8-0.2 2.6-0.7h0.5l0.2-0.2c0.7-0.3 0.9-0.8 0.9-1.5q0-20 0-40c0-0.7 0-1.2-1-1.5zm-12.6 41.6c0 0.1-0.2 0.4-0.3 0.7 0-0.3 0.3-0.6 0.3-0.7zm-3.6-3.7c-1.1-1.1-2.1-2.2-3.2-3.3-0.1-0.6-0.5-1.2-0.5-1.8-1-6.6-0.6-11.8 8.5-14 1.5 0 3 0 4.7 0.3 1.5 0 2.3 0.7 2.3 2.4 0 5.1 0 10.1 0 15.2 0 1.3-0.7 1.9-2.1 2.2-2.4 0.5-4.9 0-7.2 0h-0.3c0-0.2-0.4-0.2-0.4-0.2-0.4-0.5-1-0.7-1.7-0.7zm1.1 0.7q-0.2 0-0.4 0 0.2 0 0.4 0z"/>
			<path class="s0" d="m154.1 699.4c0-4.2 0-8.6 0-12.9 0-2.2-1.2-2-2.7-2-1.7 0-2.8 0-2.8 2.2 0 8.6 0 17.1 0 25.8 0 2.3 1.4 1.9 2.9 2 1.7 0 2.8 0 2.8-2.1 0-4.3 0-8.7 0-13z"/>
			<path class="s0" d="m186 692.6c0-6.8 0-13.6 0-20.4 0-2.3-1.4-2-2.9-2-1.4 0-2.9-0.4-2.9 1.9 0 13.5 0 26.8 0 40.3 0 0.6 0 1.5 0.6 1.7 1.3 0.6 2.9 0.4 4.2 0 1.4-0.2 1-1.6 1-2.6 0-6.3 0-12.7 0-19.1z"/>
			<path class="s0" d="m921.2 700c0-4.3 0-8.7 0-12.9 0-2.6 0-2.6-2.6-2.6-1.8 0-3 0-2.9 2.3 0 8.5 0 16.9 0 25.4 0 2.2 0.3 2.2 3 2.3 1.8 0 2.7-0.4 2.5-2.3 0-4 0-8.1 0-12.1z"/>
			<path class="s0" d="m853.4 612.8c1.3 0 2.3 0 3.4 0 1.2 0 2.3 0 2.5-1.8 0-1.7-0.7-2.2-2.4-2.4-2.6-0.1-3.8-1.3-3.5-3.1 0.4-2.2 2.2-2 3.7-1.8 1.7 0.3 1.9-0.8 1.9-2.1 0-1.2 0-2.2-1.8-2.3-5.6-0.4-8.7 2.3-8.5 8.1 0 1.6-1.4 3.6 0 4.8 1.4 1.1 3.3 0.1 4.7 0.4z"/>
			<path class="s0" d="m958 639.5c1 0 1.1-0.8 1.3-1.6 0-0.3 0.1-0.6 0.2-0.7 0.2-0.3 0.5-0.5 0.6-0.8 1.2-0.4 1-1.4 0.8-2.4 0.4-0.5 0.4-0.9 0-1.5q0-7.2 0-14.4c0-8.2 0-16.6-0.1-24.9-0.8-1.7-2.5-0.6-3.7-0.8-2-0.3-2.1 1-1.5 2.4-0.3 12.7-0.2 25.6 0 38.4-1.1 1.7-1.8 3.7-4.2 3.9-4.9 0-9.7 0-14.8 0 0-0.9 0-1.3 0.1-1.7 3.9-10.3-2.3-19.5-13.4-19.6q-7.4 0-14.9 0c-3 0-3.1 0-3 3 0.2 2.1-0.3 3.7-1.9 5.2-1.9 1.8-2.6 4.4-2.6 7.2 0 2.7 0 2.6 0 3.8 0 1.5-0.6 2.1-2.1 2.1-3.1 0-6.3 0-9.3 0-3.9 0-5.5-1.7-5.5-5.5 0-4.4 0-9 0-13.4 0-2.6 0-2.6-3-2.4-3.1 0-3.1 0-3.1 2.6 0 4.5 0 9.2 0 13.7 0 3.2-1.6 5-4.8 5.1-3.7 0-7.2 0-11 0-2.8 0-4.2-1.4-4.8-4.1-0.2-1.1-0.2-2.4-0.2-3.4 0-3.9 0-7.6 0-11.5 0-2.3-1.3-2.3-3.1-2.4-1.7-0.2-3 0-2.8 2.3 0.1 4.3 0 8.7 0 12.9 0 4.6-1.7 6.1-6.2 6.2-6.2 0-12.3 0-18.4 0-1.4 0-2.6 0-3.7-0.8 0-1.7 0-3.5 0-5.1 0-1.5 0.5-3.2-0.9-4.4-0.5-0.5 0-1.5-0.7-2.1-1.3-1.7-2.3-3.7-4.6-4.4-0.8-1.6-2.5-2.3-4.1-2.6-5.1-0.8-9.7 0.4-13.1 4.6-3.4 4.1-4.3 8.9-2.2 13.8 2.8 6.6 10.9 9.9 17.3 7.1 0.8-0.5 2.1-0.6 1.7-1.8-0.4-1.4-1.3-2.6-2.1-3.7-1-1.1-1.9 0-2.9 0.2-3.4 0.7-6.9-0.9-8.4-4.1-1.5-3-0.1-7.3 2.8-9.3 2.7-2 6.4-1.5 8.9 0.9 1.8 1.7 2.2 3.7 2.2 6.1 0 3-0.5 6 1.2 8.6 0.6 1.5 1.6 2.4 3.1 2.5 0.7 0.6 1.3 0.6 2.2 0.6 7.5 0 15.2 0 22.8 0 0.9 0 1.8 0 2.6-0.6 1.6 0 2.3-1.8 3.8-1.9 0.9-0.4 1.7-0.7 2.5 0 1.1 1.1 2.3 1.9 3.8 1.9 1.7 1 3.6 0.7 5.4 0.7 4-0.3 8 0.8 12-0.6 0.5-0.2 1.1-0.6 1.5-0.9 0.8 0.4 1.2 0 1.5-0.7 0.8-0.4 1.5-0.8 2.5-0.3 1.1 1.1 2.3 1.9 3.8 1.9 1.1 0.9 2.5 0.7 3.8 0.7 11.3 0 22.4 0 33.7 0 1.4 0 2.9 0.2 4.1-0.7 2.1-1.2 4.1-0.6 6.2 0 1 0.7 1.9 0.7 3 0.7 4.4 0 9 0 13.4 0 1.1 0 2.3 0 3.4-0.5 1.5-1.1 3.7-1.3 4.7-3.2zm0-0.9zm-26-12.1c1.5 3.5 0.3 6.7-4.3 9.6 1.5-5.5 1.3-10.2-3.3-13.9 3.1-0.7 6.4 1.2 7.6 4.3zm-25.6 4.8c0-3.9 3.6-7.4 7.3-7.9 3.9-0.4 8.4 2.5 9.5 6 1.1 3.4-1.5 7.1-5.2 7.5-1.7 0.1-3.5 0-5.1 0-0.4 0-0.8 0-1.1 0-6.2 0-5.5 0.8-5.4-5.8zm-25.4 6.9c-0.2 0-0.4 0.3-0.5 0.6 0-0.3 0.1-0.6 0.5-0.6zm-28 1.2zm-33.8-2.3c0.3 1.7 0.6 2.6 1.1 3.2-0.5-0.6-0.8-1.5-1.1-3.2zm60.5 2.3c0 0.5-0.3 0.9-0.5 1.3 0-0.4 0.3-0.8 0.5-1.3 0.2 0 0.4 0 0.6 0-0.2 0-0.4 0-0.6 0z"/>
			<path class="s0" d="m574.6 651.6c0-1.8-0.5-3.4-2.5-4-3.7-0.8-7.4-0.9-11.1 0-1.8 0.5-2.3 2.1-2.5 3.6-0.1 1.7 1 2.5 2.4 3.2 1.8 0.8 3.6 0.7 5.3 0.5 1.8-0.1 3.6-0.4 5.5-0.5 1.8-0.2 3.1-1 3.1-2.9z"/>
			<path class="s0" d="m884.8 655.2c2.3 0.1 4.4-1.4 4.5-3.3 0.3-1.8-1.3-4-3.5-4.4-1.5-0.3-3.2-0.3-3.9-0.3-2.7 0-4.8-0.1-6.6 0.7-1.9 0.8-2.2 2.5-2.2 4.1 0 2 1.5 2.2 3.1 2.4 2.8 0.3 5.7 0.7 8.5 0.8z"/>
			<path class="s0" d="m67.2 647.2c-2.8 0-4.7-0.1-6.6 0.6-2 0.7-2.5 2.2-2.5 4 0 1.3 0.8 2.2 2.1 2.4 3.3 0.5 6.7 0.9 10.1 1 2.1 0 3.9-1.6 4-3.4 0.1-2.1-1.1-3.7-3.3-4.2-1.5-0.2-3.2-0.2-3.8-0.2z"/>
			<path class="s0" d="m25.4 612.8c3 0.2 5.9 0.6 8.9 0.8 2.4 0 4-1.4 4.3-3.2 0.3-2.3-1.4-4.1-3.9-4.5-1.3-0.2-2.8 0-4.2 0-1.7 0-3.5 0-5.1 0-1.8 0.3-3 2.2-3 4 0 2 1.4 2.6 3.1 2.7z"/>
			<path class="s0" d="m316.6 654.9c1.4-0.5 2.5-1.5 2.6-3.1 0-1.7-0.4-3.3-2-3.9-4-1.4-8.3-1.2-12.2 0-1.4 0.4-2.4 2.9-2.1 4.3q0.6 2 2.9 2c2.7 0.2 5.3 0.6 8.1 0.9 0.8 0 1.8 0.1 2.6-0.2z"/>
			<path class="s0" d="m525.9 612.8c3 0.2 5.9 0.6 8.9 0.8 2.3 0 3.8-1.4 4-3.5 0-2.2-1.3-3.9-3.6-4.2-1.4-0.2-2.9 0-4.3 0-1.6 0-3.4-0.2-5 0-2 0.3-3.3 2.2-3.2 4.2 0 2.1 1.6 2.5 3.3 2.7z"/>
			<path class="s0" d="m266.4 612.8q3.5 0.4 7 0.8c0.9 0 2 0 3 0 1.8-0.3 2.7-1.4 3-3 0.3-1.8-0.8-4.2-2.5-4.4-3.7-0.7-7.5-0.9-11.2 0-1.8 0.4-2.5 2.2-2.4 4.1 0 1.9 1.4 2.3 2.9 2.5z"/>
			<path class="s0" d="m200.1 612.5c-2.1 0-3.8-1.7-3.8-3.9 0-2.1 1.7-3.8 3.8-3.8 2.2 0 3.9 1.7 3.9 3.8 0 2.2-1.7 3.9-3.9 3.9z"/>
			<path class="s0" d="m803.5 612.9c2.3 1.2 3.6 0.8 5.6-2.1 1.5 0 1.8 1.7 3 2.2 2.2 1 4.3 0.4 5.4-1.6 0.8-1.4 0-4.1-1.5-5.2-1.5-1.1-3.9-0.7-5.1 0.9-0.5 0.7-0.4 1.8-1.6 1.8v-0.3h-0.2c0-0.4-0.1-0.7-0.5-0.9-0.4-2.5-2.5-2.4-4.3-2.1-2 0.3-2.5 2.2-2.7 3.9-0.4 1.5 0.7 2.6 2 3.3z"/>
			<path class="s0" d="m151.2 680.1c-1.9 0-3.5-1.6-3.5-3.6 0-2 1.6-3.6 3.5-3.6 2 0 3.6 1.6 3.6 3.6 0 2-1.6 3.6-3.6 3.6z"/>
			<path class="s0" d="m918.5 672.8c-1.7 0-3.5 2-3.3 3.7 0 1.8 1.9 3.6 3.5 3.4 2.1 0 3.6-1.9 3.5-4-0.2-1.7-1.9-3.4-3.7-3.3z"/>
			<path class="s0" d="m517.6 324.5c7.2-4.2 14.8-6.8 23.4-6.3 8.2 0.6 14.8 4 20.7 9.9-1.5 1.3-3 0.8-4.2 0.8-6.4 0.5-12.8-0.1-19.3 0.6-7.7 0.8-15.1 2.6-22.1 6.2 0.5 1.3 1.8 0.8 2.7 0.8 8.3 0 16.4 0.8 24.2 3.8 8.5 3.5 13.6 9.5 15.1 18.4 0.4 2.8 0.7 5.7 1 9.3-5.8-3.1-10.4-6.9-15.3-10.2-4.8-3.3-10-6.1-15.3-8.5-5.4-2.2-11-3.6-17.3-4.3 1.3 3.9 2.6 7.3 3.8 10.7 2.7 9.9 4.1 19.9 3.3 30.1-0.3 3.9-1 7.6-1.9 11.1-0.2 0.7-0.3 1.6-1.7 2.1-1.3-16.3-6.7-31.3-13.7-45.9-0.8-1.6-1.5-3.3-2.3-4.9-0.6-1.1-1.4-1.1-2.1-0.3-0.4 0.5-0.8 1.1-1.1 1.5-4.5 6.2-8.1 13.1-12.4 19.4-3.8 6.7-7.8 13.2-12.3 19.5-2.2-7.7-2.5-15.4 0-23.1 2.4-8 7.8-13.6 15.2-18.4-3.1-0.3-5.2 0.8-7.4 1.4-9.3 2.7-18.4 6.6-27.2 10.7-0.6 0.3-1.1 0.7-1.8 0.5 0-0.1-0.4-0.4-0.3-0.5 3.5-5.8 7.2-11.3 12.5-15.4 5.3-4 11.2-6.2 17.6-6.9 3.9-0.2 7.7-0.9 11.6-0.7 0.6 0 1.6 0.5 2-0.8-3.3-3.7-7-7-10.8-10.3-3.9-3.3-7.9-6.4-12.1-9.3-4.1-2.9-8.4-5.7-13.2-7.6 4.7-1.9 9.3-2.9 14.3-2.2 6.2 0.8 11.7 3.5 16.5 7.4 0.8 0.7 1.7 1.6 2.6 2.2 0.5 1.1 1.3 2.1 2.4 2.8 2.4 2.9 3.8 6.3 6.4 8.9 0 0.4 0.2 0.4 0.2 0.2 0 0-0.1 0-0.2-0.2 0-5.8-0.4-11.5 0.8-17.2 0.8-0.6 0.8-1.9 1.2-2.7 3.2-7.6 8.8-12.2 16.6-14.4 0.9 0.9 0.2 1.6-0.1 2.2-3.3 6.4-5.2 13.4-8.1 20.2-0.3 0.8-0.3 1.7-0.4 2.6-1.4 1.2-0.7 2.9-1.1 4.4-0.8 3-1.2 6.2-1.7 9.3 4-2.5 7.7-5.1 11.6-7.3z"/>
			<path class="s0" d="m520.6 450q-7.2-8.3-15.6-15.3c-2.5-2-2.5-2-4.8 0-5.3 4.6-10.2 9.2-14.9 14.3q-0.6 0-1.2 0c3-6.3 6.9-12.2 11-17.9 1.9-2.6 1.9-2.6-0.7-4.4-11.7-8.2-24.2-14.4-38.3-16.8-7.9-1.4-15.8-1.8-23.7 0.1-0.4 0-0.6 0-1.1-0.7 7.6-4.4 15.6-7.6 24.4-8.1 14-1.1 26.1 3.8 36.9 12.2 2.8 2.2 5.6 4.3 7.8 7 1.4 1.7 2.4 1.5 3.7 0 4.9-5.1 10.4-9.2 16.4-12.6 15.1-8.5 30.6-9.1 46.4-2.1 1.7 0.7 3.3 1.7 5 2.5 0.5 0.3 1.1 0.7 1.6 1.4-24.8-4.3-45.9 4.6-65.6 18.8 4.4 5.6 8.2 11.4 11.4 17.6 0.6 1.2 1.9 2.3 0.9 4z"/>
			<path class="s0" d="m515 355.6c-1.2-3.4-2.5-6.9-3.8-10.7 6.3 0.8 11.8 2 17.3 4.2-0.9 0.6-0.6 1 0 1.5 6 5.5 7.9 13 9.3 20.5 0.7 4.3 0.8 8.5 1 12.9-1.3 0.2-1.4-0.8-1.8-1.5-5.4-8.9-11.4-17.4-18.8-24.7-1-1-1.7-2.1-3.2-2.1z"/>
			<path class="s0" d="m483.1 368.9c4.4-6.3 7.9-13.2 12.4-19.4 0.4-0.5 0.7-1.1 1.1-1.5 0.8-0.8 1.5-0.9 2.1 0.3 0.8 1.7 1.5 3.3 2.3 5-2.1 0.5-1.8 2.4-2.2 3.8-2.8 8.9-4.5 18-5.6 27.2-0.6 4.8-1.3 9.5-1.8 14.3-1.5 0-1.4-1.2-1.8-2.1-3.3-7.8-5.2-16-5.9-24.6 0-0.9 0.3-2.2-0.8-2.7z"/>
			<path class="s0" d="m517.6 324.5c-4 2.2-7.5 4.9-11.5 7.3 0.5-3.1 0.8-6.3 1.6-9.3 0.4-1.5-0.3-3.2 1.1-4.4 1.1 0 1.5-0.8 2.1-1.7 7-9.7 16.7-14.4 28.7-14.9q2.5 0 4.9 0c0.3 1.3-0.7 1.5-1.2 1.9-5.9 4.4-12.5 8-18.1 12.9-2.4 2.1-4.7 4.1-6.9 6.3-0.6 0.4-1.4 1-0.6 1.9z"/>
			<path class="s0" d="m481.9 325.1c3.8 3.3 7.5 6.6 10.8 10.3-0.4 1.2-1.3 0.8-2 0.8-3.9-0.3-7.7 0.4-11.6 0.7-0.2-1.4-1.3-1.4-2.3-1.6-10.6-2.7-21.3-4.9-32.1-5.7-0.2-1.2 0.7-1.3 1.3-1.5 9.5-3.1 19.1-4.9 29.2-3.6 1.6 0.2 3.4 0.5 4.9 1.1 0.7 0.3 1.2 0.3 1.7-0.4z"/>
			<path class="s0" d="m498.8 327.4c-2.6-2.6-4-6.2-6.3-8.9-0.2-1.1-0.4-2.1-1.3-2.9-2.3-6.2-5.6-11.8-8.5-18.5 6.9 3.7 12.4 7.8 16.9 13.2-1.4 5.6-0.8 11.4-0.8 17.1z"/>
			<path class="s0" d="m484.1 449q0.6 0 1.2 0c0 0.8-0.2 1.2-0.9 1.2-0.6 0-0.7-0.6-0.2-1.1z"/>
			<path class="s0" d="m449.5 359.7c-0.6 0.1 0 0.4-0.3 0 0 0 0-0.3 0.3 0z"/>
			<path class="s0" d="m520.5 449.8h0.1v0.2l-0.1-0.2z"/>
			<path class="s0" d="m498.7 327.4c0 0 0.2 0 0.2 0.2 0 0.2-0.1 0.1-0.2-0.2z"/>
		</g>
	</g>
</svg>