<?xml version="1.0" encoding="UTF-8"?>
<svg id="Layer_1" xmlns="http://www.w3.org/2000/svg" viewBox="0 0 176.61 163.31">
  <defs>
    <style>
      .cls-1 {
        fill: #ffcd05;
      }
    </style>
  </defs>
  <g id="Layer_1-2" data-name="Layer_1">
    <g id="Logo">
      <path class="cls-1" d="M69.31,69.11c7.7-7.5,12-17.9,11.8-28.7.2-10.8-4.1-21.2-11.8-28.7C61.81,4.11,51.41-.19,40.61,0c-10.8-.2-21.3,4.1-28.8,11.8C4.11,19.41-.19,29.81,0,40.61,0,51.71,3.91,61.41,12.01,69.11c7.5,7.7,17.9,12,28.6,11.8,10.8.2,21.2-4.1,28.7-11.8ZM16.51,40.51c-.1-6.4,2.4-12.6,7-17.1,4.5-4.6,10.6-7.1,17.1-7,6.4,0,12.5,2.5,17.1,7s7.1,10.7,7,17.1c.1,6.4-2.4,12.6-7,17.1-4.5,4.6-10.6,7.1-17.1,7-6.4.1-12.6-2.4-17.1-7-4.6-4.5-7.1-10.6-7-17.1Z"/>
      <path class="cls-1" d="M163.11,10.91c-3.1-3.3-8.3-3.4-11.6-.2l-.2.2L16.91,145.11c-3.3,3.1-3.4,8.3-.2,11.5l.2.2c1.6,1.5,3.8,2.4,6,2.5,2.2,0,4.4-.9,6-2.5L163.11,22.71c3.3-3.1,3.3-8.3.2-11.6,0,0-.1-.1-.2-.2Z"/>
      <path class="cls-1" d="M168.11,108.51c-2.3,0-4.5.8-6,2.6-1.7,2-2.6,4.6-2.5,7.2v3.5c-.3,5.2-2.3,12.8-7,17.2-4.4,4.6-10.5,7.1-16.9,7h-.4c-6.4.1-12.5-2.4-16.9-7-4.6-4.4-6.6-12-7-17.2v-3.5c0-3.1-.8-5.6-2.5-7.2-1.6-1.6-3.7-2.6-6-2.5-2.3,0-4.5.8-6,2.6-1.8,2.1-2.7,4.7-2.5,7.4v2.1c0,11.7,4.4,23.2,11.9,30.6s16.7,11.3,28.3,12h1.8c11.3-.5,20.9-4.6,28.3-12s11.7-18.7,11.9-30.6v-2.1c0-3.2-.9-5.8-2.6-7.4-1.6-1.6-3.7-2.5-5.9-2.6v-.1Z"/>
    </g>
  </g>
</svg>