<svg width="504" height="469" viewBox="0 0 504 469" fill="none" xmlns="http://www.w3.org/2000/svg">
<circle cx="183.187" cy="235.187" r="183.187" fill="url(#paint0_linear_62_250)"/>
<circle cx="183.187" cy="235.187" r="183.187" stroke="url(#paint1_linear_62_250)"/>
<circle cx="320.418" cy="278.813" r="183.187" fill="url(#paint2_linear_62_250)"/>
<circle cx="320.418" cy="278.813" r="183.187" stroke="url(#paint3_radial_62_250)"/>
<path d="M89.7266 328.75C76.3932 328.75 65.3932 327.083 56.7266 323.75C48.2266 320.25 41.4766 314.917 36.4766 307.75C31.4766 300.583 27.9766 291.5 25.9766 280.5C24.1432 269.333 23.2266 256.083 23.2266 240.75C23.2266 225.25 24.1432 212 25.9766 201C27.9766 189.833 31.4766 180.667 36.4766 173.5C41.4766 166.333 48.3099 161 56.9766 157.5C65.8099 154 77.0599 152.25 90.7266 152.25C96.2266 152.25 101.977 152.583 107.977 153.25C113.977 153.917 119.727 154.75 125.227 155.75C130.893 156.583 135.727 157.5 139.727 158.5L138.727 186C135.393 185.333 131.227 184.75 126.227 184.25C121.227 183.583 116.143 183.083 110.977 182.75C105.81 182.417 100.977 182.25 96.4766 182.25C88.4766 182.25 81.9766 183.25 76.9766 185.25C71.9766 187.25 68.0599 190.583 65.2266 195.25C62.5599 199.917 60.7266 206 59.7266 213.5C58.7266 220.833 58.2266 229.917 58.2266 240.75C58.2266 251.417 58.7266 260.5 59.7266 268C60.7266 275.333 62.5599 281.333 65.2266 286C67.8932 290.5 71.7266 293.833 76.7266 296C81.8932 298 88.5599 299 96.7266 299C103.393 299 110.727 298.667 118.727 298C126.893 297.167 133.643 296.417 138.977 295.75L139.727 323C135.727 323.833 130.977 324.75 125.477 325.75C119.977 326.583 114.143 327.25 107.977 327.75C101.81 328.417 95.7266 328.75 89.7266 328.75ZM163.236 326V155.25H276.736V184H197.736V225.5H261.736V253.75H197.736V297.25H276.736V326H163.236ZM365.984 328.75C347.818 328.75 333.401 325.583 322.734 319.25C312.234 312.75 304.651 303 299.984 290C295.484 277 293.234 260.75 293.234 241.25C293.234 221.583 295.484 205.167 299.984 192C304.651 178.833 312.234 168.917 322.734 162.25C333.401 155.583 347.818 152.25 365.984 152.25C384.151 152.25 398.484 155.583 408.984 162.25C419.651 168.917 427.234 178.833 431.734 192C436.401 205.167 438.734 221.583 438.734 241.25C438.734 261.083 436.401 277.5 431.734 290.5C427.234 303.5 419.651 313.167 408.984 319.5C398.484 325.667 384.151 328.75 365.984 328.75ZM365.984 299.75C376.484 299.75 384.401 297.667 389.734 293.5C395.234 289.167 398.901 282.667 400.734 274C402.568 265.167 403.484 254.25 403.484 241.25C403.484 228.25 402.484 217.333 400.484 208.5C398.651 199.5 395.068 192.75 389.734 188.25C384.401 183.583 376.484 181.25 365.984 181.25C355.651 181.25 347.734 183.583 342.234 188.25C336.901 192.75 333.234 199.5 331.234 208.5C329.234 217.333 328.234 228.25 328.234 241.25C328.234 254.083 329.151 264.833 330.984 273.5C332.984 282.167 336.651 288.75 341.984 293.25C347.484 297.583 355.484 299.75 365.984 299.75Z" fill="black"/>
<defs>
<linearGradient id="paint0_linear_62_250" x1="183.187" y1="52" x2="183.187" y2="418.374" gradientUnits="userSpaceOnUse">
<stop stop-color="#FFCC00" stop-opacity="0.56"/>
<stop offset="1" stop-color="#FFCC00" stop-opacity="0.2"/>
</linearGradient>
<linearGradient id="paint1_linear_62_250" x1="375.057" y1="216.974" x2="-49.344" y2="311.003" gradientUnits="userSpaceOnUse">
<stop stop-color="#FFCC00"/>
<stop offset="1" stop-color="#FFCC00" stop-opacity="0"/>
</linearGradient>
<linearGradient id="paint2_linear_62_250" x1="320.418" y1="95.626" x2="320.418" y2="462" gradientUnits="userSpaceOnUse">
<stop stop-color="#FFCC00" stop-opacity="0.5"/>
<stop offset="1" stop-color="#FFCC00" stop-opacity="0.08"/>
</linearGradient>
<radialGradient id="paint3_radial_62_250" cx="0" cy="0" r="1" gradientUnits="userSpaceOnUse" gradientTransform="translate(320.418 278.813) rotate(89.968) scale(379.504)">
<stop offset="0.046875" stop-color="#FFCC00" stop-opacity="0"/>
<stop offset="1" stop-color="#FFCC00"/>
</radialGradient>
</defs>
</svg>
